<?xml version="1.0" encoding="UTF-8" standalone="no"?>
<svg width="32" height="32" viewBox="0 0 32 32" version="1.1" xmlns="http://www.w3.org/2000/svg">
    <path d="M22.381,30.583l0,0c-0.104,-0.529 -2.848,-0.628 -6.088,-0.628c-4.576,-0 -8.414,-0.652 -9.451,-1.452l0.001,-0.002c-1.653,-1.269 -3.037,-2.864 -4.067,-4.686c0.758,1.356 6.521,2.426 13.517,2.426c2.479,-0 4.741,0.177 6.459,0.464c2.006,0.335 3.269,0.83 3.269,1.374c0,0.135 -0.078,0.281 -0.226,0.407l-0,0.034c-1.041,0.804 -2.187,1.407 -3.414,2.063Zm6.287,-5.27c0,0.124 -0.038,0.237 -0.111,0.341c1.137,-1.48 2.079,-3.192 2.622,-5.024c0.026,-0.079 0.039,-0.165 0.039,-0.245c-0,-1.777 -6.682,-3.217 -14.925,-3.217c-8.468,-0 -15.34,-1.415 -15.34,-3.192l-0.001,-0.035c-0.112,0.75 -0.17,1.517 -0.17,2.297c0,1.138 0.124,2.248 0.358,3.317c0.24,1.124 3.207,2.086 7.521,2.621c2.242,0.278 4.85,0.422 7.632,0.422c6.834,-0 12.375,1.215 12.375,2.715Zm-9.286,-15.538c0.17,1.682 0.275,3.53 0.303,5.475c6.608,-0.331 11.53,-1.608 11.53,-3.134c0,-0.079 -0.01,-0.16 -0.036,-0.238c-0.557,-1.89 -1.466,-3.629 -2.652,-5.143c0.092,0.133 0.141,0.271 0.141,0.41c0,1.265 -3.946,2.329 -9.286,2.63Zm-3.096,-3.525c-0.861,-0 -1.658,-0.02 -2.454,-0.058c-0.202,1.076 -0.376,2.283 -0.507,3.589c-5.399,-0.292 -9.404,-1.361 -9.404,-2.636c-0,-0.14 0.048,-0.278 0.14,-0.412c-1.193,1.523 -2.118,3.272 -2.674,5.176c-0.02,0.069 -0.022,0.138 -0.022,0.207c0,1.777 6.793,3.217 14.921,3.217l-0,-9.083Zm5.817,-3.996c-0,-0.275 -0.398,-0.53 -1.074,-0.739l0.001,-0.002c-1.494,-0.477 -3.085,-0.734 -4.737,-0.734c-1.7,-0 -3.336,0.272 -4.867,0.776l0.001,0.002c-0.596,0.2 -0.943,0.44 -0.943,0.697c0,0.703 2.601,1.274 5.809,1.274c3.209,0 5.81,-0.571 5.81,-1.274Z"
          fill="#000000"/>
</svg>