<?xml version="1.0" encoding="UTF-8" standalone="no"?>
<svg width="32" height="32" viewBox="0 0 32 32" version="1.1" xmlns="http://www.w3.org/2000/svg">
    <path d="M1.968,19.461c-0.71,-1.041 -1.064,-2.257 -1.064,-3.467l0,-0c-0,-1.567 0.598,-3.139 1.789,-4.329l8.972,-8.971c1.191,-1.192 2.766,-1.79 4.333,-1.79l0,0c0.966,0 1.935,0.226 2.815,0.679c0.55,0.282 1.065,0.652 1.523,1.111l8.971,8.971c1.192,1.191 1.789,2.766 1.789,4.333c-0,1.567 -0.597,3.144 -1.789,4.337l-0,0l-8.971,8.971c-0.637,0.637 -1.382,1.104 -2.178,1.401c-0.694,0.259 -1.426,0.389 -2.156,0.389l-0.003,-0c-1.568,-0 -3.143,-0.598 -4.334,-1.79l-5.085,-5.084c0,-0 0,-0 0,-0.001l-1.393,-1.393c-0,-0 -0,0 -0,0l-2.493,-2.493c-0.273,-0.273 -0.515,-0.566 -0.726,-0.874Zm23.218,2.888l3.067,-3.067c0.082,-0.082 0.16,-0.167 0.235,-0.253c-0.525,-0.571 -1.305,-0.937 -2.56,-0.503c-2.42,0.838 -4.096,3.538 -2.7,3.911c0.655,0.174 1.33,0.001 1.958,-0.088Zm-20.522,-2.151l2.807,2.807c0.774,-0.683 1.956,-1.375 3.358,-2.388c2.524,-1.826 -1.826,-3.651 -2.9,-4.188c-1.073,-0.537 0,-1.611 1.128,-2.094c1.128,-0.483 0.748,3.064 2.094,1.718c1.289,-1.288 -2.201,-2.792 0.778,-4.591c2.981,-1.798 -1.315,-1.315 -1.315,-2.98c0,-1.664 1.88,-1.879 1.88,-3.167c-0,-0.351 -0.251,-0.58 -0.617,-0.728l-8.131,8.131c-0.235,0.235 -0.44,0.49 -0.614,0.759c0.55,0.259 1.24,0.321 1.737,0.321c1.181,0 1.825,1.826 0.644,3.007c-0.95,0.951 -1.192,2.445 -0.849,3.393Zm24.929,-4.553c-0.357,-0.222 -1.066,-0.396 -1.298,-0.375c-0.313,0.03 -0.418,0.557 0.464,0.773c0.38,0.093 0.669,0.136 0.845,0.096c0.001,-0.047 0.002,-0.094 0.002,-0.141c0,-0.118 -0.004,-0.235 -0.013,-0.353Zm-9.172,-10.759c-0.6,0.458 -0.992,1.04 -1.024,1.299c-0.133,1.06 0.928,1.458 0.398,1.988c-0.53,0.53 -3.651,1.657 -2.917,1.988c1.961,0.882 -1.361,0.759 0,2.12c0.676,0.676 2.811,-0.517 2.585,-1.325c-0.063,-0.229 0.59,-1.09 1.112,-0.636c0.452,0.393 1.848,0.825 1.848,3.138c-0,1.231 1.06,2.431 2.144,2.137c0.9,-0.244 1.05,-1.375 0.492,-1.789c-0.714,-0.53 1.199,-1.17 3.147,0.932c0.376,0.406 0.855,0.435 1.307,0.326c-0.175,-0.862 -0.594,-1.681 -1.259,-2.347l-7.833,-7.831Zm-6.006,-2.218c0.196,0.195 0.502,0.298 0.966,0.238c2.03,-0.261 0.151,1.408 1.116,1.83c0.601,0.263 1.895,-0.21 2.725,-1.048c-0.895,-0.864 -2.056,-1.294 -3.224,-1.294c-0.537,-0 -1.074,0.091 -1.583,0.274Zm4.894,25.558c-1.37,0.245 -3.165,0.736 -4.664,1.18c0.44,0.133 0.896,0.199 1.354,0.199c1.194,-0 2.38,-0.45 3.283,-1.353l0.027,-0.026Zm-1.204,-19.561c0.551,-0.074 0.118,-0.691 -0.195,-0.828c-0.312,-0.137 -1.308,-0.067 -0.939,0.384c0.278,0.34 0.584,0.518 1.134,0.444Zm2.236,5.654c-0.338,-1.39 -3.581,-1.897 -5.135,-0.765c-2.291,1.669 -2.658,4.882 -0.878,5.064c1.779,0.182 3.4,1.906 2.506,3.612c-0.893,1.707 1.08,5.865 3.245,2.849c2.165,-3.015 1.087,-3.604 1.258,-5.265c0.169,-1.66 2.205,-3.766 1.707,-4.379c-0.5,-0.614 -2.439,-0.026 -2.703,-1.116Z"
          fill="#000000"/>
</svg>