<?xml version="1.0" encoding="UTF-8" standalone="no"?>
<!DOCTYPE svg PUBLIC "-//W3C//DTD SVG 1.1//EN" "http://www.w3.org/Graphics/SVG/1.1/DTD/svg11.dtd">
<svg width="100%" height="100%" viewBox="0 0 32 32" version="1.1" xmlns="http://www.w3.org/2000/svg" xmlns:xlink="http://www.w3.org/1999/xlink" xml:space="preserve" xmlns:serif="http://www.serif.com/" style="fill-rule:evenodd;clip-rule:evenodd;stroke-linejoin:round;stroke-miterlimit:2;">
    <path d="M1.968,19.461C1.258,18.42 0.904,17.204 0.904,15.994C0.904,14.427 1.502,12.855 2.693,11.665L11.665,2.694C12.856,1.502 14.431,0.904 15.998,0.904C16.964,0.904 17.933,1.13 18.813,1.583C19.363,1.865 19.878,2.235 20.336,2.694L29.307,11.665C30.499,12.856 31.096,14.431 31.096,15.998C31.096,17.565 30.499,19.142 29.307,20.335L20.336,29.306C19.699,29.943 18.954,30.41 18.158,30.707C17.464,30.966 16.732,31.096 16.002,31.096L15.999,31.096C14.431,31.096 12.856,30.498 11.665,29.306L6.58,24.222L6.58,24.221L2.694,20.335C2.421,20.062 2.179,19.769 1.968,19.461ZM25.186,22.349L28.253,19.282C28.335,19.2 28.413,19.115 28.488,19.029C27.963,18.458 27.183,18.092 25.928,18.526C23.508,19.364 21.832,22.064 23.228,22.437C23.883,22.611 24.558,22.438 25.186,22.349ZM4.664,20.198L7.471,23.005C8.245,22.322 9.427,21.63 10.829,20.617C13.353,18.791 9.003,16.966 7.929,16.429C6.856,15.892 7.929,14.818 9.057,14.335C10.185,13.852 9.805,17.399 11.151,16.053C12.44,14.765 8.95,13.261 11.929,11.462C14.91,9.664 10.614,10.147 10.614,8.482C10.614,6.818 12.494,6.603 12.494,5.315C12.494,4.964 12.243,4.735 11.877,4.587L3.746,12.718C3.511,12.953 3.306,13.208 3.132,13.477C3.682,13.736 4.372,13.798 4.869,13.798C6.05,13.798 6.694,15.624 5.513,16.805C4.563,17.756 4.321,19.25 4.664,20.198ZM29.593,15.645C29.236,15.423 28.527,15.249 28.295,15.27C27.982,15.3 27.877,15.827 28.759,16.043C29.139,16.136 29.428,16.179 29.604,16.139C29.605,16.092 29.606,16.045 29.606,15.998C29.606,15.88 29.602,15.763 29.593,15.645ZM20.421,4.886C19.821,5.344 19.429,5.926 19.397,6.185C19.264,7.245 20.325,7.643 19.795,8.173C19.265,8.703 16.144,9.83 16.878,10.161C18.839,11.043 15.517,10.92 16.878,12.281C17.554,12.957 19.689,11.764 19.463,10.956C19.4,10.727 20.053,9.866 20.575,10.32C21.027,10.713 22.423,11.145 22.423,13.458C22.423,14.689 23.483,15.889 24.567,15.595C25.467,15.351 25.617,14.22 25.059,13.806C24.345,13.276 26.258,12.636 28.206,14.738C28.582,15.144 29.061,15.173 29.513,15.064C29.338,14.202 28.919,13.383 28.254,12.717L20.421,4.886ZM14.415,2.668C14.611,2.863 14.917,2.966 15.381,2.906C17.411,2.645 15.532,4.314 16.497,4.736C17.098,4.999 18.392,4.526 19.222,3.688C18.327,2.824 17.166,2.394 15.998,2.394C15.461,2.394 14.924,2.485 14.415,2.668ZM19.309,28.226C17.939,28.471 16.144,28.962 14.645,29.406C15.085,29.539 15.541,29.605 15.999,29.605C17.193,29.605 18.379,29.155 19.282,28.252L19.309,28.226ZM18.105,8.665C18.656,8.591 18.223,7.974 17.91,7.837C17.598,7.7 16.602,7.77 16.971,8.221C17.249,8.561 17.555,8.739 18.105,8.665ZM20.341,14.319C20.003,12.929 16.76,12.422 15.206,13.554C12.915,15.223 12.548,18.436 14.328,18.618C16.107,18.8 17.728,20.524 16.834,22.23C15.941,23.937 17.914,28.095 20.079,25.079C22.244,22.064 21.166,21.475 21.337,19.814C21.506,18.154 23.542,16.048 23.044,15.435C22.544,14.821 20.605,15.409 20.341,14.319Z" style="fill:rgb(13,151,206);fill-rule:nonzero;"/>
    <path d="M15.999,32.096C14.175,32.096 12.343,31.399 10.958,30.013L6.58,25.636L5.58,24.221L5.873,24.929L5.187,24.242L1.987,21.042C1.67,20.725 1.388,20.384 1.142,20.025C0.317,18.815 -0.096,17.401 -0.096,15.994C-0.096,14.171 0.6,12.342 1.986,10.958L10.958,1.987C12.343,0.6 14.175,-0.096 15.998,-0.096C17.121,-0.096 18.247,0.167 19.27,0.694C19.911,1.022 20.51,1.453 21.043,1.987L30.014,10.958C31.401,12.343 32.096,14.175 32.096,15.998C32.096,17.821 31.401,19.654 30.014,21.042L21.043,30.013C20.302,30.755 19.434,31.298 18.508,31.644C17.701,31.945 16.85,32.096 16.002,32.096L15.999,32.096L16.001,31.096L16.002,31.096C16.732,31.096 17.464,30.966 18.158,30.707C18.954,30.41 19.699,29.943 20.336,29.306L29.307,20.335C30.499,19.142 31.096,17.565 31.096,15.998C31.096,14.431 30.499,12.856 29.307,11.665L20.336,2.694C19.878,2.235 19.363,1.865 18.813,1.583C17.933,1.13 16.964,0.904 15.998,0.904C14.431,0.904 12.856,1.502 11.665,2.694L2.693,11.665C1.502,12.855 0.904,14.427 0.904,15.994C0.904,17.204 1.258,18.42 1.968,19.461C2.179,19.769 2.421,20.062 2.694,20.335L5.187,22.828L6.58,24.222L11.665,29.306C12.856,30.498 14.431,31.096 15.999,31.096L15.999,32.096ZM20.341,14.319C20.605,15.409 22.544,14.821 23.044,15.435C23.542,16.048 21.506,18.154 21.337,19.814C21.166,21.475 22.244,22.064 20.079,25.079C17.914,28.095 15.941,23.937 16.834,22.23C17.728,20.524 16.107,18.8 14.328,18.618C12.548,18.436 12.915,15.223 15.206,13.554C16.76,12.422 20.003,12.929 20.341,14.319ZM21.927,16.093C21.646,16.064 21.35,16.04 21.077,15.989C20.219,15.827 19.574,15.401 19.369,14.555C19.344,14.452 19.235,14.396 19.127,14.328C18.964,14.226 18.768,14.145 18.555,14.083C17.677,13.827 16.503,13.847 15.795,14.362C14.891,15.021 14.352,15.976 14.229,16.792C14.192,17.037 14.191,17.265 14.251,17.453C14.28,17.54 14.331,17.613 14.43,17.623C16.876,17.873 18.949,20.348 17.72,22.694C17.432,23.244 17.662,24.164 18.062,24.759C18.204,24.968 18.34,25.199 18.565,25.139C18.798,25.076 19.012,24.85 19.267,24.496C20.517,22.755 20.508,22.013 20.407,21.243C20.346,20.773 20.282,20.299 20.342,19.712C20.456,18.598 21.277,17.285 21.831,16.281C21.863,16.223 21.895,16.159 21.927,16.093ZM19.309,28.226L19.282,28.252C18.379,29.155 17.193,29.605 15.999,29.605C15.541,29.605 15.085,29.539 14.645,29.406C16.144,28.962 17.939,28.471 19.309,28.226ZM14.415,2.668C14.924,2.485 15.461,2.394 15.998,2.394C17.166,2.394 18.327,2.824 19.222,3.688C18.392,4.526 17.098,4.999 16.497,4.736C15.532,4.314 17.411,2.645 15.381,2.906C14.917,2.966 14.611,2.863 14.415,2.668ZM17.339,3.645L17.325,3.724L17.436,3.685L17.339,3.645ZM20.421,4.886L28.254,12.717C28.919,13.383 29.338,14.202 29.513,15.064C29.061,15.173 28.582,15.144 28.206,14.738C26.258,12.636 24.345,13.276 25.059,13.806C25.617,14.22 25.467,15.351 24.567,15.595C23.483,15.889 22.423,14.689 22.423,13.458C22.423,11.145 21.027,10.713 20.575,10.32C20.053,9.866 19.4,10.727 19.463,10.956C19.689,11.764 17.554,12.957 16.878,12.281C15.517,10.92 18.839,11.043 16.878,10.161C16.144,9.83 19.265,8.703 19.795,8.173C20.325,7.643 19.264,7.245 19.397,6.185C19.429,5.926 19.821,5.344 20.421,4.886ZM18.49,11.099C18.489,11.145 18.49,11.191 18.499,11.223L18.49,11.099ZM20.049,9.211L20.469,9.207L20.878,9.332L21.231,9.565C21.786,10.047 23.423,10.621 23.423,13.458C23.423,13.814 23.578,14.165 23.81,14.406C23.949,14.551 24.116,14.681 24.305,14.63C24.349,14.618 24.371,14.562 24.38,14.531L24.193,14.354L24.033,14.108L23.937,13.844L23.907,13.538L23.958,13.23L24.079,12.963L24.272,12.722L24.581,12.496C24.832,12.361 25.233,12.251 25.75,12.291C25.993,12.309 26.276,12.362 26.587,12.464L20.437,6.316L20.385,6.386C20.391,6.583 20.513,6.717 20.587,6.838C20.709,7.037 20.809,7.222 20.866,7.394L20.944,7.819L20.911,8.162L20.747,8.568L20.502,8.88C20.409,8.974 20.25,9.087 20.049,9.211ZM18.467,10.963L18.479,10.951L18.476,10.907L18.467,10.963ZM18.37,10.113L18.46,10.303L18.506,10.604L18.525,10.518L18.654,10.226C18.73,10.089 18.834,9.944 18.96,9.808L18.775,9.901C18.648,9.964 18.508,10.038 18.37,10.113ZM17.696,7.785C17.634,7.833 17.587,7.888 17.548,7.936C17.471,8.032 17.401,8.203 17.379,8.366L17.499,8.304C17.628,8.238 17.762,8.173 17.896,8.109C17.908,8.022 17.908,7.925 17.876,7.824C17.888,7.828 17.899,7.832 17.91,7.837C18.223,7.974 18.656,8.591 18.105,8.665C17.555,8.739 17.249,8.561 16.971,8.221C16.666,7.848 17.293,7.736 17.696,7.785ZM29.593,15.645C29.602,15.763 29.606,15.88 29.606,15.998L29.604,16.139C29.428,16.179 29.139,16.136 28.759,16.043C27.877,15.827 27.982,15.3 28.295,15.27C28.527,15.249 29.236,15.423 29.593,15.645ZM25.186,22.349C24.558,22.438 23.883,22.611 23.228,22.437C21.832,22.064 23.508,19.364 25.928,18.526C27.183,18.092 27.963,18.458 28.488,19.029C28.413,19.115 28.335,19.2 28.253,19.282L25.186,22.349ZM23.82,21.52C24.116,21.533 24.413,21.474 24.703,21.418L26.768,19.353C26.613,19.368 26.443,19.406 26.255,19.471C25.267,19.813 24.428,20.533 23.981,21.208C23.921,21.299 23.865,21.416 23.82,21.52ZM4.664,20.198C4.321,19.25 4.563,17.756 5.513,16.805C6.694,15.624 6.05,13.798 4.869,13.798C4.372,13.798 3.682,13.736 3.132,13.477C3.306,13.208 3.511,12.953 3.746,12.718L11.877,4.587C12.243,4.735 12.494,4.964 12.494,5.315C12.494,6.603 10.614,6.818 10.614,8.482C10.614,10.147 14.91,9.664 11.929,11.462C8.95,13.261 12.44,14.765 11.151,16.053C9.805,17.399 10.185,13.852 9.057,14.335C7.929,14.818 6.856,15.892 7.929,16.429C9.003,16.966 13.353,18.791 10.829,20.617C9.427,21.63 8.245,22.322 7.471,23.005L4.664,20.198ZM6.791,16.745C6.65,17.012 6.461,17.271 6.22,17.512C5.622,18.111 5.406,19.016 5.55,19.669L7.551,21.671C8.28,21.141 9.202,20.559 10.243,19.807C10.435,19.668 10.576,19.567 10.605,19.431C10.625,19.336 10.534,19.266 10.464,19.179C10.252,18.911 9.932,18.669 9.591,18.445C8.802,17.926 7.891,17.528 7.482,17.323C7.359,17.262 7.252,17.196 7.159,17.127L6.869,16.861L6.791,16.745ZM5.071,12.807C5.644,12.861 6.143,13.141 6.514,13.576C6.744,13.847 6.922,14.186 7.027,14.562C7.418,14.117 8.028,13.688 8.663,13.416L8.922,13.33L9.212,13.29L9.517,13.314L9.706,13.373C9.672,13.086 9.686,12.793 9.767,12.496C9.926,11.908 10.354,11.245 11.412,10.606C11.142,10.482 10.857,10.34 10.659,10.214C10.021,9.808 9.614,9.243 9.614,8.482C9.614,8.405 9.617,8.33 9.622,8.257L5.071,12.807Z" style="fill:white;"/>
    <path d="M16.002,31.962L15.999,31.962C14.209,31.962 12.412,31.279 11.052,29.919L2.081,20.948C1.77,20.636 1.494,20.302 1.253,19.95C0.443,18.762 0.038,17.374 0.038,15.994C0.038,14.205 0.721,12.411 2.08,11.052L11.052,2.082C12.412,0.721 14.209,0.038 15.998,0.038C17.1,0.038 18.205,0.296 19.209,0.813C19.837,1.135 20.426,1.558 20.949,2.081L29.919,11.052C31.28,12.412 31.962,14.209 31.962,15.998C31.962,17.786 31.28,19.586 29.92,20.947L20.949,29.919C20.221,30.646 19.37,31.179 18.461,31.519C17.669,31.814 16.835,31.962 16.002,31.962L16.002,31.096C16.732,31.096 17.464,30.966 18.158,30.707C18.954,30.41 19.699,29.943 20.336,29.306L29.307,20.335C30.499,19.142 31.096,17.565 31.096,15.998C31.096,14.431 30.499,12.856 29.307,11.665L20.336,2.694C19.878,2.235 19.363,1.865 18.813,1.583C17.933,1.13 16.964,0.904 15.998,0.904C14.431,0.904 12.856,1.502 11.665,2.694L2.693,11.665C1.502,12.855 0.904,14.427 0.904,15.994C0.904,17.204 1.258,18.42 1.968,19.461C2.179,19.769 2.421,20.062 2.694,20.335L11.665,29.306C12.856,30.498 14.431,31.096 15.999,31.096L16,31.096L16.002,31.962ZM4.664,20.198C4.321,19.25 4.563,17.756 5.513,16.805C6.694,15.624 6.05,13.798 4.869,13.798C4.372,13.798 3.682,13.736 3.132,13.477C3.306,13.208 3.511,12.953 3.746,12.718L11.877,4.587C12.243,4.735 12.494,4.964 12.494,5.315C12.494,6.603 10.614,6.818 10.614,8.482C10.614,10.147 14.91,9.664 11.929,11.462C8.95,13.261 12.44,14.765 11.151,16.053C9.805,17.399 10.185,13.852 9.057,14.335C7.929,14.818 6.856,15.892 7.929,16.429C9.003,16.966 13.353,18.791 10.829,20.617C9.427,21.63 8.245,22.322 7.471,23.005L4.664,20.198ZM29.593,15.645C29.602,15.763 29.606,15.88 29.606,15.998L29.604,16.139C29.428,16.179 29.139,16.136 28.759,16.043C27.877,15.827 27.982,15.3 28.295,15.27C28.527,15.249 29.236,15.423 29.593,15.645ZM20.341,14.319C20.605,15.409 22.544,14.821 23.044,15.435C23.542,16.048 21.506,18.154 21.337,19.814C21.166,21.475 22.244,22.064 20.079,25.079C17.914,28.095 15.941,23.937 16.834,22.23C17.728,20.524 16.107,18.8 14.328,18.618C12.548,18.436 12.915,15.223 15.206,13.554C16.76,12.422 20.003,12.929 20.341,14.319ZM20.421,4.886L28.254,12.717C28.919,13.383 29.338,14.202 29.513,15.064C29.061,15.173 28.582,15.144 28.206,14.738C26.258,12.636 24.345,13.276 25.059,13.806C25.617,14.22 25.467,15.351 24.567,15.595C23.483,15.889 22.423,14.689 22.423,13.458C22.423,11.145 21.027,10.713 20.575,10.32C20.053,9.866 19.4,10.727 19.463,10.956C19.689,11.764 17.554,12.957 16.878,12.281C15.517,10.92 18.839,11.043 16.878,10.161C16.144,9.83 19.265,8.703 19.795,8.173C20.325,7.643 19.264,7.245 19.397,6.185C19.429,5.926 19.821,5.344 20.421,4.886ZM18.105,8.665C17.555,8.739 17.249,8.561 16.971,8.221C16.602,7.77 17.598,7.7 17.91,7.837C18.223,7.974 18.656,8.591 18.105,8.665ZM14.415,2.668C14.924,2.485 15.461,2.394 15.998,2.394C17.166,2.394 18.327,2.824 19.222,3.688C18.392,4.526 17.098,4.999 16.497,4.736C15.532,4.314 17.411,2.645 15.381,2.906C14.917,2.966 14.611,2.863 14.415,2.668ZM25.186,22.349C24.558,22.438 23.883,22.611 23.228,22.437C21.832,22.064 23.508,19.364 25.928,18.526C27.183,18.092 27.963,18.458 28.488,19.029C28.413,19.115 28.335,19.2 28.253,19.282L25.186,22.349ZM19.309,28.226L19.282,28.252C18.379,29.155 17.193,29.605 15.999,29.605C15.541,29.605 15.085,29.539 14.645,29.406C16.144,28.962 17.939,28.471 19.309,28.226Z" style="fill:white;"/>
</svg>
