<?xml version="1.0" encoding="UTF-8" standalone="no"?>
<svg
   width="32"
   height="32"
   viewBox="0 0 32 32"
   version="1.1"
   id="svg1"
   sodipodi:docname="mapserver_dark.svg"
   inkscape:version="1.3 (0e150ed6c4, 2023-07-21)"
   xmlns:inkscape="http://www.inkscape.org/namespaces/inkscape"
   xmlns:sodipodi="http://sodipodi.sourceforge.net/DTD/sodipodi-0.dtd"
   xmlns="http://www.w3.org/2000/svg"
   xmlns:svg="http://www.w3.org/2000/svg">
  <defs
     id="defs1" />
  <sodipodi:namedview
     id="namedview1"
     pagecolor="#ffffff"
     bordercolor="#000000"
     borderopacity="0.25"
     inkscape:showpageshadow="2"
     inkscape:pageopacity="0.0"
     inkscape:pagecheckerboard="0"
     inkscape:deskcolor="#d1d1d1"
     inkscape:zoom="56.84375"
     inkscape:cx="16"
     inkscape:cy="16"
     inkscape:window-width="3840"
     inkscape:window-height="2054"
     inkscape:window-x="-11"
     inkscape:window-y="-11"
     inkscape:window-maximized="1"
     inkscape:current-layer="svg1" />
  <path
     d="M20.385,10.764c-0,-0.399 0.295,-0.587 0.657,-0.418l6.225,2.9c0.362,0.169 0.657,0.633 0.657,1.031l0,6.959c0,0.399 -0.295,0.587 -0.657,0.418l-6.225,-2.9c-0.362,-0.169 -0.657,-0.633 -0.657,-1.031l-0,-6.959Zm-16.309,-9.196c-0,-0.399 0.295,-0.587 0.657,-0.419l6.226,2.901c0.361,0.169 0.657,0.632 0.657,1.031l-0,6.958c-0,0.399 -0.296,0.588 -0.657,0.419l-6.226,-2.901c-0.362,-0.168 -0.657,-0.632 -0.657,-1.031l-0,-6.958Zm-0,9.196c-0,-0.399 0.295,-0.587 0.657,-0.418l6.226,2.9c0.361,0.169 0.657,0.633 0.657,1.031l-0,6.959c-0,0.399 -0.296,0.587 -0.657,0.418l-6.226,-2.9c-0.362,-0.169 -0.657,-0.633 -0.657,-1.031l-0,-6.959Zm-0,9.196c-0,-0.399 0.295,-0.587 0.657,-0.418l6.226,2.901c0.361,0.168 0.657,0.632 0.657,1.031l-0,6.958c-0,0.399 -0.296,0.587 -0.657,0.419l-6.226,-2.901c-0.362,-0.169 -0.657,-0.632 -0.657,-1.031l-0,-6.959Zm15.694,-18.392l-0,6.958c-0,0.399 -0.296,0.863 -0.657,1.031l-6.226,2.901c-0.361,0.169 -0.657,-0.02 -0.657,-0.419l0,-6.958c0,-0.399 0.296,-0.862 0.657,-1.031l6.226,-2.901c0.362,-0.168 0.657,0.02 0.657,0.419Zm-0,9.196l-0,6.959c-0,0.398 -0.296,0.862 -0.657,1.031l-6.226,2.9c-0.361,0.169 -0.657,-0.019 -0.657,-0.418l0,-6.959c0,-0.398 0.296,-0.862 0.657,-1.031l6.226,-2.9c0.362,-0.169 0.657,0.019 0.657,0.418Zm-0,9.196l-0,6.959c-0,0.399 -0.296,0.862 -0.657,1.031l-6.226,2.901c-0.361,0.168 -0.657,-0.02 -0.657,-0.419l0,-6.958c0,-0.399 0.296,-0.863 0.657,-1.031l6.226,-2.901c0.362,-0.169 0.657,0.019 0.657,0.418Zm0.615,-18.392c-0,-0.399 0.295,-0.587 0.657,-0.419l6.225,2.901c0.362,0.169 0.657,0.632 0.657,1.031l0,6.958c0,0.399 -0.295,0.588 -0.657,0.419l-6.225,-2.901c-0.362,-0.168 -0.657,-0.632 -0.657,-1.031l-0,-6.958Zm-0,18.392c-0,-0.399 0.295,-0.587 0.657,-0.418l6.225,2.901c0.362,0.168 0.657,0.632 0.657,1.031l0,6.958c0,0.399 -0.295,0.587 -0.657,0.419l-6.225,-2.901c-0.362,-0.169 -0.657,-0.632 -0.657,-1.031l-0,-6.959Z"
     fill="white"
     id="path1"
     style="fill:#0d97ce;fill-opacity:1;stroke:#ffffff;stroke-opacity:1;paint-order:stroke fill markers;stroke-linejoin:round;stroke-width:1.9;stroke-dasharray:none" />
</svg>
