<?xml version="1.0" encoding="UTF-8" standalone="no"?>
<svg
   width="32"
   height="32"
   viewBox="0 0 32 32"
   version="1.1"
   id="svg1"
   sodipodi:docname="postgis_dark.svg"
   inkscape:version="1.3 (0e150ed6c4, 2023-07-21)"
   xmlns:inkscape="http://www.inkscape.org/namespaces/inkscape"
   xmlns:sodipodi="http://sodipodi.sourceforge.net/DTD/sodipodi-0.dtd"
   xmlns="http://www.w3.org/2000/svg"
   xmlns:svg="http://www.w3.org/2000/svg">
  <defs
     id="defs1" />
  <sodipodi:namedview
     id="namedview1"
     pagecolor="#ffffff"
     bordercolor="#000000"
     borderopacity="0.25"
     inkscape:showpageshadow="2"
     inkscape:pageopacity="0.0"
     inkscape:pagecheckerboard="0"
     inkscape:deskcolor="#d1d1d1"
     showgrid="false"
     inkscape:lockguides="false"
     showguides="false"
     inkscape:zoom="32"
     inkscape:cx="-0.203125"
     inkscape:cy="19.421875"
     inkscape:window-width="3840"
     inkscape:window-height="2054"
     inkscape:window-x="-11"
     inkscape:window-y="-11"
     inkscape:window-maximized="1"
     inkscape:current-layer="svg1" />
  <path
     style="fill:#ffffff;fill-opacity:1;stroke-width:1.10045"
     d="m 11.542983,19.26945 c 0.566731,0.305925 1.20059,0.485298 1.861959,0.504006 0.0011,0.01651 0.0022,0.03412 0.0033,0.05062 -0.202483,0.240998 -0.346642,0.434677 -0.478696,0.595343 -0.128752,0.157364 -0.237697,0.277313 -0.411568,0.376354 -0.275112,0.156263 -0.682278,0.268509 -1.428382,0.422572 -0.596444,0.12215 -0.960693,0.283915 -1.1642753,0.437978 -0.1089444,0.08253 -0.1848754,0.169469 -0.2387974,0.254204 l -0.080333,0.168368 -0.036314,0.185976 0.00881,0.165067 0.040717,0.149662 c 0.042917,0.112246 0.1144467,0.224492 0.2167885,0.331235 0.2586052,0.267409 0.7593102,0.507307 1.1741802,0.610749 0.926577,0.233295 2.905184,0.533718 4.504137,-0.921076 -0.02201,3.171494 0.140858,6.032661 0.456687,6.81178 0.2476,0.61405 0.682278,1.574742 1.636367,2.115063 0.639361,0.362047 1.515319,0.549124 2.742318,0.287217 1.240207,-0.266309 2.078749,-0.672374 2.663087,-1.280923 0.588741,-0.610749 0.929879,-1.434986 1.12686,-2.577251 0.0011,-0.0066 0.0022,-0.01321 0.0033,-0.02091 l 0.722996,-5.73444 c 0.09244,0.03301 0.191477,0.06163 0.299321,0.08363 1.097148,0.232195 2.817957,0.02454 4.094771,-0.484197 0.758269,-0.302127 1.463979,-0.817819 1.963201,-1.463597 0.09832,-0.127184 0.151617,-0.288841 0.181573,-0.446782 0.0123,-0.06487 0.0088,-0.132971 -0.0022,-0.198081 -0.0123,-0.07286 -0.03761,-0.14398 -0.07043,-0.210186 -0.02028,-0.04093 -0.0476,-0.0784 -0.07703,-0.113346 -0.02858,-0.03393 -0.06053,-0.06547 -0.09574,-0.09244 -0.04819,-0.03691 -0.101044,-0.06831 -0.156264,-0.09353 -0.05023,-0.02294 -0.102672,-0.04412 -0.157364,-0.05172 -0.282176,-0.03925 -0.575696,-0.02593 -0.853948,0.03521 -1.148234,0.252316 -2.621879,0.369907 -3.190202,0.06933 -0.07264,-0.03842 -0.160666,-0.08143 -0.213488,-0.12325 2.745608,-4.181694 4.365469,-9.078692 4.61417,-12.2953049 C 31.321351,5.2783425 31.105664,4.0997617 30.624768,3.4835103 26.75669,-1.4564051 20.255237,0.37254106 19.314353,0.69277169 19.25163,0.71368024 19.205409,0.73238786 19.175696,0.74449282 18.4494,0.56622007 17.661479,0.45947652 16.809732,0.44737158 15.101834,0.42206126 13.775793,0.86114039 12.745773,1.5665281 12.127321,1.3365343 10.275266,0.70707754 8.215225,0.55631603 6.4721138,0.4275635 4.5903461,0.64875374 3.1454567,1.6809749 1.594924,2.7880265 0.50547963,4.8315602 0.6870537,8.45864 c 0.0869355,1.721102 1.78933,10.154943 4.1894091,13.384761 0.7251959,0.974997 1.5395282,1.490008 2.3571618,1.419579 0.5524253,-0.04842 1.140065,-0.362048 1.7211021,-1.061934 1.1433663,-1.378862 2.2008983,-2.518928 2.5882563,-2.931596 z"
     id="path12" />
  <path
     id="path20"
     style="fill:#0d97ce;fill-opacity:1;stroke-width:1.10045"
     d="m 23.244435,1.0218059 c -0.966354,-5.843e-4 -1.832677,0.1242305 -2.486757,0.260067 3.46311,1.5252208 5.191849,4.7431774 5.734371,6.2716995 0.17387,0.4930005 0.21959,0.8459873 0.204184,0.9736393 -0.07303,1.10601 -0.239848,2.2122703 -0.333143,3.3206913 -0.02971,0.922175 0.192252,1.911497 0.242872,2.933813 0.05172,1.058631 -0.0673,2.147322 -0.726468,3.241167 0.03852,0.04952 0.0776,0.09674 0.113914,0.141855 0.0165,0.02091 0.03188,0.04252 0.04728,0.06233 C 28.545306,14.278661 30.031895,9.7508058 30.26409,6.7432819 30.35983,5.5118807 30.26989,4.5560874 29.883661,4.0630868 27.980921,1.6315067 25.370409,1.0230895 23.244432,1.0218039 Z m -6.447943,0.3653834 c -3.422393,-0.04952 -5.0751,2.0631549 -5.876226,4.1804166 -0.479796,1.2655149 -0.663588,2.5357274 -0.732917,3.3808714 0.107845,-0.061625 0.223891,-0.1232675 0.34604,-0.1826917 0.797825,-0.3917595 1.884107,-0.7396564 2.837096,-0.6813326 1.074037,0.064926 2.004536,0.5930745 2.312661,2.020355 0.999208,4.624082 -0.243079,6.081754 -0.7845,7.537647 -0.192577,0.521611 -0.39095,0.991573 -0.492192,1.418546 0.07263,-0.01871 0.143506,-0.03103 0.210633,-0.03653 0.288318,-0.02531 0.54197,0.06132 0.756559,0.150453 0.423672,0.174971 0.802761,0.59555 0.986534,1.091851 0.05282,0.141958 0.08876,0.288851 0.10747,0.436312 0.0121,0.04512 0.01939,0.09128 0.0172,0.139705 0,0.03081 -0.001,0.0616 -0.0022,0.09241 0,0.02641 -0.001,0.05206 -0.0022,0.07737 -0.09464,3.597363 0.01219,7.177678 0.363235,8.047033 0.190377,0.472091 0.494361,1.233655 1.227259,1.648523 0.485296,0.275113 1.152807,0.385071 2.082685,0.186991 1.010211,-0.216788 1.70616,-0.518227 2.181554,-1.012328 0.472092,-0.490799 0.716306,-1.161765 0.874771,-2.076236 0.277831,-2.203118 0.556921,-4.369674 0.836083,-6.572603 0.01677,-1.748068 0.525414,-1.868839 1.03382,-2.097731 0.112245,-0.05062 0.254032,-0.09799 0.373981,-0.135407 C 25.398808,18.924884 25.330881,18.84283 25.25825,18.751493 24.934714,18.346529 24.49983,17.823728 24.166394,17.012698 23.9353,16.453671 22.359405,14.026594 21.83009,11.901629 21.525265,10.682333 21.578551,9.5568123 22.223413,8.819512 22.782441,8.1801518 23.832891,7.782511 25.636525,7.964085 25.626625,7.932172 25.615285,7.899279 25.604285,7.867365 24.950717,6.0230216 22.406575,1.469723 16.796492,1.3871893 Z M 7.569485,1.4645648 C 6.2102126,1.4322927 4.8013733,1.6543413 3.6921219,2.4468014 2.3352698,3.4151955 1.4670658,5.2352562 1.6266308,8.4111488 1.7091644,10.066222 3.3242648,18.17688 5.6308034,21.281243 6.1172013,21.93491 6.603446,22.373129 7.1503687,22.32581 7.5058133,22.294998 7.8573216,22.049424 8.2314738,21.599342 9.3044104,20.306316 10.302382,19.219706 10.759068,18.730007 9.5881913,17.7286 8.8843842,16.105693 9.1341858,14.317465 c 0.2850161,-2.043532 0.08733,-3.807469 0.075226,-4.313675 0,-0.00992 -0.00214,-0.019088 -0.00214,-0.030089 0,0 -0.061831,-2.377626 0.8339332,-4.7413879 C 10.442864,4.171481 11.034356,3.1158047 11.898207,2.266259 11.088274,1.9999505 9.6783731,1.6080012 8.1476506,1.4946551 7.9564477,1.4806244 7.7636668,1.4691749 7.569485,1.4645648 Z m 17.17732,7.3914919 c -0.295882,0.0015 -0.559251,0.026359 -0.793097,0.070927 -0.467691,0.090237 -0.805186,0.2595864 -1.023073,0.509387 -0.46549,0.5326174 -0.409228,1.3570783 -0.18914,2.2374373 0.51721,2.073242 2.067727,4.43414 2.293319,4.979961 0.07593,0.183774 0.158137,0.350029 0.242872,0.50079 0.463289,-0.990401 0.43748,-1.975632 0.341741,-2.920918 -0.08474,-0.83854 -0.221947,-1.649919 -0.197737,-2.415829 0.03741,-1.13236 0.300648,-1.9002722 0.31165,-2.8972763 -0.363146,-0.045119 -0.690652,-0.065993 -0.986535,-0.064479 z M 13.16415,9.0172554 C 12.40688,9.0124059 11.572367,9.30406 10.948208,9.6104667 10.621374,9.77113 10.286063,10.013316 10.15511,10.111257 c 0.02862,0.630555 0.18699,2.356513 -0.08812,4.337316 -0.330133,2.356057 1.374259,4.38675 3.4475,4.38675 0.113347,-0.46549 0.299357,-0.972643 0.502939,-1.519565 0.504007,-1.35575 1.674592,-2.709417 0.745812,-7.011064 -0.194777,-0.9001649 -0.771861,-1.2391738 -1.448637,-1.2809907 -0.04973,-0.00303 -0.09997,-0.00613 -0.150452,-0.00645 z m 11.06682,0.2901575 c 0.207675,-0.00407 0.383576,0.031672 0.490044,0.090271 0.08253,0.045119 0.128752,0.1069669 0.137556,0.1740942 0.0077,0.058324 -0.01586,0.1449841 -0.07308,0.2407232 -0.116648,0.1925777 -0.371211,0.4245837 -0.672735,0.4664007 -0.261906,0.03631 -0.501478,-0.07428 -0.655541,-0.206334 -0.112245,-0.09684 -0.178187,-0.2078295 -0.18699,-0.2815595 -0.0088,-0.067128 0.01994,-0.1392586 0.08598,-0.2041851 0.115547,-0.1144467 0.36057,-0.2193502 0.65769,-0.2600669 0.07456,-0.010454 0.147856,-0.017985 0.217081,-0.019344 z M 13.232928,9.5438378 c 0.09,-0.00152 0.186476,0.00344 0.285859,0.017195 0.31913,0.044017 0.581725,0.1615592 0.704975,0.2837089 0.08803,0.086936 0.120671,0.1827253 0.10747,0.2729623 -0.0121,0.08584 -0.08508,0.215551 -0.21493,0.326696 -0.16947,0.14526 -0.431755,0.267444 -0.717873,0.227827 -0.326832,-0.04622 -0.602065,-0.296003 -0.728616,-0.505089 -0.06933,-0.114446 -0.09372,-0.2218768 -0.08382,-0.2923056 0.0121,-0.088036 0.06945,-0.173751 0.178392,-0.2342757 0.103651,-0.057499 0.270563,-0.093379 0.468551,-0.096719 z M 25.959019,19.832605 c -0.08584,0.02862 -0.183414,0.05621 -0.290158,0.08812 -0.14746,0.04512 -0.32575,0.100603 -0.457804,0.255769 -0.165067,0.193679 -0.248839,0.515147 -0.223528,1.048865 0.02311,0.01541 0.07115,0.04478 0.107469,0.06019 0.07593,0.03191 0.165326,0.05862 0.264367,0.07953 0.399462,0.08474 0.932854,0.09136 1.480877,0.04514 0.740602,-0.06272 1.511846,-0.223306 2.024654,-0.462103 0.555726,-0.258606 1.030898,-0.576757 1.339023,-0.866175 -0.0066,0.0011 -0.01489,0.0032 -0.02149,0.0043 -1.62206,0.334534 -2.640545,0.304256 -3.277704,0.161197 -0.445682,-0.09904 -0.745418,-0.254152 -0.945698,-0.414817 z m -11.258109,0.12896 c -0.118848,0.011 -0.240414,0.09384 -0.391176,0.262216 -0.0121,0.01321 -0.02228,0.02553 -0.03439,0.03653 -0.63936,0.720793 -0.80754,1.075707 -1.291738,1.35192 -0.330135,0.188176 -0.810843,0.342806 -1.704407,0.526581 -0.27181,0.05612 -0.478936,0.115565 -0.631898,0.182693 -0.011,0.0044 -0.02014,0.0096 -0.03224,0.01504 0.01541,0.0121 0.02868,0.02344 0.04298,0.03224 0.17167,0.107844 0.391038,0.193404 0.580315,0.240724 0.86055,0.216787 2.859259,0.539596 4.206208,-1.345472 0.05393,-0.07593 0.08356,-0.160184 0.09458,-0.24932 0.0011,-0.04402 0.0032,-0.08924 0.0043,-0.133257 -0.0055,-0.09794 -0.03036,-0.195571 -0.06448,-0.288009 -0.09024,-0.242099 -0.257367,-0.464389 -0.464251,-0.550225 -0.09024,-0.03741 -0.19275,-0.09158 -0.3138,-0.08168 z" />
</svg>
