<?xml version="1.0" encoding="UTF-8" standalone="no"?>
<svg width="32" height="32" viewBox="0 0 32 32" version="1.1" xmlns="http://www.w3.org/2000/svg">
    <path d="M18.934,1.248c0.524,-0.162 1.397,-0.383 2.466,-0.481c2.488,-0.227 6.045,0.185 8.529,3.36c0.527,0.673 0.836,1.945 0.707,3.622c-0.213,2.762 -1.491,6.842 -3.675,10.525c0.405,-0.01 0.912,-0.071 1.547,-0.202c0.38,-0.079 0.672,-0.089 0.886,-0.069l0.431,0.091l0.336,0.165l0.351,0.317l0.242,0.448l0.07,0.369l-0.041,0.454l-0.185,0.463c-0.08,0.142 -0.193,0.301 -0.342,0.465c-0.374,0.412 -1.051,0.92 -1.883,1.306l-0.004,0.002c-0.874,0.399 -2.335,0.645 -3.483,0.593l-0.23,-0.021c-0.016,0.119 -0.033,0.247 -0.049,0.375c-0.102,4.062 -0.951,5.908 -1.999,6.88c-0.777,0.721 -1.713,1.029 -2.769,1.255l-0.002,0.001c-1.482,0.31 -2.432,-0.031 -3.081,-0.52c-0.873,-0.659 -1.191,-1.74 -1.406,-2.319c-0.296,-0.798 -0.421,-2.151 -0.481,-3.602c-0.014,-0.334 -0.04,-0.782 -0.068,-1.219c-1.395,0.598 -2.813,0.377 -3.576,0.186c-0.523,-0.132 -1.147,-0.454 -1.473,-0.792l-0.092,-0.117c-0.539,0.454 -1.081,0.656 -1.588,0.7c-0.989,0.086 -2.025,-0.451 -2.902,-1.632c-2.266,-3.049 -3.893,-11.005 -3.975,-12.63c-0.185,-3.708 1.008,-5.765 2.592,-6.892c1.474,-1.05 3.388,-1.302 5.166,-1.166c1.613,0.124 3.094,0.552 3.911,0.827c1.008,-0.599 2.264,-0.97 3.838,-0.946c0.831,0.011 1.564,0.083 2.232,0.204Zm-7.04,17.709c0.515,0.278 1.091,0.441 1.692,0.458c0.001,0.015 0.002,0.031 0.003,0.046c-0.184,0.219 -0.315,0.395 -0.435,0.541c-0.117,0.143 -0.216,0.252 -0.374,0.342c-0.25,0.142 -0.62,0.244 -1.298,0.384c-0.542,0.111 -0.873,0.258 -1.058,0.398c-0.099,0.075 -0.168,0.154 -0.217,0.231l-0.073,0.153l-0.033,0.169l0.008,0.15l0.037,0.136c0.039,0.102 0.104,0.204 0.197,0.301c0.235,0.243 0.69,0.461 1.067,0.555c0.842,0.212 2.64,0.485 4.093,-0.837c-0.02,2.882 0.128,5.482 0.415,6.19c0.225,0.558 0.62,1.431 1.487,1.922c0.581,0.329 1.377,0.499 2.492,0.261c1.127,-0.242 1.889,-0.611 2.42,-1.164c0.535,-0.555 0.845,-1.304 1.024,-2.342c0.001,-0.006 0.002,-0.012 0.003,-0.019l0.657,-5.211c0.084,0.03 0.174,0.056 0.272,0.076c0.997,0.211 2.772,0.001 3.721,-0.44c0.856,-0.397 1.527,-0.942 1.784,-1.33c0.099,-0.149 0.15,-0.289 0.165,-0.406l-0.002,-0.18l-0.064,-0.191l-0.07,-0.103l-0.087,-0.084l-0.142,-0.085l-0.143,-0.047c-0.165,-0.039 -0.419,-0.042 -0.776,0.032c-1.594,0.329 -2.446,0.25 -2.899,0.063c-0.082,-0.033 -0.146,-0.074 -0.194,-0.112c2.495,-3.8 3.967,-8.25 4.193,-11.173c0.108,-1.398 -0.088,-2.469 -0.525,-3.029c-3.515,-4.489 -9.423,-2.827 -10.278,-2.536c-0.057,0.019 -0.099,0.036 -0.126,0.047c-0.66,-0.162 -1.376,-0.259 -2.15,-0.27c-1.552,-0.023 -2.757,0.376 -3.693,1.017c-0.562,-0.209 -2.245,-0.781 -4.117,-0.918c-1.584,-0.117 -3.294,0.084 -4.607,1.022c-1.409,1.006 -2.399,2.863 -2.234,6.159c0.079,1.564 1.626,9.228 3.807,12.163c0.659,0.886 1.399,1.354 2.142,1.29c0.502,-0.044 1.036,-0.329 1.564,-0.965c1.039,-1.253 2,-2.289 2.352,-2.664Zm8.373,-16.345c1.902,-0.395 5.778,-0.687 8.293,2.527c0.351,0.448 0.433,1.317 0.346,2.436c-0.211,2.733 -1.562,6.846 -3.838,10.434c-0.014,-0.018 -0.028,-0.036 -0.043,-0.055c-0.033,-0.041 -0.068,-0.084 -0.103,-0.129c0.599,-0.994 0.707,-1.985 0.66,-2.947c-0.046,-0.929 -0.248,-1.828 -0.221,-2.666c0.037,-1.136 0.311,-1.878 0.279,-2.92l0.025,-0.096c0.014,-0.116 -0.029,-0.437 -0.187,-0.885c-0.493,-1.389 -2.064,-4.313 -5.211,-5.699Zm4.522,6.941c-0.01,0.906 -0.249,1.603 -0.283,2.632c-0.022,0.696 0.103,1.434 0.18,2.196c0.087,0.859 0.11,1.755 -0.311,2.655c-0.077,-0.137 -0.151,-0.288 -0.22,-0.455c-0.205,-0.496 -1.614,-2.642 -2.084,-4.526c-0.2,-0.8 -0.251,-1.549 0.172,-2.033c0.198,-0.227 0.503,-0.382 0.928,-0.464c0.425,-0.081 0.958,-0.087 1.618,-0.005Zm-0.795,0.591c-0.008,-0.061 -0.049,-0.117 -0.124,-0.158c-0.129,-0.071 -0.372,-0.103 -0.643,-0.065c-0.27,0.037 -0.494,0.133 -0.599,0.237c-0.06,0.059 -0.085,0.125 -0.077,0.186c0.008,0.067 0.068,0.167 0.17,0.255c0.14,0.12 0.358,0.221 0.596,0.188c0.274,-0.038 0.505,-0.248 0.611,-0.423c0.052,-0.087 0.073,-0.167 0.066,-0.22Zm-11.778,-6.638c-0.785,0.772 -1.321,1.732 -1.686,2.696c-0.814,2.148 -0.758,4.308 -0.758,4.308c0,0.01 0.001,0.019 0.001,0.028c0.011,0.46 0.191,2.063 -0.068,3.92c-0.227,1.625 0.412,3.099 1.476,4.009c-0.415,0.445 -1.322,1.433 -2.297,2.608c-0.34,0.409 -0.658,0.631 -0.981,0.659c-0.497,0.043 -0.939,-0.354 -1.381,-0.948c-2.096,-2.821 -3.564,-10.192 -3.639,-11.696c-0.145,-2.886 0.644,-4.54 1.877,-5.42c1.152,-0.823 2.658,-0.968 4.048,-0.866c1.391,0.103 2.672,0.46 3.408,0.702Zm12.779,15.963c0.182,0.146 0.454,0.287 0.859,0.377c0.579,0.13 1.504,0.158 2.978,-0.146c0.006,-0.001 0.013,-0.003 0.019,-0.004c-0.28,0.263 -0.712,0.551 -1.217,0.786c-0.466,0.217 -1.166,0.364 -1.839,0.421c-0.498,0.042 -0.982,0.035 -1.345,-0.042c-0.09,-0.019 -0.172,-0.042 -0.241,-0.071c-0.033,-0.014 -0.076,-0.041 -0.097,-0.055c-0.023,-0.485 0.053,-0.777 0.203,-0.953c0.12,-0.141 0.281,-0.192 0.415,-0.233c0.097,-0.029 0.187,-0.054 0.265,-0.08Zm-9.466,0.953c-0.001,0.04 -0.002,0.081 -0.003,0.121c-0.01,0.081 -0.037,0.158 -0.086,0.227c-1.224,1.713 -3.04,1.419 -3.822,1.222c-0.172,-0.043 -0.372,-0.121 -0.528,-0.219c-0.013,-0.008 -0.026,-0.017 -0.04,-0.028c0.011,-0.005 0.021,-0.01 0.031,-0.014c0.139,-0.061 0.327,-0.115 0.574,-0.166c0.812,-0.167 1.248,-0.308 1.548,-0.479c0.44,-0.251 0.592,-0.573 1.173,-1.228c0.011,-0.01 0.022,-0.021 0.033,-0.033c0.137,-0.153 0.246,-0.229 0.354,-0.239c0.11,-0.009 0.204,0.041 0.286,0.075c0.188,0.078 0.34,0.279 0.422,0.499c0.031,0.084 0.053,0.173 0.058,0.262Zm3.643,-18.303c-0.089,-0.037 -0.191,-0.044 -0.29,-0.013c0.125,-0.039 0.221,-0.02 0.29,0.013Zm4.083,18.59c-0.001,0.009 -0.003,0.018 -0.004,0.027l-0.754,5.979c-0.144,0.831 -0.367,1.44 -0.796,1.886c-0.432,0.449 -1.065,0.723 -1.983,0.92c-0.845,0.18 -1.451,0.081 -1.892,-0.169c-0.666,-0.377 -0.943,-1.069 -1.116,-1.498c-0.319,-0.79 -0.415,-4.044 -0.329,-7.313c0.001,-0.023 0.002,-0.047 0.002,-0.071c0.001,-0.028 0.002,-0.056 0.002,-0.084c0.002,-0.044 -0.004,-0.086 -0.015,-0.127c-0.017,-0.134 -0.05,-0.267 -0.098,-0.396c-0.167,-0.451 -0.512,-0.833 -0.897,-0.992c-0.195,-0.081 -0.425,-0.159 -0.687,-0.136c-0.061,0.005 -0.125,0.016 -0.191,0.033c0.092,-0.388 0.272,-0.816 0.447,-1.29c0.492,-1.323 1.62,-2.647 0.712,-6.849c-0.28,-1.297 -1.125,-1.777 -2.101,-1.836c-0.866,-0.053 -1.853,0.263 -2.578,0.619c-0.111,0.054 -0.216,0.11 -0.314,0.166c0.063,-0.768 0.23,-1.923 0.666,-3.073c0.728,-1.924 2.228,-3.843 5.338,-3.798c5.098,0.075 7.411,4.213 8.005,5.889c0.01,0.029 0.02,0.059 0.029,0.088c-1.639,-0.165 -2.594,0.195 -3.102,0.776c-0.586,0.67 -0.634,1.694 -0.357,2.802c0.481,1.931 1.913,4.137 2.123,4.645c0.303,0.737 0.698,1.212 0.992,1.58c0.066,0.083 0.128,0.156 0.178,0.225c-0.109,0.034 -0.238,0.078 -0.34,0.124c-0.462,0.208 -0.98,0.627 -0.94,1.873Zm-9.57,-2.147c-1.884,0 -3.433,-1.845 -3.133,-3.986c0.25,-1.8 0.106,-3.369 0.08,-3.942c0.119,-0.089 0.425,-0.309 0.722,-0.455c0.605,-0.297 1.426,-0.577 2.149,-0.533c0.615,0.038 1.141,0.346 1.318,1.164c0.844,3.909 -0.22,5.139 -0.678,6.371c-0.185,0.497 -0.355,0.958 -0.458,1.381Zm-0.843,-8.143c-0.009,0.064 0.012,0.163 0.075,0.267c0.115,0.19 0.366,0.416 0.663,0.458c0.26,0.036 0.498,-0.074 0.652,-0.206c0.118,-0.101 0.184,-0.219 0.195,-0.297c0.012,-0.082 -0.017,-0.17 -0.097,-0.249c-0.112,-0.111 -0.351,-0.217 -0.641,-0.257c-0.289,-0.04 -0.549,-0.003 -0.686,0.073c-0.099,0.055 -0.15,0.131 -0.161,0.211Z"
          fill="#000000"/>
</svg>