<?xml version="1.0" encoding="UTF-8" standalone="no"?>
<svg width="32" height="32" viewBox="0 0 32 32" version="1.1" xmlns="http://www.w3.org/2000/svg">
    <path d="M28.603,28.078l0,-17.854c0,-0.143 -0.052,-0.266 -0.156,-0.37c-0.104,-0.104 -0.227,-0.156 -0.369,-0.156l-17.854,0c-0.143,0 -0.266,0.052 -0.37,0.156c-0.104,0.104 -0.156,0.227 -0.156,0.37l0,17.854c0,0.142 0.052,0.265 0.156,0.369c0.104,0.104 0.227,0.156 0.37,0.156l17.854,0c0.142,0 0.265,-0.052 0.369,-0.156c0.104,-0.104 0.156,-0.227 0.156,-0.369Zm2.101,-17.854l-0,17.854c-0,0.722 -0.258,1.34 -0.772,1.854c-0.514,0.514 -1.132,0.772 -1.854,0.772l-17.854,-0c-0.722,-0 -1.341,-0.258 -1.855,-0.772c-0.514,-0.514 -0.771,-1.132 -0.771,-1.854l-0,-17.854c-0,-0.722 0.257,-1.341 0.771,-1.855c0.514,-0.514 1.133,-0.771 1.855,-0.771l17.854,-0c0.722,-0 1.34,0.257 1.854,0.771c0.514,0.514 0.772,1.133 0.772,1.855Zm-6.302,-6.302l0,2.626l-2.1,-0l-0,-2.626c-0,-0.142 -0.052,-0.265 -0.156,-0.369c-0.104,-0.104 -0.227,-0.156 -0.37,-0.156l-17.854,-0c-0.142,-0 -0.265,0.052 -0.369,0.156c-0.104,0.104 -0.156,0.227 -0.156,0.369l-0,17.854c-0,0.143 0.052,0.266 0.156,0.37c0.104,0.104 0.227,0.156 0.369,0.156l2.626,-0l-0,2.1l-2.626,0c-0.722,0 -1.34,-0.257 -1.854,-0.771c-0.514,-0.514 -0.772,-1.133 -0.772,-1.855l0,-17.854c0,-0.722 0.258,-1.34 0.772,-1.854c0.514,-0.514 1.132,-0.772 1.854,-0.772l17.854,0c0.722,0 1.341,0.258 1.855,0.772c0.514,0.514 0.771,1.132 0.771,1.854Z"
          fill="#0d97ce"/>
</svg>