<?xml version="1.0" encoding="UTF-8" standalone="no"?>
<svg width="32" height="32" viewBox="0 0 32 32" version="1.1" xmlns="http://www.w3.org/2000/svg">
    <path d="M14.222,15.48l0,-11.708c0,-0.981 0.796,-1.777 1.778,-1.777c0.982,-0 1.778,0.796 1.778,1.777l-0,11.708l5.854,-5.854l2.514,2.515l-8.889,8.888l-1.257,1.257l-1.257,-1.257l-8.889,-8.888l2.514,-2.515l5.854,5.854Zm-12.444,7.414l3.555,0l0,1.778c0,0.982 0.796,1.778 1.778,1.778l17.778,-0c0.982,-0 1.778,-0.796 1.778,-1.778l-0,-1.778l3.555,0l0,1.778c0,2.946 -2.388,5.333 -5.333,5.333l-17.778,0c-2.945,0 -5.333,-2.387 -5.333,-5.333l-0,-1.778Z"
          fill="#0d97ce"/>
</svg>
