<?xml version="1.0" encoding="UTF-8"?>
<svg width="300px" height="50px" viewBox="0 0 300 50" version="1.1" xmlns="http://www.w3.org/2000/svg" xmlns:xlink="http://www.w3.org/1999/xlink">
    <!-- Generator: Sketch 57.1 (83088) - https://sketch.com -->
    <title>Horizontal/Titles-Logo/Bridge</title>
    <desc>Created with Sketch.</desc>
    <defs>
        <circle id="path-1" cx="25" cy="25" r="25"></circle>
    </defs>
    <g id="Horizontal/Titles-Logo/Bridge" stroke="none" stroke-width="1" fill="none" fill-rule="evenodd">
        <g id="Logo/Bridge/Colour">
            <g id="gc_bridge_logo">
                <mask id="mask-2" fill="white">
                    <use xlink:href="#path-1"></use>
                </mask>
                <use id="Background" fill="#FFD200" xlink:href="#path-1"></use>
                <path d="M32.2970308,17.6679887 C32.680039,17.6679887 32.9905722,17.9785002 32.9905722,18.3615301 L32.9905722,18.3615301 L32.9979414,18.6712208 C33.0634644,20.1086869 33.5674064,21.4344127 34.3791071,22.5163632 L34.3791071,22.5163632 L34.5812872,22.7733777 C34.8586857,23.1091842 35.1670134,23.4185002 35.5018205,23.6970091 L35.5018205,23.6970091 L35.4904855,23.6970091 C35.4927178,23.6988947 35.4950152,23.7007369 35.4972692,23.7026225 C35.664586,23.8414391 35.8384915,23.9725618 36.0184655,24.095427 L36.0184655,24.095427 C36.2623754,24.2618552 39.0183788,25.8737971 39.0183788,25.8737971 C40.3887733,26.6471391 41.3141959,28.1165583 41.3141959,29.802254 C41.3141959,32.2919593 39.2959038,34.3102731 36.8061769,34.3102731 L36.8061769,34.3102731 L12.5217165,34.3102731 C10.0319896,34.3102731 8.01369744,32.2919593 8.01369744,29.802254 C8.01369744,27.3125488 10.0319896,25.2942349 12.5217165,25.2942349 L12.5217165,25.2942349 L16.3474859,25.2948418 L16.3484829,18.3615301 C16.3484829,17.9785002 16.659016,17.6679887 17.0420243,17.6679887 C17.4250542,17.6679887 17.7355657,17.9785002 17.7355657,18.3615301 L17.7355657,18.3615301 C17.7415908,22.1627655 20.8119202,25.2636107 24.6107499,25.2961638 L24.6107499,25.2961638 L24.7269181,25.2961855 C28.5263762,25.2644127 31.5974859,22.1632423 31.6033593,18.3615301 L31.6033593,18.3615301 L31.6098211,18.2674212 C31.6557482,17.9289046 31.9459399,17.6679887 32.2970308,17.6679887 Z M32.2988513,21.6953619 C32.1037711,22.1415908 31.8704811,22.5672302 31.6034894,22.9685306 L31.6034894,22.9685306 L31.6034894,22.9454703 C30.98873,23.8697443 30.19443,24.6644993 29.2694625,25.2789337 C29.2694625,25.2789337 29.2845904,25.2908973 29.2755093,25.2969441 L29.2755093,25.2969441 L29.5243173,25.2969658 C31.4408106,25.2969658 32.9920243,26.8481795 32.9920243,28.7646727 C32.9920243,30.6811877 31.4408106,32.2323797 29.5243173,32.2323797 L29.5243173,32.2323797 L19.8147378,32.2323797 C19.4317078,32.2323797 19.1211964,31.9218466 19.1211964,31.5388383 C19.1211964,31.1557867 19.4317078,30.8452969 19.8147378,30.8452969 L19.8147378,30.8452969 L29.5243173,30.8452969 C30.674534,30.8452969 31.6049415,29.9152146 31.6049415,28.7649328 C31.6049415,27.6146727 30.6688123,26.6840485 29.5186173,26.6840485 L29.5186173,26.6840485 L17.7341136,26.6826181 L17.7341136,29.4582141 C17.7341136,29.8412224 17.4235804,30.1517555 17.0405722,30.1517555 C16.6575639,30.1517555 16.3470308,29.8412224 16.3470308,29.4582141 L16.3470308,29.4582141 L16.3473342,26.6824447 L12.5244257,26.6819896 C10.8007802,26.6819896 9.40348938,28.0792805 9.40348938,29.8029259 C9.40348938,31.5265713 10.8007802,32.9238622 12.5244257,32.9238622 L12.5244257,32.9238622 L12.5244257,32.9259428 L36.803446,32.9259428 C38.5271131,32.9238622 39.9243823,31.5265713 39.9243823,29.8029042 C39.9243823,28.6079974 39.2527958,27.5700694 38.2665583,27.045687 L38.2665583,27.045687 L35.3327915,25.2944733 C34.7905072,24.9338535 34.2855873,24.5048981 33.8367794,24.0253576 C33.8181838,24.005505 33.8016472,23.9838752 33.786736,23.9609016 C33.4962722,23.6438665 33.2295405,23.3047248 32.9905722,22.9454486 L32.9905722,22.9454486 L32.9905722,22.9628305 C32.7251192,22.563199 32.4930212,22.1395102 32.2988513,21.6953619 Z M17.735544,22.945492 L17.7348288,22.9654882 L17.7341136,22.9644127 L17.7340702,25.2951019 L20.0626571,25.2954703 C20.054313,25.289922 20.0459038,25.2845254 20.0376029,25.2789554 L20.0376029,25.2789554 L20.0695925,25.2789554 C19.1446684,24.664521 18.3503034,23.8697659 17.735544,22.945492 L17.735544,22.945492 Z" id="GeoCat-Bridge-Clip" fill="#FFFFFF" fill-rule="nonzero" mask="url(#mask-2)"></path>
            </g>
        </g>
        <g id="Horizontal/Titles/Bridge" transform="translate(57.000000, 0.000000)">
            <g transform="translate(105.000000, 26.000000) rotate(90.000000) translate(-105.000000, -26.000000) translate(82.000000, -80.000000)" id="Titles/Bridge">
                <g transform="translate(23.000000, 106.000000) rotate(-90.000000) translate(-23.000000, -106.000000) translate(-82.000000, 84.000000)" fill-rule="nonzero">
                    <path d="M5.73647059,32.8746667 C9.00332855,32.8746667 10.7866858,35.3208647 10.7866858,38.2720842 C10.7866858,41.775671 8.6876901,43.8746667 5.56286944,43.8746667 C2.42226686,43.8746667 0.56,41.4915964 0.56,38.4456853 C0.56,35.257737 2.61164993,32.8746667 5.73647059,32.8746667 Z M5.68912482,34.7842793 C4.04780488,34.7842793 3.10088953,36.3309077 3.10088953,38.3983396 C3.10088953,40.4973352 4.07936872,41.965054 5.68912482,41.965054 C7.31466284,41.965054 8.24579627,40.4184256 8.24579627,38.3509938 C8.24579627,36.4255992 7.34622669,34.7842793 5.68912482,34.7842793 Z M14.5743472,43.7010655 L12.364878,43.7010655 L12.364878,33.0640497 L15.1740603,33.0640497 L17.3835294,36.9621846 C18.0148063,38.0827011 18.6303013,39.4083826 19.1195409,40.6078087 L19.1511047,40.6078087 C19.0090674,39.2032176 18.9617217,37.7670626 18.9617217,36.1573066 L18.9617217,33.0640497 L21.1711908,33.0640497 L21.1711908,43.7010655 L18.6460832,43.7010655 L16.3734864,39.5977657 C15.7422095,38.4614672 15.032023,37.08844 14.5270014,35.8416681 L14.4638737,35.8416681 C14.5427834,37.2620411 14.5743472,38.7613238 14.5743472,40.4973352 L14.5743472,43.7010655 Z M29.5829555,37.2462592 L29.5829555,39.2032176 L25.6690387,39.2032176 L25.6690387,41.7283252 L30.0406313,41.7283252 L30.0406313,43.7010655 L23.2701865,43.7010655 L23.2701865,33.0640497 L29.8196844,33.0640497 L29.8196844,35.0367901 L25.6690387,35.0367901 L25.6690387,37.2462592 L29.5829555,37.2462592 Z M42.318967,41.5231602 L42.6661693,43.4169909 C42.2400574,43.6221559 41.2300143,43.8746667 39.9516786,43.8746667 C36.2744907,43.8746667 34.38066,41.570506 34.38066,38.5403769 C34.38066,34.9105347 36.9688953,32.9062305 40.1884075,32.9062305 C41.4351793,32.9062305 42.3820947,33.1429593 42.8082066,33.3796882 L42.3031851,35.2735189 C41.8297274,35.0683539 41.1511047,34.8789708 40.283099,34.8789708 C38.3892683,34.8789708 36.9057676,36.0310512 36.9057676,38.3983396 C36.9057676,40.5288991 38.1683214,41.8703625 40.2988809,41.8703625 C41.0406313,41.8703625 41.8297274,41.7283252 42.318967,41.5231602 Z M44.2759254,43.7010655 L44.2759254,33.0640497 L46.6747776,33.0640497 L46.6747776,41.6809794 L50.9043329,41.6809794 L50.9043329,43.7010655 L44.2759254,43.7010655 Z M52.3404878,33.0640497 L54.73934,33.0640497 L54.73934,43.7010655 L52.3404878,43.7010655 L52.3404878,33.0640497 Z M64.2716212,41.5231602 L64.6188235,43.4169909 C64.1927116,43.6221559 63.1826686,43.8746667 61.9043329,43.8746667 C58.2271449,43.8746667 56.3333142,41.570506 56.3333142,38.5403769 C56.3333142,34.9105347 58.9215495,32.9062305 62.1410617,32.9062305 C63.3878336,32.9062305 64.3347489,33.1429593 64.7608608,33.3796882 L64.2558393,35.2735189 C63.7823816,35.0683539 63.103759,34.8789708 62.2357532,34.8789708 C60.3419225,34.8789708 58.8584218,36.0310512 58.8584218,38.3983396 C58.8584218,40.5288991 60.1209756,41.8703625 62.2515352,41.8703625 C62.9932855,41.8703625 63.7823816,41.7283252 64.2716212,41.5231602 Z M66.2127977,43.7010655 L66.2127977,33.0640497 L68.595868,33.0640497 L68.595868,37.7670626 L68.6274319,37.7670626 C68.8641607,37.3567327 69.1166714,36.9779665 69.3691822,36.5992004 L71.7680344,33.0640497 L74.7350359,33.0640497 L71.2156671,37.5934615 L74.908637,43.7010655 L72.1152367,43.7010655 L69.4954376,39.1085261 L68.595868,40.2290426 L68.595868,43.7010655 L66.2127977,43.7010655 Z M79.0908465,43.6537198 L79.0908465,33.221869 C79.9746341,33.0798317 81.1267145,32.9851401 82.3261406,32.9851401 C84.3620086,32.9851401 85.6876901,33.3639063 86.6977331,34.1214385 C87.8024677,34.9420985 88.4968723,36.2519981 88.4968723,38.1300469 C88.4968723,40.1659149 87.755122,41.570506 86.7450789,42.4385117 C85.6245624,43.3696451 83.9043329,43.811539 81.8211191,43.811539 C80.5743472,43.811539 79.6747776,43.7326294 79.0908465,43.6537198 Z M81.4896987,34.9263166 L81.4896987,41.8861444 C81.6948637,41.9334902 82.042066,41.9334902 82.3261406,41.9334902 C84.5198278,41.9492721 85.9559828,40.749846 85.9559828,38.2089565 C85.9559828,35.9994873 84.6618651,34.8316251 82.5786514,34.8316251 C82.0578479,34.8316251 81.6948637,34.8789708 81.4896987,34.9263166 Z M95.5987374,40.9707929 L92.5528264,40.9707929 L91.7952941,43.7010655 L89.3175323,43.7010655 L92.5528264,33.0640497 L95.7092109,33.0640497 L99.0234146,43.7010655 L96.4193974,43.7010655 L95.5987374,40.9707929 Z M92.9000287,39.1716538 L95.2515352,39.1716538 L94.5886944,36.9148388 C94.3993113,36.2835619 94.2099283,35.4944658 94.052109,34.8631889 L94.0205452,34.8631889 C93.862726,35.4944658 93.7049067,36.2993439 93.5313056,36.9148388 L92.9000287,39.1716538 Z M102.495438,43.7010655 L102.495438,35.0841358 L99.6231277,35.0841358 L99.6231277,33.0640497 L107.798164,33.0640497 L107.798164,35.0841358 L104.89429,35.0841358 L104.89429,43.7010655 L102.495438,43.7010655 Z M114.600172,40.9707929 L111.554261,40.9707929 L110.796729,43.7010655 L108.318967,43.7010655 L111.554261,33.0640497 L114.710646,33.0640497 L118.024849,43.7010655 L115.420832,43.7010655 L114.600172,40.9707929 Z M111.901463,39.1716538 L114.25297,39.1716538 L113.590129,36.9148388 C113.400746,36.2835619 113.211363,35.4944658 113.053544,34.8631889 L113.02198,34.8631889 C112.864161,35.4944658 112.706341,36.2993439 112.53274,36.9148388 L111.901463,39.1716538 Z M122.617389,43.7010655 L122.617389,33.206087 C123.359139,33.0798317 124.400746,32.9851401 125.868465,32.9851401 C127.351966,32.9851401 128.409354,33.2692147 129.119541,33.8373639 C129.813945,34.3739493 130.255839,35.257737 130.255839,36.2993439 C130.255839,37.3409507 129.924419,38.2405203 129.27736,38.8244515 C128.4567,39.5819837 127.241492,39.944968 125.821119,39.944968 C125.505481,39.944968 125.221406,39.929186 125.000459,39.8818403 L125.000459,43.7010655 L122.617389,43.7010655 Z M125.000459,34.8947527 L125.000459,38.0353553 C125.205624,38.0827011 125.442353,38.098483 125.805337,38.098483 C127.083673,38.098483 127.872769,37.4514242 127.872769,36.3782535 C127.872769,35.3997743 127.194146,34.8158431 125.978938,34.8158431 C125.505481,34.8158431 125.17406,34.847407 125.000459,34.8947527 Z M131.786686,33.0640497 L134.185538,33.0640497 L134.185538,39.1716538 C134.185538,41.0181387 134.895725,41.9492721 136.110933,41.9492721 C137.373486,41.9492721 138.067891,41.0654845 138.067891,39.1716538 L138.067891,33.0640497 L140.466743,33.0640497 L140.466743,39.0296165 C140.466743,42.3122563 138.809641,43.8746667 136.032023,43.8746667 C133.349096,43.8746667 131.786686,42.375384 131.786686,38.9980526 L131.786686,33.0640497 Z M142.549957,43.6537198 L142.549957,33.206087 C143.181234,33.0956136 144.443788,32.9851401 145.658996,32.9851401 C147.126714,32.9851401 148.026284,33.1271774 148.81538,33.5848532 C149.557131,33.9794012 150.077934,34.7053697 150.077934,35.6838489 C150.077934,36.6149823 149.525567,37.482988 148.326141,37.9406638 L148.326141,37.9722276 C149.541349,38.2878661 150.440918,39.2189995 150.440918,40.5762449 C150.440918,41.5547241 149.999024,42.3122563 149.336184,42.8488417 C148.562869,43.4643367 147.268752,43.811539 145.153974,43.811539 C143.97033,43.811539 143.086542,43.7326294 142.549957,43.6537198 Z M144.933027,34.8000612 L144.933027,37.2778231 L145.722123,37.2778231 C147.000459,37.2778231 147.6633,36.7570196 147.6633,35.9679235 C147.6633,35.1630454 147.047805,34.7369335 145.958852,34.7369335 C145.422267,34.7369335 145.12241,34.7684974 144.933027,34.8000612 Z M144.933027,38.9980526 L144.933027,41.9966179 C145.169756,42.0281817 145.453831,42.0281817 145.864161,42.0281817 C146.953113,42.0281817 147.915811,41.6020698 147.915811,40.4815533 C147.915811,39.4241645 146.953113,38.9980526 145.753687,38.9980526 L144.933027,38.9980526 Z M152.09802,43.7010655 L152.09802,33.0640497 L154.496872,33.0640497 L154.496872,41.6809794 L158.726428,41.6809794 L158.726428,43.7010655 L152.09802,43.7010655 Z M160.162582,33.0640497 L162.561435,33.0640497 L162.561435,43.7010655 L160.162582,43.7010655 L160.162582,33.0640497 Z M164.234319,43.196044 L164.723558,41.2233037 C165.354835,41.5547241 166.364878,41.8861444 167.390703,41.8861444 C168.495438,41.8861444 169.079369,41.4284687 169.079369,40.7340641 C169.079369,40.0712233 168.574347,39.6924572 167.296011,39.2505634 C165.528436,38.6192865 164.360574,37.6408073 164.360574,36.0941789 C164.360574,34.2792578 165.89142,32.9062305 168.384964,32.9062305 C169.600172,32.9062305 170.468178,33.1429593 171.099455,33.4428159 L170.562869,35.3682104 C170.152539,35.1630454 169.379225,34.8631889 168.3534,34.8631889 C167.311793,34.8631889 166.806772,35.3524285 166.806772,35.8890139 C166.806772,36.5676365 167.390703,36.8674931 168.779512,37.3882965 C170.657561,38.0827011 171.525567,39.0611803 171.525567,40.5604629 C171.525567,42.3438202 170.168321,43.8588847 167.248666,43.8588847 C166.033458,43.8588847 164.834032,43.5274644 164.234319,43.196044 Z M173.182669,33.0640497 L175.581521,33.0640497 L175.581521,37.1515677 L179.542783,37.1515677 L179.542783,33.0640497 L181.941636,33.0640497 L181.941636,43.7010655 L179.542783,43.7010655 L179.542783,39.2505634 L175.581521,39.2505634 L175.581521,43.7010655 L173.182669,43.7010655 L173.182669,33.0640497 Z M184.056413,33.0640497 L186.455265,33.0640497 L186.455265,43.7010655 L184.056413,43.7010655 L184.056413,33.0640497 Z M190.747948,43.7010655 L188.538479,43.7010655 L188.538479,33.0640497 L191.347661,33.0640497 L193.557131,36.9621846 C194.188407,38.0827011 194.803902,39.4083826 195.293142,40.6078087 L195.324706,40.6078087 C195.182669,39.2032176 195.135323,37.7670626 195.135323,36.1573066 L195.135323,33.0640497 L197.344792,33.0640497 L197.344792,43.7010655 L194.819684,43.7010655 L192.547088,39.5977657 C191.915811,38.4614672 191.205624,37.08844 190.700603,35.8416681 L190.637475,35.8416681 C190.716385,37.2620411 190.747948,38.7613238 190.747948,40.4973352 L190.747948,43.7010655 Z M208.313228,37.6092434 L208.313228,43.2118259 C207.571478,43.4643367 206.166887,43.811539 204.762296,43.811539 C202.821119,43.811539 201.416528,43.3222994 200.438049,42.3911659 C199.475352,41.4600325 198.938766,40.0712233 198.938766,38.508813 C198.954548,34.9736624 201.527001,32.9535763 205.014806,32.9535763 C206.387834,32.9535763 207.445222,33.221869 207.966026,33.4585978 L207.461004,35.3997743 C206.877073,35.1314816 206.166887,34.9420985 204.999024,34.9420985 C202.99472,34.9420985 201.463874,36.062615 201.463874,38.3825576 C201.463874,40.5920268 202.852683,41.8703625 204.825423,41.8703625 C205.362009,41.8703625 205.803902,41.8072348 205.993286,41.7283252 L205.993286,39.4872922 L204.351966,39.4872922 L204.351966,37.6092434 L208.313228,37.6092434 Z" id="ONECLICKDATAPUBLISHINGFORARCGIS" fill="#07002D"></path>
                    <path d="M2.112,22.5548992 L2.112,1.38629457 C3.39106977,1.16245736 5.9492093,0.938620155 8.4114186,0.938620155 C11.3852558,0.938620155 13.2079302,1.22641085 14.8067674,2.15373643 C16.3096744,2.95315504 17.364907,4.42408527 17.364907,6.40664341 C17.364907,8.29327132 16.2457209,10.0519922 13.8154884,10.9793178 L13.8154884,11.0432713 C16.2776977,11.6828062 18.1003721,13.5694341 18.1003721,16.3194341 C18.1003721,18.3019922 17.2050233,19.836876 15.862,20.9240853 C14.2951395,22.1711783 11.6730465,22.8746667 7.38816279,22.8746667 C4.98990698,22.8746667 3.1992093,22.7147829 2.112,22.5548992 Z M6.94048837,4.61594574 L6.94048837,9.63629457 L8.53932558,9.63629457 C11.1294419,9.63629457 12.4724651,8.58106202 12.4724651,6.98222481 C12.4724651,5.35141085 11.2253721,4.48803876 9.01897674,4.48803876 C7.93176744,4.48803876 7.3242093,4.55199225 6.94048837,4.61594574 Z M6.94048837,13.1217597 L6.94048837,19.1973411 C7.42013953,19.2612946 7.99572093,19.2612946 8.82711628,19.2612946 C11.0335116,19.2612946 12.984093,18.3979225 12.984093,16.1275736 C12.984093,13.9851318 11.0335116,13.1217597 8.60327907,13.1217597 L6.94048837,13.1217597 Z M20.7664331,22.6508295 L20.7664331,1.38629457 C22.3332936,1.13048062 24.6356192,0.938620155 27.2577122,0.938620155 C30.4553866,0.938620155 32.6937587,1.41827132 34.2286424,2.6333876 C35.5396889,3.65664341 36.2431773,5.19152713 36.2431773,7.17408527 C36.2431773,9.89210853 34.2925959,11.7787364 32.4379447,12.4502481 L32.4379447,12.5461783 C33.9408517,13.1537364 34.7722471,14.5607132 35.3158517,16.5432713 C35.9873633,19.0054806 36.6268982,21.8194341 37.0425959,22.6508295 L32.0542238,22.6508295 C31.7344564,22.0112946 31.1908517,20.2845504 30.5832936,17.6304806 C29.9757354,14.9124574 29.0484099,14.208969 27.033875,14.1769922 L25.5949215,14.1769922 L25.5949215,22.6508295 L20.7664331,22.6508295 Z M25.5949215,4.74385271 L25.5949215,10.6595504 L27.5135261,10.6595504 C29.9437587,10.6595504 31.3827122,9.44443411 31.3827122,7.5578062 C31.3827122,5.60722481 30.0396889,4.58396899 27.8013168,4.58396899 C26.6181773,4.58396899 25.9466657,4.64792248 25.5949215,4.74385271 Z M39.1010988,1.09850388 L43.9615639,1.09850388 L43.9615639,22.6508295 L39.1010988,22.6508295 L39.1010988,1.09850388 Z M47.5229738,22.5548992 L47.5229738,1.41827132 C49.3136714,1.13048062 51.6479738,0.938620155 54.0782063,0.938620155 C58.2032063,0.938620155 60.8892528,1.70606202 62.9357645,3.24094574 C65.1741365,4.90373643 66.5811133,7.5578062 66.5811133,11.3630388 C66.5811133,15.4880388 65.0782063,18.333969 63.0316947,20.0926899 C60.7613459,21.9793178 57.2758807,22.8746667 53.0549505,22.8746667 C50.5287877,22.8746667 48.7061133,22.7147829 47.5229738,22.5548992 Z M52.3834389,4.87175969 L52.3834389,18.9735039 C52.7991365,19.0694341 53.5026249,19.0694341 54.0782063,19.0694341 C58.5229738,19.1014109 61.4328575,16.6711783 61.4328575,11.5229225 C61.4328575,7.04617829 58.8107645,4.67989922 54.5898342,4.67989922 C53.5346017,4.67989922 52.7991365,4.77582946 52.3834389,4.87175969 Z M87.1221743,10.3078062 L87.1221743,21.6595504 C85.6192673,22.1711783 82.7733371,22.8746667 79.9274069,22.8746667 C75.9942673,22.8746667 73.1483371,21.8833876 71.165779,19.9967597 C69.2151976,18.1101318 68.1279883,15.2961783 68.1279883,12.1304806 C68.159965,4.96768992 73.3721743,0.874666667 80.4390348,0.874666667 C83.2210115,0.874666667 85.3634534,1.41827132 86.4186859,1.89792248 L85.3954301,5.83106202 C84.2122906,5.28745736 82.7733371,4.90373643 80.407058,4.90373643 C76.3460115,4.90373643 73.2442673,7.17408527 73.2442673,11.8746667 C73.2442673,16.3514109 76.0582208,18.9415271 80.0553138,18.9415271 C81.1425232,18.9415271 82.037872,18.8136202 82.4215929,18.6537364 L82.4215929,14.1130388 L79.0960115,14.1130388 L79.0960115,10.3078062 L87.1221743,10.3078062 Z M103.090561,9.57234109 L103.090561,13.5374574 L95.1603284,13.5374574 L95.1603284,18.6537364 L104.017886,18.6537364 L104.017886,22.6508295 L90.2998632,22.6508295 L90.2998632,1.09850388 L103.570212,1.09850388 L103.570212,5.0955969 L95.1603284,5.0955969 L95.1603284,9.57234109 L103.090561,9.57234109 Z" id="BRIDGE" fill="#FFD200"></path>
                </g>
            </g>
        </g>
    </g>
</svg>