<?xml version="1.0" encoding="UTF-8"?>
<svg width="300px" height="300px" viewBox="0 0 300 300" version="1.1" xmlns="http://www.w3.org/2000/svg" xmlns:xlink="http://www.w3.org/1999/xlink">
    <!-- Generator: Sketch 57.1 (83088) - https://sketch.com -->
    <title>gc_bridge_logo</title>
    <desc>Created with Sketch.</desc>
    <defs>
        <circle id="path-1" cx="150" cy="150" r="150"></circle>
    </defs>
    <g id="Symbols" stroke="none" stroke-width="1" fill="none" fill-rule="evenodd">
        <g id="Logo/Bridge/Colour">
            <g id="gc_bridge_logo">
                <mask id="mask-2" fill="white">
                    <use xlink:href="#path-1"></use>
                </mask>
                <use id="Background" fill="#FFD200" xlink:href="#path-1"></use>
                <path d="M193.782185,106.007932 C196.080234,106.007932 197.943433,107.871001 197.943433,110.169181 L197.943433,110.169181 L197.949249,110.777246 C198.093968,119.88294 201.170003,128.293987 206.274642,135.098179 L206.274642,135.098179 C208.237061,137.715605 210.49987,140.093238 213.010923,142.182055 L213.010923,142.182055 L212.942913,142.182055 C212.956307,142.193368 212.970091,142.204421 212.983615,142.215735 C213.987516,143.048635 215.030949,143.835371 216.110793,144.572562 L216.110793,144.572562 L216.110273,144.573342 L216.120806,144.579584 C217.574252,145.571131 234.110273,155.242783 234.110273,155.242783 C242.33264,159.882835 247.885176,168.69935 247.885176,178.813524 C247.885176,193.751756 235.775423,205.861638 220.837061,205.861638 L220.837061,205.861638 L75.1302991,205.861638 C60.1919376,205.861638 48.0821847,193.751756 48.0821847,178.813524 C48.0821847,163.875293 60.1919376,151.76541 75.1302991,151.76541 L75.1302991,151.76541 L98.0849155,151.769051 L98.0908973,110.169181 C98.0908973,107.871001 99.9540962,106.007932 102.252146,106.007932 C104.550325,106.007932 106.413394,107.871001 106.413394,110.169181 L106.413394,110.169181 C106.449545,132.976593 124.871521,151.581664 147.664499,151.776983 L147.664499,151.776983 L148.361508,151.777113 C171.158257,151.586476 189.584915,132.979454 189.620156,110.169181 L189.620156,110.169181 C189.620936,107.871001 191.484135,106.007932 193.782185,106.007932 Z M193.793108,130.172172 C192.622627,132.849545 191.222887,135.403381 189.620936,137.811183 L189.620936,137.811183 L189.620936,137.672822 C185.93238,143.218466 181.16658,147.986996 175.616775,151.673602 C175.616775,151.673602 175.707542,151.745384 175.653056,151.781664 L175.653056,151.781664 L177.145904,151.781795 C188.644863,151.781795 197.952146,161.089077 197.952146,172.588036 C197.952146,184.087126 188.644863,193.394278 177.145904,193.394278 L177.145904,193.394278 L118.888427,193.394278 C116.590247,193.394278 114.727178,191.531079 114.727178,189.23303 C114.727178,186.93472 116.590247,185.071782 118.888427,185.071782 L118.888427,185.071782 L177.145904,185.071782 C184.047204,185.071782 189.629649,179.491287 189.629649,172.589597 C189.629649,165.688036 184.012874,160.104291 177.111704,160.104291 L177.111704,160.104291 L106.404681,160.095709 L106.404681,176.749285 C106.404681,179.047334 104.541482,180.910533 102.243433,180.910533 C99.9453836,180.910533 98.0821847,179.047334 98.0821847,176.749285 L98.0821847,176.749285 L98.0840052,160.094668 L75.1516255,160.091938 C64.8046814,160.091938 56.4209363,168.475683 56.4209363,178.817555 C56.4209363,189.159428 64.8046814,197.543173 75.146554,197.543173 L75.146554,197.543173 L75.146554,197.555657 L220.820676,197.555657 L220.820676,197.543173 C231.162679,197.543173 239.546294,189.159428 239.546294,178.817425 C239.546294,171.647984 235.516775,165.420416 229.59935,162.274122 L229.59935,162.274122 L211.996749,151.76684 C208.743043,149.603121 205.713524,147.029389 203.020676,144.152146 C202.909103,144.03303 202.809883,143.903251 202.720416,143.76541 C200.977633,141.863199 199.377243,139.828349 197.943433,137.672692 L197.943433,137.672692 L197.943433,137.776983 C196.350715,135.379194 194.958127,132.837061 193.793108,130.172172 Z M106.413264,137.672952 L106.413264,137.79948 C106.410533,137.795059 106.407412,137.790767 106.404681,137.786476 L106.404681,137.786476 L106.404421,151.770611 L120.375943,151.772822 C120.325878,151.739532 120.275423,151.707152 120.225618,151.673732 L120.225618,151.673732 L120.417555,151.673732 C114.86801,147.987126 110.101821,143.218596 106.413264,137.672952 L106.413264,137.672952 Z" id="GeoCat-Bridge-Clip" fill="#FFFFFF" fill-rule="nonzero" mask="url(#mask-2)"></path>
            </g>
        </g>
    </g>
</svg>