<?xml version="1.0" encoding="UTF-8"?>
<svg width="300px" height="300px" viewBox="0 0 300 300" version="1.1" xmlns="http://www.w3.org/2000/svg" xmlns:xlink="http://www.w3.org/1999/xlink">
    <!-- Generator: Sketch 56.3 (81716) - https://sketch.com -->
    <title>gc_bridge_logo</title>
    <desc>Created with Sketch.</desc>
    <defs>
        <circle id="path-1" cx="150" cy="150" r="150"></circle>
    </defs>
    <g id="Symbols" stroke="none" stroke-width="1" fill="none" fill-rule="evenodd">
        <g id="Logo/Bridge/Colour">
            <g id="gc_bridge_logo">
                <mask id="mask-2" fill="white">
                    <use xlink:href="#path-1"></use>
                </mask>
                <use id="Background" fill="#FFD200" xlink:href="#path-1"></use>
                <path d="M234.110273,155.242783 C234.110273,155.242783 217.574252,145.571131 216.120806,144.579584 L216.110273,144.573342 L216.110793,144.572562 C215.030949,143.835371 213.987516,143.048635 212.983615,142.215735 C212.970091,142.204421 212.956307,142.193368 212.942913,142.182055 L213.010923,142.182055 C210.49987,140.093238 208.237061,137.715605 206.274642,135.09974 L206.274642,135.098179 C201.056567,128.142783 197.958257,119.508322 197.943953,110.169181 L197.943433,110.169181 C197.943433,107.871001 196.080234,106.007932 193.782185,106.007932 C191.484135,106.007932 189.620936,107.871001 189.620936,110.169181 L189.620156,110.169181 C189.584915,132.979454 171.158257,151.586476 148.361508,151.777113 L147.664499,151.776983 C124.871521,151.581664 106.449545,132.976593 106.414304,110.169181 L106.413394,110.169181 C106.413394,107.871001 104.550325,106.007932 102.252146,106.007932 C99.9540962,106.007932 98.0908973,107.871001 98.0908973,110.169181 L98.0849155,151.769051 L75.1302991,151.76541 C60.1919376,151.76541 48.0821847,163.875293 48.0821847,178.813524 C48.0821847,193.751756 60.1919376,205.861638 75.1302991,205.861638 L201.358257,205.861638 L203.049935,205.861638 L220.837061,205.861638 C235.775423,205.861638 247.885176,193.751756 247.885176,178.813524 C247.885176,168.69935 242.33264,159.882835 234.110273,155.242783 Z M106.404681,137.786476 C106.407412,137.790767 106.410533,137.795059 106.413264,137.79948 L106.413264,137.672952 C110.101821,143.218596 114.86801,147.987126 120.417555,151.673732 L120.225618,151.673732 C120.275423,151.707152 120.325878,151.739532 120.375943,151.772822 L106.404421,151.770611 L106.404681,137.786476 L106.404681,137.786476 Z M220.820676,197.543173 L220.820676,197.555657 L203.049935,197.555657 L201.358127,197.555657 L75.146554,197.555657 L75.146554,197.543173 C64.8046814,197.543173 56.4209363,189.159428 56.4209363,178.817555 C56.4209363,168.475683 64.8046814,160.091938 75.146554,160.091938 C75.1482445,160.091938 75.1496749,160.091938 75.1516255,160.091938 L98.0840052,160.094668 L98.0821847,176.749285 C98.0821847,179.047334 99.9453836,180.910533 102.243433,180.910533 C104.541482,180.910533 106.404681,179.047334 106.404681,176.749285 L106.404681,160.095709 L177.111704,160.104291 C184.012874,160.104291 189.629649,165.688036 189.629649,172.589597 C189.629649,179.491287 184.047204,185.071782 177.145904,185.071782 L118.888427,185.071782 C116.590247,185.071782 114.727178,186.93472 114.727178,189.23303 C114.727178,191.531079 116.590247,193.394278 118.888427,193.394278 L176.848244,193.394278 C176.890637,193.394538 177.103381,193.394278 177.145904,193.394278 C188.644863,193.394278 197.952146,184.087126 197.952146,172.588036 C197.952146,161.089077 188.644863,151.781795 177.145904,151.781795 C176.925098,151.781795 175.653056,151.781664 175.653056,151.781664 C175.707542,151.745384 175.616775,151.673602 175.616775,151.673602 C181.16658,147.986996 185.93238,143.218466 189.620936,137.672822 L189.620936,137.811183 C191.222887,135.403381 192.622627,132.849545 193.793108,130.172172 C194.958127,132.837061 196.350715,135.379194 197.943433,137.776983 L197.943433,137.672692 C199.377243,139.828349 200.977633,141.863199 202.720416,143.76541 C202.809883,143.903251 202.909103,144.03303 203.020676,144.152146 C205.713524,147.029389 208.743043,149.603121 211.996749,151.76684 L229.59935,162.274122 C235.516775,165.420416 239.546294,171.647984 239.546294,178.817425 C239.546294,189.159428 231.162679,197.543173 220.820676,197.543173 Z" id="GeoCat-Bridge-Clip" fill="#FFFFFF" fill-rule="nonzero" mask="url(#mask-2)"></path>
            </g>
        </g>
    </g>
</svg>