<?xml version="1.0" encoding="UTF-8"?>
<svg width="999px" height="264px" viewBox="0 0 999 264" version="1.1" xmlns="http://www.w3.org/2000/svg" xmlns:xlink="http://www.w3.org/1999/xlink">
    <!-- Generator: Sketch 51.3 (57544) - http://www.bohemiancoding.com/sketch -->
    <title>gc_geocat_logo_text</title>
    <desc>Created with Sketch.</desc>
    <defs></defs>
    <g id="Page-1" stroke="none" stroke-width="1" fill="none" fill-rule="evenodd">
        <g id="gc_geocat_logo_text" fill-rule="nonzero">
            <g id="Group" transform="translate(11.523688, 0.000000)">
                <polygon id="Shape" fill="#0C97CE" points="903.510883 58.2496799 862.393086 58.2496799 862.393086 29.3290653 979.409731 29.3290653 979.409731 58.2496799 937.841229 58.2496799 937.841229 181.591549 903.510883 181.591549"></polygon>
                <path d="M842.946223,29.3239437 L797.989757,29.3239437 L761.083227,150.102433 L760.539052,150.413572 C753.542894,153.354673 742.245839,155.390525 731.62612,155.390525 C701.12548,155.390525 683.057618,136.185659 683.057618,105.691421 C683.057618,71.5761844 704.293214,55.0870679 731.399488,55.0870679 C743.828425,55.0870679 753.542894,57.7951344 760.316261,60.7387964 L767.545455,33.6286812 C761.448143,30.4647887 747.895006,26.8527529 730.049936,26.8527529 C683.964149,26.8527529 646.912932,55.5364917 646.912932,107.492958 C646.912932,151.098592 674.019206,184.078105 726.660691,184.078105 C736.519846,184.078105 745.252241,183.024328 752.179257,181.59411 L787.151088,181.59411 L797.766965,142.521127 L841.590269,142.521127 L853.336748,181.59411 L890.391805,181.59411 L842.946223,29.3239437 Z M802.736236,116.756722 L812.00128,84.4455826 C814.253521,75.6414853 816.741357,64.1203585 818.774648,55.0857875 L819.455826,55.0857875 C821.715749,63.8950064 824.418694,75.4174136 826.910371,84.4455826 L836.391805,116.756722 L802.736236,116.756722 Z" id="Shape" fill="#0C97CE"></path>
                <polygon id="Shape" fill="#0C97CE" points="477.145967 103.152369 457.006402 114.777209 436.871959 126.40589 436.871959 103.152369 436.871959 79.8898848 457.006402 91.5172855"></polygon>
                <polygon id="Shape" fill="#261C44" points="428.569782 117.208707 428.569782 153.354673 491.143406 153.354673 491.143406 181.591549 394.234315 181.591549 394.234315 29.3290653 487.982074 29.3290653 487.982074 57.5685019 428.569782 57.5685019 428.569782 89.1971831"></polygon>
                <path d="M563.024328,184.076825 C518.072983,184.076825 491.411012,149.964149 491.411012,106.59283 C491.411012,60.9590269 520.78105,26.8501921 565.517286,26.8501921 C612.271447,26.8501921 637.798976,61.8617157 637.798976,103.887324 C637.798976,154.029449 607.756722,184.075544 563.253521,184.075544 L563.024328,184.075544 L563.024328,184.076825 Z M564.615877,156.736236 C587.878361,156.736236 601.202305,134.827145 601.202305,105.011524 C601.202305,77.6709347 588.322663,54.1869398 564.615877,54.1869398 C540.887324,54.1869398 527.556978,77.2202305 527.556978,105.690141 C527.556978,134.379001 541.348271,156.736236 564.385403,156.736236 L564.615877,156.736236 Z" id="Shape" fill="#261C44"></path>
                <path d="M372.836108,100.741357 L326.933419,100.741357 L351.390525,121.274008 L351.390525,153.354673 C348.678617,154.478873 338.428937,155.390525 330.751601,155.390525 C302.508323,155.390525 282.632522,137.085787 282.632522,105.462228 C282.632522,72.4801536 304.545455,56.2138284 333.233035,56.2138284 C349.957746,56.2138284 360.121639,58.9270166 368.477593,62.765685 L375.708067,34.9859155 C368.244558,31.5941101 353.119078,27.7516005 333.464789,27.7516005 C283.540333,27.7516005 246.715749,56.6683739 246.486556,107.268886 C246.486556,129.635083 254.172855,149.513444 267.955186,162.84379 C281.955186,176.170294 302.060179,183.177977 329.846351,183.177977 C349.959027,183.177977 370.06402,178.202305 380.676056,174.591549 L380.676056,121.275288 L380.676056,100.742638 L372.836108,100.742638 L372.836108,100.741357 Z" id="Shape" fill="#261C44"></path>
                <path d="M138.791293,61.8553137 L152.636364,52.4391805 C139.900128,40.2586428 122.724712,32.7746479 103.889885,32.7746479 C65.1190781,32.7746479 33.546735,64.3444302 33.5390525,103.117798 C33.5480154,141.892446 65.1152369,174.026889 103.895006,174.026889 C127.206146,174.026889 147.959027,162.386684 160.854033,144.668374 L138.786172,144.668374 C129.37388,152.699104 117.184379,157.408451 103.895006,157.408451 C73.978233,157.408451 49.8822023,133.31242 49.8834827,103.116517 C49.8847631,73.2099872 73.9846351,49.1152369 103.891165,49.1152369 C117.18694,49.1139565 129.653009,53.822023 138.791293,61.8553137" id="Shape" fill="#0C97CE"></path>
                <path d="M207.192061,103.152369 L190.829706,103.152369 L153.449424,103.152369 L186.367478,130.727273 C174.856594,165.215109 142.293214,190.090909 103.892446,190.090909 C55.8758003,190.090909 16.9513444,151.215109 16.9513444,103.261204 C16.9513444,55.3072983 55.8758003,16.4327785 103.892446,16.4327785 C128.421255,16.4327785 150.5621,26.5953905 166.370038,42.9129321 L179.965429,33.4801536 C161.084507,12.9628681 133.996159,0.0921895006 103.892446,0.0921895006 C46.8399488,0.0921895006 0.588988476,46.2816901 0.588988476,103.262484 C0.588988476,160.244558 46.8399488,206.434059 103.892446,206.434059 C160.944942,206.434059 207.195903,160.244558 207.195903,103.262484 C207.195903,103.224072 207.192061,103.18694 207.192061,103.152369 Z" id="Shape" fill="#261C44"></path>
            </g>
            <g id="Group" transform="translate(0.000000, 230.473752)" fill="#261C44">
                <path d="M31.212548,31.0396927 C28.759283,31.7695262 24.1152369,32.7733675 19.4711908,32.7733675 C13.0524968,32.7733675 8.4084507,31.3597951 5.17285531,28.6209987 C1.93725992,25.9743918 0.162612036,21.9577465 0.215108835,17.4391805 C0.267605634,7.21638924 8.77336748,1.37387964 20.3060179,1.37387964 C24.8463508,1.37387964 28.3418694,2.14980794 30.0653009,2.8809219 L28.3956466,8.44942382 C26.4647887,7.71959027 24.0640205,7.12676056 20.2023047,7.12676056 C13.574904,7.12676056 8.56466069,10.4122919 8.56466069,17.0755442 C8.56466069,23.4199744 13.1049936,27.162612 19.6286812,27.162612 C21.4545455,27.162612 22.915493,26.9795134 23.5428937,26.7067862 L23.5428937,20.2727273 L18.1152369,20.2727273 L18.1152369,14.8412292 L31.2138284,14.8412292 L31.2138284,31.0396927 L31.212548,31.0396927 Z" id="Shape"></path>
                <path d="M67.0102433,16.7541613 C67.0102433,26.8412292 60.0179257,32.9551857 49.737516,32.9551857 C39.3008963,32.9551857 33.1946223,26.0640205 33.1946223,17.3008963 C33.1946223,8.08194622 39.9270166,1.18950064 50.3111396,1.18950064 C61.1139565,1.19078105 67.0102433,8.26504481 67.0102433,16.7541613 Z M41.5966709,17.1651729 C41.5966709,23.1895006 44.8322663,27.4340589 50.1549296,27.4340589 C55.5300896,27.4340589 58.609475,22.9615877 58.609475,16.9833547 C58.609475,11.4609475 55.5825864,6.71318822 50.1024328,6.71318822 C44.7285531,6.71318822 41.5966709,11.1856594 41.5966709,17.1651729 Z" id="Shape"></path>
                <path d="M77.5505762,32.4545455 L66.2791293,1.69398207 L74.993598,1.69398207 L79.2727273,14.7003841 C80.4737516,18.3521127 81.5685019,21.8668374 82.4033291,25.7003841 L82.5595391,25.7003841 C83.446863,22.0025608 84.5428937,18.3521127 85.7426376,14.8386684 L90.2304738,1.69398207 L98.6850192,1.69398207 L86.8399488,32.4545455 L77.5505762,32.4545455 Z" id="Shape"></path>
                <polygon id="Shape" points="120.759283 19.446863 107.818182 19.446863 107.818182 26.7490397 122.274008 26.7490397 122.274008 32.4545455 99.8335467 32.4545455 99.8335467 1.69398207 121.542894 1.69398207 121.542894 7.39820743 107.818182 7.39820743 107.818182 13.787452 120.759283 13.787452"></polygon>
                <path d="M125.089629,2.10371319 C127.646607,1.73879641 131.455826,1.46606914 135.682458,1.46606914 C140.901408,1.46606914 144.554417,2.14980794 147.058899,3.88476312 C149.145967,5.34571063 150.294494,7.49039693 150.294494,10.318822 C150.294494,14.2445583 147.111396,16.9372599 144.084507,17.8962868 L144.084507,18.0320102 C146.537772,18.8988476 147.893726,20.9526248 148.78105,23.7823303 C149.877081,27.2509603 150.971831,31.2676056 151.651729,32.453265 L143.510883,32.453265 C142.93726,31.5864277 142.102433,29.0755442 141.057618,25.2868118 C140.119078,21.453265 138.604353,20.4046095 135.370038,20.3572343 L132.96927,20.3572343 L132.96927,32.4519846 L125.089629,32.4519846 L125.089629,2.10371319 Z M132.970551,15.3393086 L136.101152,15.3393086 C140.066581,15.3393086 142.416133,13.6043534 142.416133,10.9116517 C142.416133,8.08194622 140.224072,6.66709347 136.571063,6.62099872 C134.640205,6.62099872 133.544174,6.75800256 132.970551,6.84891165 L132.970551,15.3393086 Z" id="Shape"></path>
                <path d="M153.425096,32.4545455 L153.425096,1.69398207 L162.713188,1.69398207 L170.019206,12.9679898 C172.106274,16.2074264 174.193342,20.0409731 175.759283,23.5096031 L175.915493,23.5096031 C175.393086,19.446863 175.236876,15.2944942 175.236876,10.6837388 L175.236876,1.69398207 L182.542894,1.69398207 L182.542894,32.4545455 L174.193342,32.4545455 L166.678617,20.5877081 C164.591549,17.3021767 162.295775,13.3316261 160.572343,9.72599232 L160.416133,9.77080666 C160.62484,13.8335467 160.729834,18.1690141 160.729834,23.1895006 L160.729834,32.453265 L153.425096,32.453265 L153.425096,32.4545455 Z" id="Shape"></path>
                <path d="M216.567222,20.6786172 C216.411012,16.9820743 216.253521,12.5083227 216.253521,8.03713188 L216.097311,8.03713188 C215.00128,11.9603073 213.540333,16.3418694 212.183099,19.9487836 L207.903969,31.9526248 L201.693982,31.9526248 L197.93598,20.0396927 C196.787452,16.4353393 195.587708,12.0537772 194.752881,8.03713188 L194.647887,8.03713188 C194.439181,12.1895006 194.282971,16.9359795 194.021767,20.7695262 L193.395647,32.453265 L186.037132,32.453265 L188.28041,1.69270166 L198.873239,1.69270166 L202.317542,11.9615877 C203.413572,15.5224072 204.509603,19.3559539 205.291933,22.9615877 L205.448143,22.9615877 C206.439181,19.4020487 207.640205,15.340589 208.787452,11.9167734 L212.545455,1.69398207 L222.929577,1.69398207 L224.860435,32.4545455 L217.084507,32.4545455 L216.567222,20.6786172 Z" id="Shape"></path>
                <polygon id="Shape" points="249.285531 19.446863 236.34443 19.446863 236.34443 26.7490397 250.798976 26.7490397 250.798976 32.4545455 228.359795 32.4545455 228.359795 1.69398207 250.069142 1.69398207 250.069142 7.39820743 236.34443 7.39820743 236.34443 13.787452 249.285531 13.787452 249.285531 19.446863"></polygon>
                <path d="M253.617157,32.4545455 L253.617157,1.69398207 L262.90525,1.69398207 L270.211268,12.9679898 C272.298335,16.2074264 274.386684,20.0409731 275.951344,23.5096031 L276.107554,23.5096031 C275.585147,19.446863 275.428937,15.2944942 275.428937,10.6837388 L275.428937,1.69398207 L282.734955,1.69398207 L282.734955,32.4545455 L274.385403,32.4545455 L266.870679,20.5877081 C264.783611,17.3021767 262.487836,13.3316261 260.764405,9.72599232 L260.608195,9.77080666 C260.816901,13.8335467 260.921895,18.1690141 260.921895,23.1895006 L260.921895,32.453265 L253.617157,32.453265 L253.617157,32.4545455 Z" id="Shape"></path>
                <polygon id="Shape" points="293.797695 7.53521127 284.352113 7.53521127 284.352113 1.69398207 311.384123 1.69398207 311.384123 7.53521127 301.78233 7.53521127 301.78233 32.4545455 293.797695 32.4545455"></polygon>
                <path d="M350.31242,31.0396927 C347.859155,31.7695262 343.215109,32.7733675 338.571063,32.7733675 C332.152369,32.7733675 327.508323,31.3597951 324.272727,28.6209987 C321.037132,25.9743918 319.262484,21.9577465 319.314981,17.4391805 C319.367478,7.21638924 327.873239,1.37387964 339.40589,1.37387964 C343.946223,1.37387964 347.441741,2.14980794 349.165173,2.8809219 L347.495519,8.44942382 C345.564661,7.71959027 343.163892,7.12676056 339.302177,7.12676056 C332.674776,7.12676056 327.664533,10.4122919 327.664533,17.0755442 C327.664533,23.4199744 332.204866,27.162612 338.728553,27.162612 C340.554417,27.162612 342.015365,26.9795134 342.642766,26.7067862 L342.642766,20.2727273 L337.215109,20.2727273 L337.215109,14.8412292 L350.3137,14.8412292 L350.3137,31.0396927 L350.31242,31.0396927 Z" id="Shape"></path>
                <polygon id="Shape" points="374.838668 19.446863 361.897567 19.446863 361.897567 26.7490397 376.353393 26.7490397 376.353393 32.4545455 353.914213 32.4545455 353.914213 1.69398207 375.62356 1.69398207 375.62356 7.39820743 361.898848 7.39820743 361.898848 13.787452 374.839949 13.787452 374.839949 19.446863"></polygon>
                <path d="M411.366197,16.7541613 C411.366197,26.8412292 404.37388,32.9551857 394.09347,32.9551857 C383.65685,32.9551857 377.550576,26.0640205 377.550576,17.3008963 C377.550576,8.08194622 384.282971,1.18950064 394.667093,1.18950064 C405.46863,1.19078105 411.366197,8.26504481 411.366197,16.7541613 Z M385.952625,17.1651729 C385.952625,23.1895006 389.18822,27.4340589 394.510883,27.4340589 C399.886044,27.4340589 402.965429,22.9615877 402.965429,16.9833547 C402.965429,11.4609475 399.93854,6.71318822 394.458387,6.71318822 C389.083227,6.71318822 385.952625,11.1856594 385.952625,17.1651729 Z" id="Shape"></path>
                <path d="M443.354673,31.0396927 C440.901408,31.7695262 436.257362,32.7733675 431.613316,32.7733675 C425.194622,32.7733675 420.550576,31.3597951 417.314981,28.6209987 C414.079385,25.9743918 412.304738,21.9577465 412.357234,17.4391805 C412.409731,7.21638924 420.915493,1.37387964 432.448143,1.37387964 C436.988476,1.37387964 440.483995,2.14980794 442.207426,2.8809219 L440.537772,8.44942382 C438.606914,7.71959027 436.206146,7.12676056 432.34443,7.12676056 C425.717029,7.12676056 420.706786,10.4122919 420.706786,17.0755442 C420.706786,23.4199744 425.247119,27.162612 431.770807,27.162612 C433.596671,27.162612 435.057618,26.9795134 435.685019,26.7067862 L435.685019,20.2727273 L430.257362,20.2727273 L430.257362,14.8412292 L443.355954,14.8412292 L443.355954,31.0396927 L443.354673,31.0396927 Z" id="Shape"></path>
                <path d="M446.953905,2.10371319 C449.510883,1.73879641 453.320102,1.46606914 457.546735,1.46606914 C462.765685,1.46606914 466.418694,2.14980794 468.923175,3.88476312 C471.010243,5.34571063 472.158771,7.49039693 472.158771,10.318822 C472.158771,14.2445583 468.975672,16.9372599 465.948784,17.8962868 L465.948784,18.0320102 C468.402049,18.8988476 469.758003,20.9526248 470.645327,23.7823303 C471.741357,27.2509603 472.836108,31.2676056 473.516005,32.453265 L465.37516,32.453265 C464.801536,31.5864277 463.966709,29.0755442 462.921895,25.2868118 C461.983355,21.453265 460.46863,20.4046095 457.234315,20.3572343 L454.833547,20.3572343 L454.833547,32.4519846 L446.953905,32.4519846 L446.953905,2.10371319 Z M454.834827,15.3393086 L457.965429,15.3393086 C461.930858,15.3393086 464.28041,13.6043534 464.28041,10.9116517 C464.28041,8.08194622 462.088348,6.66709347 458.435339,6.62099872 C456.504481,6.62099872 455.408451,6.75800256 454.834827,6.84891165 L454.834827,15.3393086 Z" id="Shape"></path>
                <path d="M483.951344,24.5582586 L481.445583,32.4545455 L473.201024,32.4545455 L483.951344,1.69398207 L494.387964,1.69398207 L505.295775,32.4545455 L496.736236,32.4545455 L494.023047,24.5582586 L483.951344,24.5582586 Z M492.8758,19.3559539 L490.683739,12.8284251 C490.057618,11.0025608 489.431498,8.72087068 488.909091,6.8950064 L488.804097,6.8950064 C488.28169,8.72087068 487.760563,11.0473752 487.18694,12.8284251 L485.099872,19.3559539 L492.8758,19.3559539 Z" id="Shape"></path>
                <path d="M507.381562,2.10371319 C509.834827,1.73879641 513.277849,1.46606914 518.131882,1.46606914 C523.037132,1.46606914 526.533931,2.28681178 528.882202,3.92957746 C531.126761,5.48271447 532.640205,8.03841229 532.640205,11.049936 C532.640205,14.0640205 531.492958,16.6197183 529.404609,18.3521127 C526.691421,20.5889885 522.673496,21.5928297 517.976953,21.5928297 C516.933419,21.5928297 515.993598,21.5480154 515.262484,21.4558259 L515.262484,32.4558259 L507.382843,32.4558259 L507.382843,2.10371319 L507.381562,2.10371319 Z M515.261204,16.0704225 C515.939821,16.206146 516.775928,16.2535211 517.923175,16.2535211 C522.149808,16.2535211 524.759283,14.3815621 524.759283,11.2317542 C524.759283,8.40332907 522.514725,6.71446863 518.549296,6.71446863 C516.930858,6.71446863 515.834827,6.85019206 515.261204,6.98847631 L515.261204,16.0704225 Z" id="Shape"></path>
                <polygon id="Shape" points="543.075544 1.69270166 543.075544 13.5134443 556.172855 13.5134443 556.172855 1.69270166 564.104994 1.69270166 564.104994 32.453265 556.172855 32.453265 556.172855 19.5825864 543.075544 19.5825864 543.075544 32.453265 535.090909 32.453265 535.090909 1.69270166"></polygon>
                <polygon id="Shape" points="576.419974 1.69270166 576.419974 32.453265 568.435339 32.453265 568.435339 1.69270166"></polygon>
                <path d="M606.528809,31.5877081 C605.066581,32.2253521 601.77977,32.9103713 597.50064,32.9103713 C585.341869,32.9103713 579.079385,26.2932138 579.079385,17.5300896 C579.079385,7.03201024 587.637644,1.18950064 598.282971,1.18950064 C602.40589,1.18950064 605.536492,1.91933419 606.946223,2.55953905 L605.327785,8.08066581 C603.709347,7.48783611 601.466069,6.93982074 598.647887,6.93982074 C592.332907,6.93982074 587.427657,10.2714469 587.427657,17.1165173 C587.427657,23.2778489 591.603073,27.1574904 598.700384,27.1574904 C601.101152,27.1574904 603.761844,26.7016645 605.327785,26.1536492 L606.528809,31.5877081 Z" id="Shape"></path>
                <path d="M617.069142,2.10371319 C619.992318,1.69398207 623.801536,1.46606914 627.819462,1.46606914 C634.49936,1.46606914 638.830986,2.51472471 642.221511,4.75160051 C645.8758,7.12548015 648.170294,10.9129321 648.170294,16.3431498 C648.170294,22.2317542 645.71831,26.2932138 642.326504,28.8028169 C638.620999,31.4955186 632.984635,32.7733675 626.097311,32.7733675 C621.973111,32.7733675 619.051216,32.5454545 617.067862,32.318822 L617.067862,2.10371319 L617.069142,2.10371319 Z M625.053777,27.206146 C625.731114,27.3418694 626.828425,27.3418694 627.819462,27.3418694 C635.020487,27.3879641 639.717029,23.9193342 639.717029,16.5710627 C639.769526,10.1818182 635.490397,6.80409731 628.653009,6.80409731 C626.879641,6.80409731 625.731114,6.94110115 625.052497,7.07810499 L625.052497,27.206146 L625.053777,27.206146 Z" id="Shape"></path>
                <path d="M658.139565,24.5582586 L655.635083,32.4545455 L647.389245,32.4545455 L658.139565,1.69398207 L668.576184,1.69398207 L679.482714,32.4545455 L670.924456,32.4545455 L668.211268,24.5582586 L658.139565,24.5582586 Z M667.06274,19.3559539 L664.870679,12.8284251 C664.245839,11.0025608 663.618438,8.72087068 663.097311,6.8950064 L662.992318,6.8950064 C662.471191,8.72087068 661.948784,11.0473752 661.37388,12.8284251 L659.286812,19.3559539 L667.06274,19.3559539 Z" id="Shape"></path>
                <polygon id="Shape" points="684.021767 7.53521127 674.576184 7.53521127 674.576184 1.69398207 701.606914 1.69398207 701.606914 7.53521127 692.005122 7.53521127 692.005122 32.4545455 684.021767 32.4545455"></polygon>
                <path d="M707.660691,24.5582586 L705.15621,32.4545455 L696.910371,32.4545455 L707.660691,1.69398207 L718.097311,1.69398207 L729.003841,32.4545455 L720.445583,32.4545455 L717.732394,24.5582586 L707.660691,24.5582586 Z M716.582586,19.3559539 L714.390525,12.8284251 C713.765685,11.0025608 713.138284,8.72087068 712.617157,6.8950064 L712.512164,6.8950064 C711.991037,8.72087068 711.46863,11.0473752 710.893726,12.8284251 L708.806658,19.3559539 L716.582586,19.3559539 Z" id="Shape"></path>
                <path d="M739.021767,2.10371319 C741.475032,1.73879641 744.918054,1.46606914 749.772087,1.46606914 C754.677337,1.46606914 758.174136,2.28681178 760.522407,3.92957746 C762.766965,5.48271447 764.28041,8.03841229 764.28041,11.049936 C764.28041,14.0640205 763.133163,16.6197183 761.044814,18.3521127 C758.331626,20.5889885 754.3137,21.5928297 749.617157,21.5928297 C748.573624,21.5928297 747.633803,21.5480154 746.902689,21.4558259 L746.902689,32.4558259 L739.023047,32.4558259 L739.023047,2.10371319 L739.021767,2.10371319 Z M746.901408,16.0704225 C747.580026,16.206146 748.416133,16.2535211 749.56338,16.2535211 C753.790013,16.2535211 756.399488,14.3815621 756.399488,11.2317542 C756.399488,8.40332907 754.15493,6.71446863 750.189501,6.71446863 C748.571063,6.71446863 747.475032,6.85019206 746.901408,6.98847631 L746.901408,16.0704225 Z" id="Shape"></path>
                <path d="M774.663252,1.69270166 L774.663252,19.4007682 C774.663252,24.6952625 776.959027,27.3879641 781.03073,27.3879641 C785.204866,27.3879641 787.501921,24.8322663 787.501921,19.4007682 L787.501921,1.69270166 L795.432778,1.69270166 L795.432778,18.9449424 C795.432778,28.4379001 789.953905,32.9551857 780.769526,32.9551857 C771.897567,32.9551857 766.679898,28.6658131 766.679898,18.8527529 L766.679898,1.69270166 L774.663252,1.69270166 Z" id="Shape"></path>
                <path d="M799.709347,2.10371319 C801.797695,1.73879641 806.024328,1.46606914 809.989757,1.46606914 C814.84251,1.46606914 817.816901,1.87580026 820.37388,3.19974392 C822.827145,4.3418694 824.601793,6.44046095 824.601793,9.2240717 C824.601793,11.9628681 822.774648,14.5185659 818.809219,15.7964149 L818.809219,15.8886044 C822.828425,16.8463508 825.802817,19.4929577 825.802817,23.4635083 C825.802817,26.2483995 824.340589,28.4391805 822.148528,29.9910371 C819.591549,31.7720871 815.31242,32.7746479 808.320102,32.7746479 C804.40589,32.7746479 801.482714,32.546735 799.708067,32.3201024 L799.708067,2.10371319 L799.709347,2.10371319 Z M807.590269,13.8796415 L810.199744,13.8796415 C814.37516,13.8796415 816.618438,12.3725992 816.618438,10.0909091 C816.618438,7.7631242 814.583867,6.53137004 810.983355,6.53137004 C809.261204,6.53137004 808.270166,6.62227913 807.591549,6.71446863 L807.591549,13.8796415 L807.590269,13.8796415 Z M807.590269,27.524968 C808.372599,27.6158771 809.3137,27.6158771 810.669654,27.6158771 C814.270166,27.6158771 817.453265,26.4289373 817.453265,23.1895006 C817.453265,20.0857875 814.270166,18.8527529 810.304738,18.8527529 L807.590269,18.8527529 L807.590269,27.524968 Z" id="Shape"></path>
                <polygon id="Shape" points="828.618438 1.69270166 836.603073 1.69270166 836.603073 26.6120359 850.588988 26.6120359 850.588988 32.453265 828.618438 32.453265"></polygon>
                <polygon id="Shape" points="860.660691 1.69270166 860.660691 32.453265 852.676056 32.453265 852.676056 1.69270166"></polygon>
                <path d="M865.199744,25.2880922 C867.339309,26.2471191 870.627401,27.206146 874.019206,27.206146 C877.673496,27.206146 879.603073,25.8822023 879.603073,23.8732394 C879.603073,21.9564661 877.932138,20.8604353 873.706786,19.5377721 C867.862996,17.7567222 864.052497,14.9270166 864.052497,10.4545455 C864.052497,5.20486556 869.06146,1.18950064 877.359795,1.18950064 C881.326504,1.18950064 884.248399,1.91933419 886.336748,2.74263764 L884.5621,8.35595391 C883.152369,7.76184379 880.647887,6.8950064 877.203585,6.8950064 C873.760563,6.8950064 872.089629,8.2637644 872.089629,9.86171575 C872.089629,11.8233035 874.072983,12.6901408 878.613316,14.1971831 C884.823303,16.2048656 887.745198,19.0345711 887.745198,23.3713188 C887.745198,28.5275288 883.204866,32.9090909 873.551857,32.9090909 C869.53265,32.9090909 865.567222,31.9961588 863.583867,31.0384123 L865.199744,25.2880922 Z" id="Shape"></path>
                <polygon id="Shape" points="898.492958 1.69270166 898.492958 13.5134443 911.590269 13.5134443 911.590269 1.69270166 919.522407 1.69270166 919.522407 32.453265 911.590269 32.453265 911.590269 19.5825864 898.492958 19.5825864 898.492958 32.453265 890.508323 32.453265 890.508323 1.69270166"></polygon>
                <polygon id="Shape" points="931.838668 1.69270166 931.838668 32.453265 923.854033 32.453265 923.854033 1.69270166"></polygon>
                <path d="M936.115237,32.4545455 L936.115237,1.69398207 L945.404609,1.69398207 L952.710627,12.9679898 C954.797695,16.2074264 956.886044,20.0409731 958.450704,23.5096031 L958.606914,23.5096031 C958.085787,19.446863 957.928297,15.2944942 957.928297,10.6837388 L957.928297,1.69398207 L965.234315,1.69398207 L965.234315,32.4545455 L956.884763,32.4545455 L949.370038,20.5877081 C947.282971,17.3021767 944.985915,13.3316261 943.263764,9.72599232 L943.107554,9.77080666 C943.316261,13.8335467 943.419974,18.1690141 943.419974,23.1895006 L943.419974,32.453265 L936.115237,32.453265 L936.115237,32.4545455 Z" id="Shape"></path>
                <path d="M998.893726,31.0396927 C996.440461,31.7695262 991.796415,32.7733675 987.152369,32.7733675 C980.732394,32.7733675 976.088348,31.3597951 972.852753,28.6209987 C969.618438,25.9743918 967.84379,21.9577465 967.896287,17.4391805 C967.947503,7.21638924 976.454545,1.37387964 987.985915,1.37387964 C992.526248,1.37387964 996.023047,2.14980794 997.745198,2.8809219 L996.074264,8.44942382 C994.143406,7.71959027 991.742638,7.12676056 987.882202,7.12676056 C981.254802,7.12676056 976.244558,10.4122919 976.244558,17.0755442 C976.244558,23.4199744 980.784891,27.162612 987.308579,27.162612 C989.135723,27.162612 990.595391,26.9795134 991.222791,26.7067862 L991.222791,20.2727273 L985.796415,20.2727273 L985.796415,14.8412292 L998.893726,14.8412292 L998.893726,31.0396927 Z" id="Shape"></path>
            </g>
        </g>
    </g>
</svg>