<?xml version="1.0" encoding="UTF-8"?>
<svg width="999px" height="230px" viewBox="0 0 999 230" version="1.1" xmlns="http://www.w3.org/2000/svg" xmlns:xlink="http://www.w3.org/1999/xlink">
    <!-- Generator: Sketch 51.3 (57544) - http://www.bohemiancoding.com/sketch -->
    <title>gc_geocat_logo_text</title>
    <desc>Created with Sketch.</desc>
    <defs></defs>
    <g id="Page-1" stroke="none" stroke-width="1" fill="none" fill-rule="evenodd">
        <g id="gc_geocat_logo_text" fill-rule="nonzero">
            <g id="Group" transform="translate(11.523688, 0.000000)">
                <polygon id="Shape" fill="#0C97CE" points="903.510883 58.2496799 862.393086 58.2496799 862.393086 29.3290653 979.409731 29.3290653 979.409731 58.2496799 937.841229 58.2496799 937.841229 181.591549 903.510883 181.591549"></polygon>
                <path d="M842.946223,29.3239437 L797.989757,29.3239437 L761.083227,150.102433 L760.539052,150.413572 C753.542894,153.354673 742.245839,155.390525 731.62612,155.390525 C701.12548,155.390525 683.057618,136.185659 683.057618,105.691421 C683.057618,71.5761844 704.293214,55.0870679 731.399488,55.0870679 C743.828425,55.0870679 753.542894,57.7951344 760.316261,60.7387964 L767.545455,33.6286812 C761.448143,30.4647887 747.895006,26.8527529 730.049936,26.8527529 C683.964149,26.8527529 646.912932,55.5364917 646.912932,107.492958 C646.912932,151.098592 674.019206,184.078105 726.660691,184.078105 C736.519846,184.078105 745.252241,183.024328 752.179257,181.59411 L787.151088,181.59411 L797.766965,142.521127 L841.590269,142.521127 L853.336748,181.59411 L890.391805,181.59411 L842.946223,29.3239437 Z M802.736236,116.756722 L812.00128,84.4455826 C814.253521,75.6414853 816.741357,64.1203585 818.774648,55.0857875 L819.455826,55.0857875 C821.715749,63.8950064 824.418694,75.4174136 826.910371,84.4455826 L836.391805,116.756722 L802.736236,116.756722 Z" id="Shape" fill="#0C97CE"></path>
                <polygon id="Shape" fill="#0C97CE" points="477.145967 103.152369 457.006402 114.777209 436.871959 126.40589 436.871959 103.152369 436.871959 79.8898848 457.006402 91.5172855"></polygon>
                <polygon id="Shape" fill="#261C44" points="428.569782 117.208707 428.569782 153.354673 491.143406 153.354673 491.143406 181.591549 394.234315 181.591549 394.234315 29.3290653 487.982074 29.3290653 487.982074 57.5685019 428.569782 57.5685019 428.569782 89.1971831"></polygon>
                <path d="M563.024328,184.076825 C518.072983,184.076825 491.411012,149.964149 491.411012,106.59283 C491.411012,60.9590269 520.78105,26.8501921 565.517286,26.8501921 C612.271447,26.8501921 637.798976,61.8617157 637.798976,103.887324 C637.798976,154.029449 607.756722,184.075544 563.253521,184.075544 L563.024328,184.075544 L563.024328,184.076825 Z M564.615877,156.736236 C587.878361,156.736236 601.202305,134.827145 601.202305,105.011524 C601.202305,77.6709347 588.322663,54.1869398 564.615877,54.1869398 C540.887324,54.1869398 527.556978,77.2202305 527.556978,105.690141 C527.556978,134.379001 541.348271,156.736236 564.385403,156.736236 L564.615877,156.736236 Z" id="Shape" fill="#261C44"></path>
                <path d="M372.836108,100.741357 L326.933419,100.741357 L351.390525,121.274008 L351.390525,153.354673 C348.678617,154.478873 338.428937,155.390525 330.751601,155.390525 C302.508323,155.390525 282.632522,137.085787 282.632522,105.462228 C282.632522,72.4801536 304.545455,56.2138284 333.233035,56.2138284 C349.957746,56.2138284 360.121639,58.9270166 368.477593,62.765685 L375.708067,34.9859155 C368.244558,31.5941101 353.119078,27.7516005 333.464789,27.7516005 C283.540333,27.7516005 246.715749,56.6683739 246.486556,107.268886 C246.486556,129.635083 254.172855,149.513444 267.955186,162.84379 C281.955186,176.170294 302.060179,183.177977 329.846351,183.177977 C349.959027,183.177977 370.06402,178.202305 380.676056,174.591549 L380.676056,121.275288 L380.676056,100.742638 L372.836108,100.742638 L372.836108,100.741357 Z" id="Shape" fill="#261C44"></path>
                <path d="M138.791293,61.8553137 L152.636364,52.4391805 C139.900128,40.2586428 122.724712,32.7746479 103.889885,32.7746479 C65.1190781,32.7746479 33.546735,64.3444302 33.5390525,103.117798 C33.5480154,141.892446 65.1152369,174.026889 103.895006,174.026889 C127.206146,174.026889 147.959027,162.386684 160.854033,144.668374 L138.786172,144.668374 C129.37388,152.699104 117.184379,157.408451 103.895006,157.408451 C73.978233,157.408451 49.8822023,133.31242 49.8834827,103.116517 C49.8847631,73.2099872 73.9846351,49.1152369 103.891165,49.1152369 C117.18694,49.1139565 129.653009,53.822023 138.791293,61.8553137" id="Shape" fill="#0C97CE"></path>
                <path d="M207.192061,103.152369 L190.829706,103.152369 L153.449424,103.152369 L186.367478,130.727273 C174.856594,165.215109 142.293214,190.090909 103.892446,190.090909 C55.8758003,190.090909 16.9513444,151.215109 16.9513444,103.261204 C16.9513444,55.3072983 55.8758003,16.4327785 103.892446,16.4327785 C128.421255,16.4327785 150.5621,26.5953905 166.370038,42.9129321 L179.965429,33.4801536 C161.084507,12.9628681 133.996159,0.0921895006 103.892446,0.0921895006 C46.8399488,0.0921895006 0.588988476,46.2816901 0.588988476,103.262484 C0.588988476,160.244558 46.8399488,206.434059 103.892446,206.434059 C160.944942,206.434059 207.195903,160.244558 207.195903,103.262484 C207.195903,103.224072 207.192061,103.18694 207.192061,103.152369 Z" id="Shape" fill="#261C44"></path>
            </g>
        </g>
    </g>
</svg>