<svg height="64" viewBox="0 0 52.363636 64" width="52.363636" xmlns="http://www.w3.org/2000/svg"><path d="m14.545455 29.0909h23.272727v-8.7273q0-4.8181-3.409091-8.2272-3.409091-3.4091-8.227273-3.4091-4.818182 0-8.227273 3.4091-3.40909 3.4091-3.40909 8.2272zm37.818181 4.3636v26.1819q0 1.8181-1.272727 3.0909-1.272727 1.2727-3.090909 1.2727h-43.6363636q-1.8181819 0-3.0909091-1.2727-1.2727273-1.2728-1.2727273-3.0909v-26.1819q0-1.8181 1.2727273-3.0909 1.2727272-1.2727 3.0909091-1.2727h1.4545454v-8.7273q0-8.3636 6.0000002-14.3636 6-6 14.363636-6 8.363637 0 14.363637 6 6 6 6 14.3636v8.7273h1.454545q1.818182 0 3.090909 1.2727 1.272727 1.2728 1.272727 3.0909z"/></svg>