<?xml version="1.0" encoding="UTF-8"?>
<svg width="300px" height="50px" viewBox="0 0 300 50" version="1.1" xmlns="http://www.w3.org/2000/svg" xmlns:xlink="http://www.w3.org/1999/xlink">
    <!-- Generator: Sketch 57.1 (83088) - https://sketch.com -->
    <title>Horizontal/Titles-Logo/Live</title>
    <desc>Created with Sketch.</desc>
    <g id="Horizontal/Titles-Logo/Live" stroke="none" stroke-width="1" fill="none" fill-rule="evenodd">
        <g id="Logo/Live/Colour">
            <g id="gc_live_logo">
                <circle id="Background" fill="#FF9900" cx="25" cy="25" r="25"></circle>
                <path d="M36.7348646,23.7728652 C36.4025078,19.4564136 32.8098212,16.0578013 28.4266832,16.0578013 C25.9659627,16.0578013 23.7546128,17.129166 22.2292005,18.8325478 C21.3794392,18.3981042 20.4177639,18.1528646 19.3989054,18.1528646 C15.9489271,18.1528646 13.1519219,20.9602386 13.1489705,24.4244326 C13.1504245,24.8138038 13.4607109,25.1246034 13.8433498,25.1246034 C14.225967,25.1246034 14.5362535,24.8138038 14.5377075,24.4298814 C14.5377943,21.7335322 16.7141615,19.5477572 19.3989054,19.5477572 C20.238901,19.5477572 21.028875,19.7620476 21.7182196,20.1387558 C21.8765529,20.2012862 22.0489054,20.2357226 22.2293741,20.2357444 C22.5925252,20.2357444 22.9231024,20.0963206 23.1716267,19.8682338 C24.4449991,18.3889502 26.3268785,17.4526939 28.4267049,17.4526939 C32.0673082,17.4526939 35.0531588,20.2663885 35.3469957,23.8465766 C35.3503594,23.8856772 35.3512491,23.8977735 35.3521389,23.9098916 C35.4142917,24.5493409 35.9062404,25.0622691 36.5341267,25.1535474 C38.6152899,25.388347 40.2322604,27.1603838 40.2322604,29.3120056 C40.2322604,31.6231466 38.3667873,33.4966835 36.0655937,33.4966835 L12.8043958,33.4966835 C11.0785061,33.4945912 9.67939583,32.089433 9.67939583,30.3560828 C9.67939583,28.6227325 11.0785061,27.2175744 12.8043958,27.2175744 C12.8045839,27.2175744 18.7045477,27.2182718 30.5042873,27.2196667 C31.6560234,27.2196667 32.5933498,28.1555307 32.5933498,29.3123108 C32.5933498,30.4690255 31.6617092,31.4043446 30.5100165,31.4043446 L18.0100165,31.4043446 C17.6264878,31.4043446 17.315572,31.7166044 17.315572,32.1017909 C17.315572,32.4869774 17.6264878,32.7992372 18.0100165,32.7992372 L30.460342,32.7992372 C32.4290052,32.7992372 33.9822387,31.2393114 33.9822387,29.3120056 C33.9822387,27.3847435 32.4290052,25.8247741 30.5100165,25.8247741 C30.4731675,25.8247741 30.4272474,25.8236189 30.3906588,25.8247741 L12.8016832,25.8220497 C10.3087144,25.8220497 8.28779426,27.8517274 8.28779426,30.3554507 C8.28779426,32.859174 10.3087144,34.8888518 12.8016832,34.8888518 L35.9000121,34.8888518 C35.9550035,34.8904646 36.0101467,34.8915762 36.065572,34.8915762 C39.1338229,34.8915762 41.6211276,32.3935196 41.6211276,29.3120056 C41.6211276,26.4580117 39.4874904,24.1048497 36.7348646,23.7728652 Z" id="GeoCat-Live-Clip" fill="#FFFFFF" fill-rule="nonzero"></path>
            </g>
        </g>
        <g id="Horizontal/Titles/Live" transform="translate(57.000000, 0.000000)">
            <g transform="translate(33.000000, 26.000000) rotate(90.000000) translate(-33.000000, -26.000000) translate(10.000000, -6.000000)" id="Titles/Live">
                <g transform="translate(23.000000, 32.000000) rotate(-90.000000) translate(-23.000000, -32.000000) translate(-8.000000, 10.000000)" fill-rule="nonzero">
                    <path d="M0.64,42.7662939 L1.13135447,40.7850259 C1.76536023,41.117879 2.77976945,41.450732 3.81002882,41.450732 C4.9195389,41.450732 5.50599424,40.9910778 5.50599424,40.2936715 C5.50599424,39.6279654 4.99878963,39.247562 3.71492795,38.8037579 C1.93971182,38.1697522 0.766801153,37.1870432 0.766801153,35.6337291 C0.766801153,33.8109625 2.30426513,32.432 4.8085879,32.432 C6.02904899,32.432 6.90080692,32.6697522 7.53481268,32.9709049 L6.99590778,34.9046225 C6.58380403,34.6985706 5.80714697,34.3974179 4.77688761,34.3974179 C3.7307781,34.3974179 3.22357349,34.8887723 3.22357349,35.4276772 C3.22357349,36.1092334 3.81002882,36.4103862 5.2048415,36.9334409 C7.09100865,37.6308473 7.96276657,38.6135562 7.96276657,40.1193199 C7.96276657,41.9103862 6.59965418,43.432 3.66737752,43.432 C2.44691643,43.432 1.24230548,43.099147 0.64,42.7662939 Z M15.9670893,36.7907896 L15.9670893,38.7562075 L12.0362536,38.7562075 L12.0362536,41.2922305 L16.4267435,41.2922305 L16.4267435,43.2734986 L9.6270317,43.2734986 L9.6270317,32.5905014 L16.2048415,32.5905014 L16.2048415,34.5717695 L12.0362536,34.5717695 L12.0362536,36.7907896 L15.9670893,36.7907896 Z M18.0751585,43.2734986 L18.0751585,32.7331527 C18.8518156,32.6063516 19.9930259,32.5112507 21.2927378,32.5112507 C22.8777522,32.5112507 23.9872622,32.7490029 24.7480692,33.3513084 C25.3979251,33.858513 25.7466282,34.6193199 25.7466282,35.6020288 C25.7466282,36.9492911 24.7797695,37.8844496 23.8604611,38.2173026 L23.8604611,38.264853 C24.6054179,38.5660058 25.0175216,39.2634121 25.2869741,40.246121 C25.6198271,41.4665821 25.93683,42.8613948 26.1428818,43.2734986 L23.6702594,43.2734986 C23.5117579,42.9564957 23.2423055,42.1005879 22.9411527,40.7850259 C22.64,39.4377637 22.1803458,39.0890605 21.1817867,39.0732104 L20.4685303,39.0732104 L20.4685303,43.2734986 L18.0751585,43.2734986 Z M20.4685303,34.3974179 L20.4685303,37.3296945 L21.4195389,37.3296945 C22.6241499,37.3296945 23.3374063,36.727389 23.3374063,35.7922305 C23.3374063,34.8253718 22.6717003,34.3181671 21.5621902,34.3181671 C20.9757349,34.3181671 20.6428818,34.3498674 20.4685303,34.3974179 Z M32.8157925,43.2734986 L29.9944669,43.2734986 L26.5708357,32.5905014 L29.2178098,32.5905014 L30.5175216,37.1077925 C30.8820749,38.3916542 31.214928,39.5962651 31.4685303,40.9276772 L31.5160807,40.9276772 C31.7855331,39.6438156 32.1183862,38.375804 32.4829395,37.1553429 L33.8460519,32.5905014 L36.4137752,32.5905014 L32.8157925,43.2734986 Z M43.9108934,36.7907896 L43.9108934,38.7562075 L39.9800576,38.7562075 L39.9800576,41.2922305 L44.3705476,41.2922305 L44.3705476,43.2734986 L37.5708357,43.2734986 L37.5708357,32.5905014 L44.1486455,32.5905014 L44.1486455,34.5717695 L39.9800576,34.5717695 L39.9800576,36.7907896 L43.9108934,36.7907896 Z M46.0189625,43.2734986 L46.0189625,32.7331527 C46.7956196,32.6063516 47.93683,32.5112507 49.2365418,32.5112507 C50.8215562,32.5112507 51.9310663,32.7490029 52.6918732,33.3513084 C53.3417291,33.858513 53.6904323,34.6193199 53.6904323,35.6020288 C53.6904323,36.9492911 52.7235735,37.8844496 51.8042651,38.2173026 L51.8042651,38.264853 C52.5492219,38.5660058 52.9613256,39.2634121 53.2307781,40.246121 C53.5636311,41.4665821 53.880634,42.8613948 54.0866859,43.2734986 L51.6140634,43.2734986 C51.455562,42.9564957 51.1861095,42.1005879 50.8849568,40.7850259 C50.583804,39.4377637 50.1241499,39.0890605 49.1255908,39.0732104 L48.4123343,39.0732104 L48.4123343,43.2734986 L46.0189625,43.2734986 Z M48.4123343,34.3974179 L48.4123343,37.3296945 L49.3633429,37.3296945 C50.5679539,37.3296945 51.2812104,36.727389 51.2812104,35.7922305 C51.2812104,34.8253718 50.6155043,34.3181671 49.5059942,34.3181671 C48.9195389,34.3181671 48.5866859,34.3498674 48.4123343,34.3974179 Z" id="SERVER" fill="#07002D"></path>
                    <path d="M2.144,22.432 L2.144,0.432 L7.10542433,0.432 L7.10542433,18.2539585 L15.8531988,18.2539585 L15.8531988,22.432 L2.144,22.432 Z M18.2115074,0.432 L23.1729317,0.432 L23.1729317,22.432 L18.2115074,22.432 L18.2115074,0.432 Z M37.8695192,22.432 L32.0594302,22.432 L25.0089851,0.432 L30.4600237,0.432 L33.1365816,9.73467062 C33.8873234,12.3785875 34.5727833,14.8592997 35.0950385,17.6011395 L35.1929614,17.6011395 C35.7478575,14.9572226 36.4333175,12.3459466 37.1840593,9.83259347 L39.991181,0.432 L45.2790148,0.432 L37.8695192,22.432 Z M60.1061661,9.08185163 L60.1061661,13.1293294 L52.0112106,13.1293294 L52.0112106,18.3518813 L61.0527536,18.3518813 L61.0527536,22.432 L47.0497863,22.432 L47.0497863,0.432 L60.5957803,0.432 L60.5957803,4.51211869 L52.0112106,4.51211869 L52.0112106,9.08185163 L60.1061661,9.08185163 Z" id="LIVE" fill="#FF8000"></path>
                </g>
            </g>
        </g>
    </g>
</svg>