<svg xmlns="http://www.w3.org/2000/svg" width="167" height="58" viewBox="0 0 167 58">
  <defs>
    <linearGradient id="linearGradient-1" x1="-13.62%" x2="80.7%" y1="94.98%" y2="28.28%">
      <stop offset="0%" stop-color="#E94E1B"/>
      <stop offset="64%" stop-color="#F39200"/>
    </linearGradient>
  </defs>
  <g fill="none" fill-rule="evenodd" class="page-1">
    <g fill-rule="nonzero" class="page-1__gc-bridge">
      <rect width="55.673" height="55.673" fill="url(#linearGradient-1)" class="page-1__gc-bridge__rectangle" rx="7.92"/>
      <g fill="#FFF" class="page-1__gc-bridge__group" transform="translate(9.086 15.644)">
        <circle cx="34.272" cy="18.862" r="3.229" class="page-1__gc-bridge__group__oval"/>
        <path d="M34.272 12.215c.835 0 1.637.167 2.383.445C34.083 5.3 27.079 0 18.851 0 8.45 0 0 8.462 0 18.85v3.42h6.848v-3.42c0-6.624 5.389-12.013 12.014-12.013 4.877 0 9.075 2.928 10.956 7.103a6.597 6.597 0 0 1 4.465-1.737l-.01.012z" class="page-1__gc-bridge__group__path"/>
      </g>
      <path fill="#1D1934" d="M86.337 20.009c-.846.412-1.77.724-2.783.957-1.013.223-2.171.346-3.496.346-1.325 0-2.584-.212-3.697-.646-1.114-.434-2.071-1.036-2.873-1.815a8.239 8.239 0 0 1-1.87-2.773c-.446-1.069-.668-2.26-.668-3.563 0-1.302.233-2.538.69-3.607.468-1.07 1.102-1.993 1.904-2.74a8.297 8.297 0 0 1 2.861-1.736c1.103-.412 2.294-.613 3.575-.613 1.28 0 2.55.19 3.663.58 1.102.389 1.993.89 2.672 1.513l-2.049 2.216c-.423-.467-1.013-.868-1.77-1.202-.757-.334-1.592-.49-2.483-.49-.89 0-1.67.156-2.383.467a5.385 5.385 0 0 0-1.826 1.292 5.918 5.918 0 0 0-1.169 1.926c-.278.735-.412 1.537-.412 2.405 0 .869.134 1.715.412 2.461a5.7 5.7 0 0 0 1.18 1.938 5.24 5.24 0 0 0 1.86 1.28c.735.3 1.559.457 2.483.457 1.27 0 2.371-.2 3.318-.59V13.84h-3.507v-2.45h6.38v8.63l-.012-.011z" class="page-1__gc-bridge__group__path"/>
      <polygon fill="#1D1934" points="89.945 4.22 100.979 4.22 100.979 6.803 92.907 6.803 92.907 11.034 100.556 11.034 100.556 13.529 92.907 13.529 92.907 18.238 101.403 18.238 101.403 20.877 89.945 20.877" class="page-1__gc-bridge__group__path"/>
      <path fill="#1D1934" d="M103.496 12.504c0-1.336.223-2.539.668-3.607.445-1.07 1.069-1.994 1.86-2.74.79-.757 1.736-1.336 2.828-1.737 1.09-.412 2.282-.612 3.563-.612 1.28 0 2.505.2 3.596.612a8.489 8.489 0 0 1 2.85 1.737 7.889 7.889 0 0 1 1.871 2.74c.446 1.08.668 2.282.668 3.607 0 1.325-.222 2.494-.668 3.563a8.024 8.024 0 0 1-1.87 2.773 8.492 8.492 0 0 1-2.85 1.815c-1.103.434-2.295.645-3.597.645-1.303 0-2.472-.211-3.563-.645a8.506 8.506 0 0 1-2.829-1.815 8.376 8.376 0 0 1-1.86-2.773c-.444-1.069-.667-2.26-.667-3.563zm3.218 0c0 .89.133 1.715.412 2.46a5.7 5.7 0 0 0 1.18 1.938c.512.546 1.113.98 1.815 1.28a5.8 5.8 0 0 0 2.316.457c.846 0 1.626-.156 2.327-.456a5.58 5.58 0 0 0 1.826-1.28 5.7 5.7 0 0 0 1.18-1.938c.279-.746.412-1.57.412-2.46 0-.892-.133-1.66-.412-2.406-.278-.735-.657-1.38-1.169-1.926a5.34 5.34 0 0 0-1.815-1.292c-.701-.312-1.492-.467-2.35-.467-.856 0-1.647.155-2.337.467a5.405 5.405 0 0 0-1.804 1.292 5.918 5.918 0 0 0-1.17 1.926c-.278.735-.411 1.537-.411 2.405z" class="page-1__gc-bridge__shape"/>
      <path fill="#1D1934" d="M136.287 8.128a3.695 3.695 0 0 0-1.715-1.303 5.578 5.578 0 0 0-2.07-.411c-.858 0-1.648.155-2.35.467a5.61 5.61 0 0 0-1.826 1.292 5.759 5.759 0 0 0-1.18 1.926c-.279.735-.412 1.537-.412 2.405 0 .913.133 1.737.4 2.494.268.757.646 1.403 1.147 1.938.49.545 1.08.957 1.77 1.258.691.3 1.47.445 2.328.445.857 0 1.681-.178 2.372-.534a4.694 4.694 0 0 0 1.67-1.403l2.371 1.67a7.483 7.483 0 0 1-2.705 2.149c-1.07.512-2.316.768-3.741.768-1.303 0-2.495-.211-3.586-.645a8.347 8.347 0 0 1-2.817-1.815 8.493 8.493 0 0 1-1.837-2.773c-.434-1.069-.657-2.26-.657-3.563 0-1.303.234-2.539.69-3.608.468-1.069 1.103-1.993 1.904-2.739a8.297 8.297 0 0 1 2.862-1.737c1.102-.412 2.294-.612 3.574-.612a9.82 9.82 0 0 1 1.67.156c.58.1 1.136.256 1.67.467a8.049 8.049 0 0 1 1.504.791c.467.312.868.69 1.202 1.125l-2.26 1.792h.022z" class="page-1__gc-bridge__group__path"/>
      <path fill="#1D1934" d="M145.585 4.22h2.56l7.171 16.657h-3.385l-1.547-3.808h-7.227l-1.503 3.808h-3.318l7.249-16.657zm3.763 10.3l-2.56-6.77-2.606 6.77h5.177-.01z" class="page-1__gc-bridge__shape"/>
      <polygon fill="#1D1934" points="158.924 6.803 153.824 6.803 153.824 4.22 166.996 4.22 166.996 6.803 161.897 6.803 161.897 20.866 158.935 20.866 158.935 6.803" class="page-1__gc-bridge__group__path"/>
      <path fill="#F39200" d="M72.252 29.618h8.262c.802 0 1.592.089 2.36.278.78.19 1.47.501 2.083.925.612.434 1.102.98 1.48 1.659.38.679.569 1.492.569 2.46 0 1.203-.346 2.183-1.025 2.962-.679.78-1.57 1.336-2.661 1.681v.056c1.336.178 2.438.702 3.296 1.559.857.857 1.291 2.004 1.291 3.44 0 1.159-.233 2.127-.69 2.918a5.411 5.411 0 0 1-1.815 1.904c-.746.479-1.603.824-2.572 1.035a13.76 13.76 0 0 1-2.95.312h-7.64v-21.2l.011.011zm3.775 8.618h3.351c1.259 0 2.216-.245 2.873-.746.657-.5.991-1.202.991-2.127 0-.924-.334-1.636-1.013-2.037-.68-.401-1.737-.601-3.174-.601h-3.028v5.511zm0 9.409h3.385c.479 0 1.002-.034 1.559-.1a4.908 4.908 0 0 0 1.536-.435 3.047 3.047 0 0 0 1.17-.957c.311-.423.467-.98.467-1.682 0-1.113-.379-1.892-1.136-2.338-.757-.434-1.904-.657-3.44-.657h-3.53v6.169h-.011z" class="page-1__gc-bridge__shape"/>
      <path fill="#F39200" d="M91.448 36.443h3.44v2.394h.057c.4-.835.957-1.514 1.68-2.037.713-.524 1.56-.78 2.517-.78.134 0 .29 0 .446.011.156 0 .3.034.423.078v3.296a6.57 6.57 0 0 0-.613-.122 3.748 3.748 0 0 0-.49-.034c-.824 0-1.48.145-1.97.446-.501.3-.891.657-1.17 1.08a3.886 3.886 0 0 0-.567 1.291c-.1.435-.145.791-.145 1.047v7.694h-3.597V36.432l-.01.011z" class="page-1__gc-bridge__group__path"/>
      <path fill="#F39200" d="M101.904 31.567c0-.58.211-1.08.645-1.515.435-.434.97-.646 1.626-.646.657 0 1.214.2 1.66.613.445.412.667.924.667 1.536 0 .613-.222 1.136-.668 1.537-.445.4-1.002.612-1.659.612s-1.202-.211-1.626-.645a2.047 2.047 0 0 1-.645-1.515v.023zm.5 4.876h3.597v14.375h-3.596V36.443zm22.582 14.375h-3.419v-2.16h-.055a4.878 4.878 0 0 1-2.083 1.915 6.426 6.426 0 0 1-2.861.657c-1.102 0-2.082-.2-2.95-.612a6.826 6.826 0 0 1-2.217-1.648 7.088 7.088 0 0 1-1.403-2.427 9.018 9.018 0 0 1-.49-2.985c0-1.057.168-2.048.513-2.961a7.303 7.303 0 0 1 1.436-2.394 6.665 6.665 0 0 1 2.216-1.604c.857-.39 1.793-.579 2.817-.579a6.62 6.62 0 0 1 1.77.223 5.86 5.86 0 0 1 1.359.557c.39.222.723.456 1.002.724.278.256.512.512.69.746h.09V28.182h3.596v22.636h-.011zM113.16 43.57c0 .556.089 1.113.256 1.68a4.41 4.41 0 0 0 .768 1.493c.334.434.768.802 1.292 1.08.523.278 1.124.423 1.826.423.657 0 1.247-.134 1.77-.4a4.294 4.294 0 0 0 1.336-1.059 4.63 4.63 0 0 0 .835-1.48c.19-.546.279-1.103.279-1.66 0-.556-.09-1.113-.279-1.68a4.529 4.529 0 0 0-2.171-2.572 3.714 3.714 0 0 0-1.77-.424c-.702 0-1.303.134-1.826.4a3.782 3.782 0 0 0-1.292 1.07c-.345.434-.59.935-.768 1.48a5.664 5.664 0 0 0-.256 1.66v-.011zm30.81-7.127v13.084c0 1.302-.157 2.471-.48 3.518-.323 1.047-.813 1.938-1.48 2.661-.669.724-1.515 1.292-2.528 1.693-1.013.4-2.227.601-3.619.601-.579 0-1.191-.045-1.837-.145-.646-.1-1.292-.245-1.915-.445a11.73 11.73 0 0 1-1.815-.746 8.207 8.207 0 0 1-1.559-1.025l2.071-2.783a7.703 7.703 0 0 0 2.36 1.514 7.26 7.26 0 0 0 2.662.523c.89 0 1.58-.122 2.17-.378.591-.256 1.059-.601 1.404-1.036.345-.434.601-.957.746-1.558a8.434 8.434 0 0 0 .223-1.982V48.88h-.056a5.047 5.047 0 0 1-1.993 1.614c-.813.368-1.715.557-2.706.557-1.08 0-2.06-.2-2.94-.601-.879-.401-1.625-.936-2.226-1.615a7.623 7.623 0 0 1-1.426-2.383 8.068 8.068 0 0 1-.512-2.883c0-1.014.167-2.016.49-2.94a7.421 7.421 0 0 1 1.403-2.394 6.737 6.737 0 0 1 2.216-1.614c.868-.401 1.837-.602 2.917-.602 1.013 0 1.971.212 2.84.624a4.773 4.773 0 0 1 2.093 1.948h.055v-2.16h3.419l.022.011zm-7.673 2.517c-.657 0-1.247.122-1.748.356a3.831 3.831 0 0 0-1.291.969c-.357.412-.624.89-.813 1.447a5.55 5.55 0 0 0-.29 1.793c0 .58.09 1.136.29 1.67.19.535.456 1.025.813 1.448.356.423.779.768 1.291 1.024.512.256 1.08.39 1.726.39a4.25 4.25 0 0 0 1.782-.368 3.92 3.92 0 0 0 1.347-1.002c.367-.423.657-.902.857-1.447.2-.546.3-1.114.3-1.715s-.1-1.202-.3-1.76a4.246 4.246 0 0 0-.857-1.458 3.784 3.784 0 0 0-1.336-.98 4.296 4.296 0 0 0-1.77-.356v-.011zm25.699 4.855v.478c0 .156 0 .323-.033.48h-10.935c.045.522.179.99.401 1.424.223.435.535.802.913 1.103.379.311.813.556 1.292.735.479.178.98.267 1.492.267.902 0 1.659-.167 2.271-.49a4.263 4.263 0 0 0 1.526-1.359l2.394 1.916c-1.414 1.915-3.474 2.872-6.169 2.872-1.113 0-2.149-.178-3.084-.523a7.311 7.311 0 0 1-2.439-1.48c-.69-.636-1.224-1.426-1.614-2.35-.39-.924-.58-1.982-.58-3.163 0-1.18.19-2.215.58-3.162.39-.946.924-1.759 1.603-2.427a7.112 7.112 0 0 1 2.416-1.559 8.066 8.066 0 0 1 3.007-.557 7.71 7.71 0 0 1 2.772.49 6.04 6.04 0 0 1 2.205 1.47c.624.646 1.102 1.459 1.447 2.427.346.97.524 2.105.524 3.396l.01.012zm-3.597-1.626c0-.457-.066-.902-.189-1.314a3.106 3.106 0 0 0-.612-1.113 2.93 2.93 0 0 0-1.07-.769c-.433-.189-.934-.29-1.513-.29-1.08 0-1.994.324-2.74.97-.746.645-1.158 1.48-1.247 2.505h7.371v.01z" class="page-1__gc-bridge__shape"/>
    </g>
  </g>
</svg>
