<?xml version="1.0" encoding="UTF-8" standalone="no"?>
<svg width="32" height="32" viewBox="0 0 32 32" version="1.1" xmlns="http://www.w3.org/2000/svg">
    <path d="M28.571,14.286l0,3.428c0,0.476 -0.166,0.881 -0.5,1.215c-0.333,0.333 -0.738,0.5 -1.214,0.5l-7.428,-0l-0,7.428c-0,0.476 -0.167,0.881 -0.5,1.214c-0.334,0.334 -0.739,0.5 -1.215,0.5l-3.428,0c-0.476,0 -0.881,-0.166 -1.215,-0.5c-0.333,-0.333 -0.5,-0.738 -0.5,-1.214l0,-7.428l-7.428,-0c-0.476,-0 -0.881,-0.167 -1.214,-0.5c-0.334,-0.334 -0.5,-0.739 -0.5,-1.215l-0,-3.428c-0,-0.476 0.166,-0.881 0.5,-1.215c0.333,-0.333 0.738,-0.5 1.214,-0.5l7.428,0l0,-7.428c0,-0.476 0.167,-0.881 0.5,-1.214c0.334,-0.334 0.739,-0.5 1.215,-0.5l3.428,-0c0.476,-0 0.881,0.166 1.215,0.5c0.333,0.333 0.5,0.738 0.5,1.214l-0,7.428l7.428,0c0.476,0 0.881,0.167 1.214,0.5c0.334,0.334 0.5,0.739 0.5,1.215Z"
          fill="#0d97ce"/>
</svg>