<?xml version="1.0" encoding="UTF-8" standalone="no"?>
<svg width="32" height="32" viewBox="0 0 32 32" version="1.1" xmlns="http://www.w3.org/2000/svg">
    <path d="M12.571,24.571l0,-12.571c0,-0.167 -0.053,-0.304 -0.16,-0.411c-0.107,-0.107 -0.244,-0.16 -0.411,-0.16l-1.143,-0c-0.167,-0 -0.303,0.053 -0.411,0.16c-0.107,0.107 -0.16,0.244 -0.16,0.411l-0,12.571c-0,0.167 0.053,0.304 0.16,0.411c0.108,0.107 0.244,0.161 0.411,0.161l1.143,-0c0.167,-0 0.304,-0.054 0.411,-0.161c0.107,-0.107 0.16,-0.244 0.16,-0.411Zm4.572,0l-0,-12.571c-0,-0.167 -0.054,-0.304 -0.161,-0.411c-0.107,-0.107 -0.244,-0.16 -0.411,-0.16l-1.142,-0c-0.167,-0 -0.304,0.053 -0.411,0.16c-0.107,0.107 -0.161,0.244 -0.161,0.411l0,12.571c0,0.167 0.054,0.304 0.161,0.411c0.107,0.107 0.244,0.161 0.411,0.161l1.142,-0c0.167,-0 0.304,-0.054 0.411,-0.161c0.107,-0.107 0.161,-0.244 0.161,-0.411Zm4.571,0l0,-12.571c0,-0.167 -0.053,-0.304 -0.16,-0.411c-0.108,-0.107 -0.244,-0.16 -0.411,-0.16l-1.143,-0c-0.167,-0 -0.304,0.053 -0.411,0.16c-0.107,0.107 -0.16,0.244 -0.16,0.411l-0,12.571c-0,0.167 0.053,0.304 0.16,0.411c0.107,0.107 0.244,0.161 0.411,0.161l1.143,-0c0.167,-0 0.303,-0.054 0.411,-0.161c0.107,-0.107 0.16,-0.244 0.16,-0.411Zm-9.714,-17.714l8,0l-0.857,-2.089c-0.083,-0.107 -0.185,-0.173 -0.304,-0.197l-5.66,0c-0.119,0.024 -0.221,0.09 -0.304,0.197l-0.875,2.089Zm16.571,0.572l0,1.142c0,0.167 -0.053,0.304 -0.16,0.411c-0.107,0.107 -0.244,0.161 -0.411,0.161l-1.714,-0l-0,16.928c-0,0.989 -0.28,1.843 -0.84,2.563c-0.559,0.72 -1.232,1.08 -2.017,1.08l-14.858,0c-0.785,0 -1.458,-0.348 -2.017,-1.044c-0.56,-0.697 -0.84,-1.539 -0.84,-2.527l0,-17l-1.714,-0c-0.167,-0 -0.304,-0.054 -0.411,-0.161c-0.107,-0.107 -0.16,-0.244 -0.16,-0.411l-0,-1.142c-0,-0.167 0.053,-0.304 0.16,-0.411c0.107,-0.107 0.244,-0.161 0.411,-0.161l5.518,0l1.25,-2.982c0.178,-0.44 0.5,-0.815 0.964,-1.125c0.464,-0.31 0.935,-0.464 1.411,-0.464l5.714,-0c0.476,-0 0.947,0.154 1.411,0.464c0.464,0.31 0.786,0.685 0.964,1.125l1.25,2.982l5.518,0c0.167,0 0.304,0.054 0.411,0.161c0.107,0.107 0.16,0.244 0.16,0.411Z"
          fill="#0d97ce"/>
</svg>