<svg height="48" viewBox="0 0 64 48" width="64" xmlns="http://www.w3.org/2000/svg"><path d="m19.821429 37.3929 2.785714-5.0358q-3.107143-2.25-4.857143-5.6785-1.75-3.4286-1.75-7.25 0-4.3215 2.178571-8.0357-8.178571 4.1785-13.6071424 12.6071 5.9642854 9.2143 15.2500004 13.3929zm13.892857-27.1072q0-.7143-.5-1.2143-.5-.5-1.214286-.5-4.464286 0-7.660714 3.1965-3.196429 3.1964-3.196429 7.6607 0 .7143.5 1.2143.5.5 1.214286.5.714286 0 1.214286-.5.5-.5.5-1.2143 0-3.0715 2.178571-5.25 2.178571-2.1786 5.25-2.1786.714286 0 1.214286-.5.5-.5.5-1.2143zm12.964285-6.8214q0 .25-.03571.3214-3.75 6.7143-11.25 20.2143-7.5 13.5-11.285714 20.25l-1.75 3.1786q-.357147.5714-1.000004.5714-.428572 0-4.785714-2.5-.571429-.3571-.571429-1 0-.4286 1.571429-3.1071-5.107143-2.3215-9.4107147-6.1786-4.3035714-3.8572-7.44642859-8.75-.71428571-1.1072-.71428571-2.4643 0-1.3571.71428571-2.4643 5.46428569-8.3928 13.57142829-13.25 8.107143-4.8571 17.714286-4.8571 3.178571 0 6.428571.6071l1.928572-3.4643q.357143-.5714 1-.5714.178571 0 .642857.2143.464286.2143 1.107143.5536.642857.3392 1.178571.6607.535715.3214 1.125.6607.589286.3393.696429.4107.571428.3571.571428.9643zm1.321429 15.9643q0 4.9643-2.821429 9.0535-2.821428 4.0893-7.464285 5.875l10-17.9285q.285714 1.6071.285714 3zm16 4.5714q0 1.25-.714286 2.4643-1.392857 2.2857-3.892857 5.1786-5.357143 6.1428-12.410714 9.5357-7.053572 3.3928-14.982143 3.3928l2.642857-4.7143q7.571429-.6428 14.017857-4.8928 6.446429-4.25 10.767857-10.9643-4.107142-6.3929-10.071428-10.5l2.25-4q3.392857 2.2857 6.517857 5.4643 3.125 3.1786 5.160714 6.5714.714286 1.2143.714286 2.4643z"/></svg>