<svg height="41.142899" viewBox="0 0 64 41.142899" width="64" xmlns="http://www.w3.org/2000/svg"><path d="m59.428571 20.5715q-5.428571-8.4286-13.607142-12.6072 2.178571 3.7143 2.178571 8.0357 0 6.6072-4.696429 11.3036-4.696428 4.6964-11.303571 4.6964-6.607143 0-11.303571-4.6964-4.696429-4.6964-4.696429-11.3036 0-4.3214 2.178571-8.0357-8.178571 4.1786-13.6071424 12.6072 4.75 7.3214 11.9107144 11.6607 7.160714 4.3393 15.517857 4.3393 8.357143 0 15.517857-4.3393 7.160714-4.3393 11.910714-11.6607zm-25.714285-13.7143q0-.7143-.5-1.2143-.5-.5-1.214286-.5-4.464286 0-7.660714 3.1964-3.196429 3.1965-3.196429 7.6607 0 .7143.5 1.2143.5.5 1.214286.5.714286 0 1.214286-.5.5-.5.5-1.2143 0-3.0714 2.178571-5.25 2.178571-2.1785 5.25-2.1785.714286 0 1.214286-.5.5-.5.5-1.2143zm30.285714 13.7143q0 1.2143-.714286 2.4643-5 8.2142-13.446428 13.1607-8.446429 4.9464-17.839286 4.9464-9.392857 0-17.839286-4.9643-8.4464283-4.9643-13.44642829-13.1428-.71428571-1.25-.71428571-2.4643 0-1.2143.71428571-2.4643 4.99999999-8.1786 13.44642829-13.1429 8.446429-4.9643 17.839286-4.9643 9.392857 0 17.839286 4.9643 8.446428 4.9643 13.446428 13.1429.714286 1.25.714286 2.4643z"/></svg>