<?xml version="1.0" encoding="UTF-8" standalone="no"?>
<svg width="32" height="32" viewBox="0 0 32 32" version="1.1" xmlns="http://www.w3.org/2000/svg">
    <path d="M20.516,24.468l0,-2.823c0,-0.165 -0.053,-0.3 -0.159,-0.406c-0.106,-0.106 -0.241,-0.158 -0.405,-0.158l-1.694,-0l0,-9.033c0,-0.164 -0.053,-0.299 -0.159,-0.405c-0.106,-0.106 -0.241,-0.159 -0.405,-0.159l-5.646,-0c-0.164,-0 -0.299,0.053 -0.405,0.159c-0.106,0.106 -0.159,0.241 -0.159,0.405l-0,2.823c-0,0.165 0.053,0.3 0.159,0.406c0.106,0.106 0.241,0.158 0.405,0.158l1.694,0l-0,5.646l-1.694,-0c-0.164,-0 -0.299,0.052 -0.405,0.158c-0.106,0.106 -0.159,0.241 -0.159,0.406l-0,2.823c-0,0.164 0.053,0.299 0.159,0.405c0.106,0.106 0.241,0.159 0.405,0.159l7.904,0c0.164,0 0.299,-0.053 0.405,-0.159c0.106,-0.106 0.159,-0.241 0.159,-0.405Zm-2.258,-15.807l0,-2.822c0,-0.165 -0.053,-0.3 -0.159,-0.406c-0.106,-0.106 -0.241,-0.159 -0.405,-0.159l-3.388,0c-0.164,0 -0.299,0.053 -0.405,0.159c-0.106,0.106 -0.159,0.241 -0.159,0.406l-0,2.822c-0,0.165 0.053,0.3 0.159,0.406c0.106,0.106 0.241,0.159 0.405,0.159l3.388,-0c0.164,-0 0.299,-0.053 0.405,-0.159c0.106,-0.106 0.159,-0.241 0.159,-0.406Zm11.29,7.339c0,2.458 -0.606,4.725 -1.817,6.8c-1.211,2.076 -2.855,3.72 -4.931,4.931c-2.075,1.211 -4.342,1.817 -6.8,1.817c-2.458,0 -4.725,-0.606 -6.8,-1.817c-2.076,-1.211 -3.72,-2.855 -4.931,-4.931c-1.211,-2.075 -1.817,-4.342 -1.817,-6.8c-0,-2.458 0.606,-4.725 1.817,-6.8c1.211,-2.076 2.855,-3.72 4.931,-4.931c2.075,-1.211 4.342,-1.817 6.8,-1.817c2.458,-0 4.725,0.606 6.8,1.817c2.076,1.211 3.72,2.855 4.931,4.931c1.211,2.075 1.817,4.342 1.817,6.8Z"
          fill="#0d97ce"/>
    <path d="M31.048,16c0,2.731 -0.675,5.25 -2.021,7.557c-1.344,2.302 -3.168,4.126 -5.47,5.47c-2.307,1.346 -4.826,2.021 -7.557,2.021c-2.731,0 -5.25,-0.675 -7.557,-2.021c-2.302,-1.344 -4.126,-3.168 -5.47,-5.47c-1.346,-2.307 -2.021,-4.826 -2.021,-7.557c-0,-2.731 0.675,-5.25 2.021,-7.557c1.344,-2.302 3.168,-4.126 5.47,-5.47c2.307,-1.346 4.826,-2.021 7.557,-2.021c2.731,-0 5.25,0.675 7.557,2.021c2.302,1.344 4.126,3.168 5.47,5.47c1.346,2.307 2.021,4.826 2.021,7.557Zm-1.5,0c0,-2.458 -0.606,-4.725 -1.817,-6.8c-1.211,-2.076 -2.855,-3.72 -4.931,-4.931c-2.075,-1.211 -4.342,-1.817 -6.8,-1.817c-2.458,-0 -4.725,0.606 -6.8,1.817c-2.076,1.211 -3.72,2.855 -4.931,4.931c-1.211,2.075 -1.817,4.342 -1.817,6.8c-0,2.458 0.606,4.725 1.817,6.8c1.211,2.076 2.855,3.72 4.931,4.931c2.075,1.211 4.342,1.817 6.8,1.817c2.458,0 4.725,-0.606 6.8,-1.817c2.076,-1.211 3.72,-2.855 4.931,-4.931c1.211,-2.075 1.817,-4.342 1.817,-6.8Zm-9.032,8.468c0,0.164 -0.053,0.299 -0.159,0.405c-0.106,0.106 -0.241,0.159 -0.405,0.159l-7.904,0c-0.164,0 -0.299,-0.053 -0.405,-0.159c-0.106,-0.106 -0.159,-0.241 -0.159,-0.405l-0,-2.823c-0,-0.165 0.053,-0.3 0.159,-0.406c0.106,-0.106 0.241,-0.158 0.405,-0.158l1.694,-0l-0,-5.646l-1.694,0c-0.164,0 -0.299,-0.052 -0.405,-0.158c-0.106,-0.106 -0.159,-0.241 -0.159,-0.406l-0,-2.823c-0,-0.164 0.053,-0.299 0.159,-0.405c0.106,-0.106 0.241,-0.159 0.405,-0.159l5.646,-0c0.164,-0 0.299,0.053 0.405,0.159c0.106,0.106 0.159,0.241 0.159,0.405l0,9.033l1.694,-0c0.164,-0 0.299,0.052 0.405,0.158c0.106,0.106 0.159,0.241 0.159,0.406l0,2.823Zm-2.258,-15.807c0,0.165 -0.053,0.3 -0.159,0.406c-0.106,0.106 -0.241,0.159 -0.405,0.159l-3.388,-0c-0.164,-0 -0.299,-0.053 -0.405,-0.159c-0.106,-0.106 -0.159,-0.241 -0.159,-0.406l-0,-2.822c-0,-0.165 0.053,-0.3 0.159,-0.406c0.106,-0.106 0.241,-0.159 0.405,-0.159l3.388,0c0.164,0 0.299,0.053 0.405,0.159c0.106,0.106 0.159,0.241 0.159,0.406l0,2.822Z"
          fill="#f0f0f0"/>
</svg>