<?xml version="1.0" encoding="UTF-8" standalone="no"?>
<svg width="32" height="32" viewBox="0 0 32 32" version="1.1" xmlns="http://www.w3.org/2000/svg">
    <g>
        <path d="M5.067,0c-2.797,0 -5.067,2.27 -5.067,5.07l-0,21.863c-0,2.797 2.27,5.067 5.067,5.067l21.863,-0c2.8,-0 5.07,-2.27 5.07,-5.067l0,-21.863c0,-2.8 -2.27,-5.07 -5.07,-5.07l-21.863,0Z"
              style="fill:url(#_Linear1);fill-rule:nonzero;"/>
        <path d="M26.836,19.833c-0,1.024 -0.831,1.852 -1.852,1.852c-1.025,0 -1.856,-0.828 -1.856,-1.852c0,-1.025 0.831,-1.853 1.856,-1.853c1.021,0 1.852,0.828 1.852,1.853"
              style="fill:#fff;fill-rule:nonzero;"/>
        <path d="M24.982,16.012c0.482,-0 0.945,0.095 1.371,0.257c-1.478,-4.232 -5.505,-7.277 -10.234,-7.277c-5.975,-0 -10.836,4.861 -10.836,10.838l0,1.966l3.932,-0l0,-1.966c0,-3.809 3.098,-6.904 6.904,-6.904c2.803,0 5.213,1.681 6.296,4.085c0.678,-0.619 1.576,-0.999 2.567,-0.999"
              style="fill:#fff;fill-rule:nonzero;"/>
    </g>
    <defs>
        <linearGradient id="_Linear1" x1="0" y1="0" x2="1" y2="0" gradientUnits="userSpaceOnUse"
                        gradientTransform="matrix(24.3818,-20.7237,20.7237,24.3818,5.13641,25.2337)">
            <stop offset="0" style="stop-color:#e94e1b;stop-opacity:1"/>
            <stop offset="0.64" style="stop-color:#f39200;stop-opacity:1"/>
            <stop offset="1" style="stop-color:#f39200;stop-opacity:1"/>
        </linearGradient>
    </defs>
</svg>