<?xml version="1.0" encoding="UTF-8" standalone="no"?>
<svg width="32" height="32" viewBox="0 0 32 32" version="1.1" xmlns="http://www.w3.org/2000/svg">
    <path d="M29.877,8.843c0.399,0.409 0.598,0.897 0.598,1.462c0,0.566 -0.199,1.053 -0.598,1.462l-6.478,6.462l2.423,2.424l-2.584,2.585c-1.756,1.755 -3.853,2.759 -6.293,3.013c-2.439,0.253 -4.655,-0.289 -6.648,-1.624l-5.848,5.848l-2.924,0l-0,-2.924l5.848,-5.848c-1.335,-1.993 -1.877,-4.209 -1.624,-6.648c0.254,-2.44 1.258,-4.537 3.013,-6.293l2.585,-2.584l2.424,2.423l6.462,-6.478c0.409,-0.399 0.899,-0.598 1.47,-0.598c0.571,-0 1.055,0.199 1.454,0.598c0.398,0.398 0.598,0.885 0.598,1.462c-0,0.576 -0.2,1.063 -0.598,1.462l-6.462,6.478l3.78,3.78l6.478,-6.462c0.41,-0.398 0.9,-0.598 1.47,-0.598c0.571,0 1.056,0.2 1.454,0.598Z"
          fill="#0d97ce"/>
    <path d="M30.952,7.797c0.684,0.702 1.023,1.538 1.023,2.508c0,0.97 -0.339,1.807 -1.031,2.517c0,-0 -5.422,5.409 -5.422,5.409l2.422,2.422l-3.646,3.645c-2.008,2.008 -4.408,3.155 -7.198,3.445c-2.374,0.246 -4.563,-0.165 -6.568,-1.229l-5.462,5.461l-5.045,0l-0,-5.045c-0,-0 5.461,-5.462 5.461,-5.461c-1.064,-2.006 -1.475,-4.195 -1.229,-6.569c0.29,-2.79 1.437,-5.19 3.445,-7.198l3.645,-3.646l2.422,2.422l5.409,-5.422l0.008,-0.008c0.701,-0.682 1.54,-1.023 2.517,-1.023c0.988,-0 1.825,0.347 2.514,1.037c0.689,0.688 1.038,1.528 1.038,2.523c-0,0.995 -0.349,1.834 -1.036,2.521c-0,0 -5.404,5.418 -5.404,5.418c-0,-0 1.661,1.661 1.661,1.661l5.424,-5.41l0.007,-0.007c0.7,-0.682 1.539,-1.023 2.516,-1.023c0.988,0 1.826,0.348 2.522,1.045l0.007,0.007Zm-1.075,1.046c-0.398,-0.398 -0.883,-0.598 -1.454,-0.598c-0.57,0 -1.06,0.2 -1.47,0.598l-6.478,6.462l-3.78,-3.78l6.462,-6.478c0.398,-0.399 0.598,-0.886 0.598,-1.462c-0,-0.577 -0.2,-1.064 -0.598,-1.462c-0.399,-0.399 -0.883,-0.598 -1.454,-0.598c-0.571,-0 -1.061,0.199 -1.47,0.598l-6.462,6.478l-2.424,-2.423l-2.585,2.584c-1.755,1.756 -2.759,3.853 -3.013,6.293c-0.253,2.439 0.289,4.655 1.624,6.648l-5.848,5.848l-0,2.924l2.924,0l5.848,-5.848c1.993,1.335 4.209,1.877 6.648,1.624c2.44,-0.254 4.537,-1.258 6.293,-3.013l2.584,-2.585l-2.423,-2.424l6.478,-6.462c0.399,-0.409 0.598,-0.896 0.598,-1.462c0,-0.565 -0.199,-1.053 -0.598,-1.462Z"
          fill="#f0f0f0"/>
</svg>