<?xml version="1.0" encoding="UTF-8" standalone="no"?>
<svg width="32" height="32" viewBox="0 0 32 32" version="1.1" xmlns="http://www.w3.org/2000/svg">
    <path d="M16,3.81l12.19,-0l0,3.047l-12.19,0l0,-3.047Zm0,10.666l12.19,0l0,3.048l-12.19,-0l0,-3.048Zm-12.19,-12.952l7.619,-0l-0,7.619l-7.619,-0l-0,-7.619Zm2.285,2.286l0,3.047l3.048,0l-0,-3.047l-3.048,-0Zm-2.285,8.38l7.619,0l-0,7.62l-7.619,-0l-0,-7.62Zm2.285,2.286l0,3.048l3.048,-0l-0,-3.048l-3.048,0Zm-2.285,8.381l7.619,0l-0,7.619l-7.619,0l-0,-7.619Zm2.285,2.286l0,3.047l3.048,0l-0,-3.047l-3.048,-0Zm9.905,-0l12.19,-0l0,3.047l-12.19,0l0,-3.047Z"
          fill="#0d97ce"/>
</svg>