<?xml version="1.0" encoding="UTF-8" standalone="no"?>
<svg width="32" height="32" viewBox="0 0 32 32" version="1.1" xmlns="http://www.w3.org/2000/svg">
    <path d="M14.225,8.79l-5.845,5.845l-2.51,-2.51l10.13,-10.13l10.13,10.13l-2.51,2.51l-5.845,-5.845l0,11.69c0,0.98 -0.795,1.775 -1.775,1.775c-0.98,-0 -1.775,-0.795 -1.775,-1.775l0,-11.69Zm-12.425,14.115l3.55,0l-0,1.775c-0,0.981 0.795,1.775 1.775,1.775l17.75,0c0.98,0 1.775,-0.794 1.775,-1.775l-0,-1.775l3.55,0l0,1.775c0,2.941 -2.384,5.325 -5.325,5.325l-17.75,0c-2.941,0 -5.325,-2.384 -5.325,-5.325l-0,-1.775Z"
          fill="#0d97ce"/>
</svg>
