<?xml version="1.0" encoding="UTF-8"?>
<svg id="All" xmlns="http://www.w3.org/2000/svg" viewBox="0 0 340.16 340.16">
  <defs>
    <style>
      .cls-1 {
        fill: #fff;
      }

      .cls-2 {
        fill: #0d97ce;
      }

      .cls-3 {
        fill: #0f1031;
      }
    </style>
  </defs>
  <g id="Logo_Only" data-name="Logo Only">
    <circle id="Background" class="cls-1" cx="170.08" cy="170.08" r="170.08"/>
    <g id="Logo-3" data-name="Logo">
      <path id="C" class="cls-2" d="M171.66,226.77c-31.31,0-56.7-25.38-56.7-56.69s25.38-56.69,56.7-56.69c15.66,0,29.83,6.35,40.09,16.6l20.05-20.04c-15.39-15.39-36.65-24.91-60.14-24.91-46.97,0-85.05,38.07-85.05,85.04s38.08,85.04,85.05,85.04c23.49,0,44.75-9.53,60.14-24.93l-20.04-20.04c-10.26,10.27-24.43,16.62-40.09,16.62Z"/>
      <path id="G" class="cls-3" d="M313.93,169.08h-101.61l57.52,57.51c-19.58,33.99-56.28,56.87-98.32,56.87-62.62,0-113.39-50.76-113.39-113.39S108.89,56.69,171.52,56.69c31.31,0,59.66,12.69,80.18,33.21l20.04-20.04c-25.65-25.65-61.08-41.51-100.22-41.51C93.24,28.35,29.78,91.8,29.78,170.08s63.46,141.73,141.73,141.73c49.84,0,93.66-25.73,118.93-64.62h.01c14.83-22.39,23.47-49.24,23.47-78.12Z"/>
    </g>
  </g>
</svg>