<?xml version="1.0" encoding="UTF-8" standalone="no"?>
<svg width="800" height="800" viewBox="0 0 800 800" version="1.1" xmlns="http://www.w3.org/2000/svg">
    <path d="M118.426,236.852l266.667,-133.333c9.384,-4.692 20.43,-4.692 29.814,0l266.667,133.333c11.293,5.647 18.426,17.189 18.426,29.815c-0,12.625 -7.133,24.168 -18.426,29.814l-266.667,133.333c-9.384,4.692 -20.43,4.692 -29.814,0l-266.667,-133.333c-11.293,-5.646 -18.426,-17.189 -18.426,-29.814c0,-12.626 7.133,-24.168 18.426,-29.815Zm0,192.962c-16.455,-8.227 -23.134,-28.266 -14.907,-44.721c8.228,-16.455 28.267,-23.135 44.721,-14.907l251.76,125.88l251.76,-125.88c16.454,-8.228 36.493,-1.548 44.721,14.907c8.227,16.455 1.548,36.494 -14.907,44.721l-266.667,133.334c-9.384,4.692 -20.43,4.692 -29.814,-0l-266.667,-133.334Zm0,133.334c-16.455,-8.228 -23.134,-28.267 -14.907,-44.722c8.228,-16.455 28.267,-23.134 44.721,-14.907l251.76,125.88l251.76,-125.88c16.454,-8.227 36.493,-1.548 44.721,14.907c8.227,16.455 1.548,36.494 -14.907,44.722l-266.667,133.333c-9.384,4.692 -20.43,4.692 -29.814,-0l-266.667,-133.333Z"
          fill="#0d97ce"/>
</svg>