<?xml version="1.0" encoding="UTF-8" standalone="no"?>
<svg width="32" height="32" viewBox="0 0 32 32" version="1.1" xmlns="http://www.w3.org/2000/svg">
    <path d="M30.411,8.536c0.476,0.678 0.583,1.446 0.321,2.303l-4.911,16.179c-0.226,0.762 -0.681,1.402 -1.366,1.919c-0.684,0.518 -1.413,0.777 -2.187,0.777l-16.482,0c-0.917,0 -1.801,-0.318 -2.652,-0.955c-0.851,-0.637 -1.444,-1.42 -1.777,-2.348c-0.286,-0.798 -0.297,-1.554 -0.036,-2.268c0,-0.048 0.018,-0.208 0.054,-0.482c0.036,-0.274 0.06,-0.494 0.071,-0.661c0.012,-0.095 -0.006,-0.223 -0.053,-0.384c-0.048,-0.161 -0.066,-0.277 -0.054,-0.348c0.024,-0.131 0.072,-0.256 0.143,-0.375c0.072,-0.119 0.17,-0.259 0.295,-0.42c0.125,-0.16 0.223,-0.3 0.294,-0.419c0.274,-0.453 0.542,-0.997 0.804,-1.634c0.262,-0.637 0.44,-1.182 0.536,-1.634c0.035,-0.119 0.038,-0.298 0.009,-0.536c-0.03,-0.238 -0.033,-0.405 -0.009,-0.5c0.035,-0.131 0.137,-0.298 0.303,-0.5c0.167,-0.202 0.268,-0.339 0.304,-0.411c0.25,-0.428 0.5,-0.976 0.75,-1.643c0.25,-0.666 0.399,-1.202 0.446,-1.607c0.012,-0.107 -0.003,-0.297 -0.044,-0.571c-0.042,-0.274 -0.039,-0.441 0.009,-0.5c0.047,-0.155 0.178,-0.336 0.392,-0.545c0.215,-0.208 0.346,-0.342 0.393,-0.402c0.226,-0.309 0.479,-0.812 0.759,-1.508c0.28,-0.697 0.444,-1.271 0.491,-1.724c0.012,-0.095 -0.006,-0.247 -0.053,-0.455c-0.048,-0.208 -0.06,-0.366 -0.036,-0.473c0.024,-0.096 0.077,-0.203 0.161,-0.322c0.083,-0.119 0.19,-0.256 0.321,-0.41c0.131,-0.155 0.232,-0.28 0.304,-0.375c0.095,-0.143 0.193,-0.325 0.294,-0.545c0.102,-0.22 0.191,-0.429 0.268,-0.625c0.078,-0.196 0.173,-0.411 0.286,-0.643c0.113,-0.232 0.229,-0.423 0.348,-0.571c0.119,-0.149 0.277,-0.289 0.473,-0.42c0.197,-0.131 0.411,-0.199 0.643,-0.205c0.232,-0.006 0.515,0.026 0.848,0.098l-0.017,0.053c0.452,-0.107 0.756,-0.16 0.91,-0.16l13.59,-0c0.881,-0 1.559,0.333 2.035,1c0.476,0.666 0.584,1.44 0.322,2.321l-4.893,16.179c-0.429,1.416 -0.854,2.33 -1.277,2.741c-0.423,0.41 -1.187,0.616 -2.295,0.616l-15.517,-0c-0.322,-0 -0.548,0.089 -0.679,0.268c-0.131,0.19 -0.137,0.446 -0.018,0.768c0.286,0.833 1.143,1.25 2.572,1.25l16.482,-0c0.345,-0 0.678,-0.093 1,-0.277c0.321,-0.185 0.529,-0.432 0.625,-0.741l5.357,-17.625c0.083,-0.262 0.113,-0.601 0.089,-1.018c0.453,0.178 0.804,0.434 1.054,0.768Zm-19,0.035c-0.048,0.155 -0.036,0.289 0.035,0.402c0.072,0.113 0.191,0.17 0.358,0.17l10.857,-0c0.154,-0 0.306,-0.057 0.455,-0.17c0.149,-0.113 0.247,-0.247 0.295,-0.402l0.375,-1.142c0.047,-0.155 0.035,-0.289 -0.036,-0.402c-0.071,-0.113 -0.19,-0.17 -0.357,-0.17l-10.857,0c-0.155,0 -0.307,0.057 -0.456,0.17c-0.148,0.113 -0.247,0.247 -0.294,0.402l-0.375,1.142Zm-1.482,4.572c-0.048,0.155 -0.036,0.289 0.035,0.402c0.072,0.113 0.191,0.169 0.357,0.169l10.858,0c0.154,0 0.306,-0.056 0.455,-0.169c0.149,-0.113 0.247,-0.247 0.295,-0.402l0.375,-1.143c0.047,-0.155 0.035,-0.289 -0.036,-0.402c-0.072,-0.113 -0.191,-0.169 -0.357,-0.169l-10.857,-0c-0.155,-0 -0.307,0.056 -0.456,0.169c-0.149,0.113 -0.247,0.247 -0.294,0.402l-0.375,1.143Z"
          fill="#0d97ce"/>
</svg>