<?xml version="1.0" encoding="UTF-8" standalone="no"?>
<svg width="32" height="32" viewBox="0 0 32 32" version="1.1" xmlns="http://www.w3.org/2000/svg">
    <path d="M20.805,16.48c-0,-0.14 -0.045,-0.255 -0.135,-0.345l-5.286,-5.285c-0.09,-0.09 -0.205,-0.135 -0.345,-0.135c-0.14,-0 -0.255,0.045 -0.345,0.135l-5.271,5.27c-0.1,0.12 -0.15,0.24 -0.15,0.36c0,0.141 0.045,0.256 0.135,0.346c0.09,0.09 0.205,0.135 0.346,0.135l3.363,-0l0,5.285c0,0.131 0.048,0.243 0.143,0.338c0.095,0.095 0.207,0.143 0.338,0.143l2.882,-0c0.131,-0 0.243,-0.048 0.338,-0.143c0.095,-0.095 0.143,-0.207 0.143,-0.338l-0,-5.285l3.363,-0c0.131,-0 0.243,-0.048 0.338,-0.143c0.095,-0.095 0.143,-0.207 0.143,-0.338Zm9.61,4.325c-0,1.592 -0.563,2.95 -1.689,4.077c-1.127,1.126 -2.486,1.689 -4.077,1.689l-16.337,-0c-1.852,-0 -3.436,-0.658 -4.752,-1.975c-1.317,-1.316 -1.975,-2.9 -1.975,-4.752c0,-1.301 0.351,-2.503 1.051,-3.604c0.701,-1.101 1.642,-1.927 2.823,-2.477c-0.02,-0.301 -0.03,-0.516 -0.03,-0.646c0,-2.122 0.751,-3.934 2.252,-5.436c1.502,-1.501 3.314,-2.252 5.436,-2.252c1.562,0 2.991,0.436 4.287,1.307c1.296,0.87 2.24,2.027 2.83,3.468c0.711,-0.621 1.542,-0.931 2.493,-0.931c1.061,0 1.967,0.375 2.718,1.126c0.75,0.751 1.126,1.657 1.126,2.718c-0,0.761 -0.205,1.452 -0.616,2.072c1.302,0.31 2.37,0.989 3.206,2.035c0.836,1.046 1.254,2.24 1.254,3.581Z"
          fill="#0d97ce"/>
    <path d="M3.932,12.886c0.053,-2.437 0.949,-4.525 2.689,-6.265c1.794,-1.795 3.96,-2.692 6.496,-2.692c1.866,0 3.574,0.521 5.123,1.561c1.062,0.714 1.925,1.587 2.591,2.62c0.588,-0.224 1.22,-0.337 1.896,-0.337c1.475,0 2.735,0.522 3.778,1.566c1.044,1.043 1.566,2.303 1.566,3.778c-0,0.417 -0.045,0.818 -0.133,1.205c0.92,0.463 1.718,1.118 2.395,1.965c1.054,1.32 1.582,2.826 1.582,4.518c-0,2.006 -0.71,3.718 -2.129,5.137c-1.419,1.419 -3.131,2.129 -5.137,2.129l-16.337,-0c-2.265,-0 -4.203,-0.804 -5.813,-2.414c-1.61,-1.61 -2.414,-3.548 -2.414,-5.813c0,-1.592 0.429,-3.062 1.286,-4.409c0.672,-1.057 1.526,-1.907 2.561,-2.549Zm26.483,7.919c-0,-1.341 -0.418,-2.535 -1.254,-3.581c-0.836,-1.046 -1.904,-1.725 -3.206,-2.035c0.411,-0.62 0.616,-1.311 0.616,-2.072c-0,-1.061 -0.376,-1.967 -1.126,-2.718c-0.751,-0.751 -1.657,-1.126 -2.718,-1.126c-0.951,0 -1.782,0.31 -2.493,0.931c-0.59,-1.441 -1.534,-2.598 -2.83,-3.468c-1.296,-0.871 -2.725,-1.307 -4.287,-1.307c-2.122,0 -3.934,0.751 -5.436,2.252c-1.501,1.502 -2.252,3.314 -2.252,5.436c0,0.13 0.01,0.345 0.03,0.646c-1.181,0.55 -2.122,1.376 -2.823,2.477c-0.7,1.101 -1.051,2.303 -1.051,3.604c0,1.852 0.658,3.436 1.975,4.752c1.316,1.317 2.9,1.975 4.752,1.975l16.337,-0c1.591,-0 2.95,-0.563 4.077,-1.689c1.126,-1.127 1.689,-2.485 1.689,-4.077Zm-9.61,-4.325c-0,0.131 -0.048,0.243 -0.143,0.338c-0.095,0.095 -0.207,0.143 -0.338,0.143l-3.363,-0l-0,5.285c-0,0.131 -0.048,0.243 -0.143,0.338c-0.095,0.095 -0.207,0.143 -0.338,0.143l-2.882,-0c-0.131,-0 -0.243,-0.048 -0.338,-0.143c-0.095,-0.095 -0.143,-0.207 -0.143,-0.338l0,-5.285l-3.363,-0c-0.141,-0 -0.256,-0.045 -0.346,-0.135c-0.09,-0.09 -0.135,-0.205 -0.135,-0.346c0,-0.12 0.05,-0.24 0.15,-0.36l5.271,-5.27c0.09,-0.09 0.205,-0.135 0.345,-0.135c0.14,-0 0.255,0.045 0.345,0.135l5.286,5.285c0.09,0.09 0.135,0.205 0.135,0.345Z"
          fill="#f0f0f0"/>
</svg>