<?xml version="1.0" encoding="utf-8"?>
<svg width="2048" height="1792" viewBox="0 0 2048 1792" xmlns="http://www.w3.org/2000/svg">
    <path fill="#0d97ce" d="M1984,1152c0,106 -37.5,196.5 -112.5,271.5c-75,75 -165.5,112.5 -271.5,112.5l-1088,0c-123.333,0 -228.833,-43.833 -316.5,-131.5c-87.667,-87.667 -131.5,-193.167 -131.5,-316.5c0,-88 23.667,-168.5 71,-241.5c47.333,-73 109.667,-127.5 187,-163.5c-1.333,-18.667 -2,-33 -2,-43c0,-141.333 50,-262 150,-362c100,-100 220.667,-150 362,-150c105.333,0 200.833,29.333 286.5,88c85.667,58.667 148.167,135.333 187.5,230c46.667,-41.333 102,-62 166,-62c70.667,0 131,25 181,75c50,50 75,110.333 75,181c0,50 -13.667,96 -41,138c86,20 157,64.833 213,134.5c56,69.667 84,149.5 84,239.5Zm-568.674,-356.069c-0,-13.502 -4.726,-24.98 -14.178,-34.431l-68.863,-68.864c-9.452,-9.451 -20.929,-14.177 -34.432,-14.177c-13.502,-0 -24.98,4.726 -34.431,14.177l-332.165,332.671l-148.866,-149.373c-9.452,-9.452 -20.929,-14.177 -34.432,-14.177c-13.502,-0 -24.98,4.725 -34.431,14.177l-68.864,68.864c-9.452,9.451 -14.177,20.929 -14.177,34.431c-0,13.503 4.725,24.98 14.177,34.432l252.162,252.161c9.451,9.452 20.929,14.178 34.431,14.178c13.503,-0 24.98,-4.726 34.432,-14.178l435.459,-435.459c9.452,-9.452 14.178,-20.929 14.178,-34.432Z"/>
</svg>