<?xml version="1.0" encoding="UTF-8" standalone="no"?>
<svg width="32" height="32" viewBox="0 0 32 32" version="1.1" xmlns="http://www.w3.org/2000/svg">
    <path d="M11.801,1.106l1.812,1.394l-5.431,7.06l-4.901,-4.288l1.505,-1.72l3.069,2.683l3.946,-5.129Zm0,10.667l1.812,1.394l-5.431,7.06l-4.901,-4.289l1.505,-1.72l3.069,2.684l3.946,-5.129Zm0,10.667l1.812,1.393l-5.431,7.061l-4.901,-4.289l1.505,-1.72l3.069,2.684l3.946,-5.129Zm4.199,-18.63l12.19,-0l0,3.047l-12.19,0l0,-3.047Zm0,10.666l12.19,0l0,3.048l-12.19,-0l0,-3.048Zm0,10.667l12.19,-0l0,3.047l-12.19,0l0,-3.047Z"
          fill="#0d97ce"/>
</svg>