<?xml version="1.0" encoding="iso-8859-1"?>
<svg xmlns="http://www.w3.org/2000/svg" version="1.1" id="Capa_1"  viewBox="0 0 460 460" xml:space="preserve" width="512" height="512">
<g id="XMLID_1465_">
	<path id="XMLID_1175_" style="fill:#D0C09A;" d="M48.426,48.428c-77.961,77.965-59.866,222.466,40.417,322.754   c57.482,57.484,129.487,87.954,195.164,88.816c15.085,0.198,26.97-13.999,23.944-28.638l-20.486-99.1   c-1.875-9.071,1.109-18.706,7.898-25.494l0,0c11.842-11.843,30.873-11.137,40.577,1.504l60.186,78.41   c9.487,12.36,28.965,10.874,37.628-2.97c50.826-81.22,26.708-205.564-62.587-294.863C270.884-11.44,126.388-29.536,48.426,48.428z    M279.775,162.147c15.159-15.16,39.737-15.16,54.896,0l0,0c15.159,15.16,15.159,39.738,0,54.898l0,0   c-15.159,15.16-39.737,15.16-54.896,0l0,0C264.615,201.885,264.615,177.307,279.775,162.147L279.775,162.147z"/>
	<path id="XMLID_1938_" style="fill:#A79A87;" d="M307.223,138.777c-13.574,0-26.335,5.286-35.933,14.884   c-19.814,19.814-19.814,52.055,0,71.868c9.598,9.6,22.358,14.886,35.933,14.886c13.574,0,26.335-5.286,35.933-14.885   c9.599-9.599,14.885-22.36,14.885-35.935s-5.286-26.336-14.885-35.935C333.558,144.064,320.797,138.777,307.223,138.777z    M334.671,217.045c-15.159,15.16-39.737,15.16-54.896,0h0c-15.159-15.16-15.159-39.738,0-54.898h0   c15.159-15.16,39.737-15.16,54.896,0C349.83,177.307,349.83,201.885,334.671,217.045z M371.167,88.847   C270.884-11.44,126.388-29.536,48.426,48.428S-11.44,270.895,88.844,371.182c57.482,57.484,129.487,87.954,195.164,88.816   c15.084,0.198,26.97-13.999,23.944-28.638l-20.486-99.1c-1.875-9.071,1.109-18.706,7.897-25.494   c11.843-11.843,30.874-11.137,40.577,1.504l60.186,78.41c9.487,12.36,28.965,10.874,37.629-2.97   C484.58,302.491,460.462,178.146,371.167,88.847z M423.581,377.345c-2.131,3.405-5.723,5.549-9.609,5.735   c-1.981,0.097-5.684-0.263-8.326-3.706l-60.186-78.41c-6.557-8.542-16.563-13.85-27.455-14.563   c-11.483-0.758-22.826,3.578-31.128,11.88c-9.697,9.699-13.87,23.31-11.163,36.408l20.486,99.1c0.689,3.336-0.25,6.868-2.579,9.689   c-2.41,2.92-5.86,4.568-9.456,4.521c-65.385-0.857-133.484-31.948-186.836-85.302C1.884,267.248-16.246,130.074,56.912,56.914   c29.399-29.401,69.898-44.936,115.976-44.936c8.822,0,17.855,0.57,27.048,1.722c58.324,7.305,116.122,37.006,162.747,83.633   C446.837,181.491,472.45,299.253,423.581,377.345z"/>
	<path id="XMLID_1868_" style="fill:#9BAB67;" d="M186.245,108.636L186.245,108.636c-15.152,15.153-39.719,15.153-54.87,0l0,0   c-15.166-15.167-15.166-39.757,0-54.924l0,0c15.152-15.152,39.718-15.152,54.87,0l0,0   C201.412,68.878,201.412,93.469,186.245,108.636z"/>
	<path id="XMLID_1877_" style="fill:#F9DE69;" d="M116.245,196.289L116.245,196.289c-15.152,15.152-39.719,15.152-54.87,0l0,0   c-15.166-15.167-15.166-39.757,0-54.924l0,0c15.152-15.152,39.718-15.152,54.87,0l0,0   C131.412,156.532,131.412,181.122,116.245,196.289z"/>
	<path id="XMLID_1878_" style="fill:#D46456;" d="M148.625,298.636L148.625,298.636c-15.152,15.153-39.719,15.153-54.87,0l0,0   c-15.166-15.167-15.166-39.757,0-54.924l0,0c15.152-15.152,39.718-15.152,54.87,0l0,0   C163.792,258.878,163.792,283.469,148.625,298.636z"/>
	<path id="XMLID_1899_" style="fill:#889083;" d="M232.708,376.289L232.708,376.289c-15.152,15.153-39.719,15.153-54.87,0l0,0   c-15.166-15.167-15.166-39.757,0-54.924l0,0c15.152-15.152,39.718-15.152,54.87,0l0,0   C247.874,336.532,247.874,361.122,232.708,376.289z"/>
</g>















</svg>