<?xml version="1.0" encoding="utf-8"?>
<svg width="800px" height="800px" viewBox="-4 0 32 32" version="1.1" xmlns="http://www.w3.org/2000/svg">
    <path fill="#0d97ce" d="M23.969 9.781c0.469-1.563-3.5-4.063-7.094-4.219-6.969-0.281-16.094 3.375-16.844 11.406-0.563 6.438 6.063 9.75 10.938 9.75 4.906 0 9.563-3.781 10.063-5.844 0.5-2.125-4.469-1.531-4.125-4.906 0.5-4.781 6.375-3.906 7.063-6.188zM16.594 8.688c0 0.813-0.625 1.438-1.406 1.438-0.813 0-1.438-0.625-1.438-1.438 0-0.781 0.625-1.406 1.438-1.406 0.781 0 1.406 0.625 1.406 1.406zM12.719 9.438c0 0.875-0.688 1.563-1.531 1.563s-1.531-0.688-1.531-1.563c0-0.813 0.688-1.5 1.531-1.5s1.531 0.688 1.531 1.5zM9 11.469c0 0.906-0.688 1.625-1.594 1.625-0.875 0-1.594-0.719-1.594-1.625 0-0.844 0.719-1.531 1.594-1.531 0.906 0 1.594 0.688 1.594 1.531zM5.875 15.031c0 0.906-0.75 1.656-1.656 1.656-0.969 0-1.719-0.75-1.719-1.656 0-0.969 0.75-1.719 1.719-1.719 0.906 0 1.656 0.75 1.656 1.719zM14.469 21.031c0 1.188-1 2.156-2.219 2.156-1.188 0-2.156-0.969-2.156-2.156 0-1.219 0.969-2.25 2.156-2.25 1.219 0 2.219 1.031 2.219 2.25z" />
</svg>